<svg class="main-svg" xmlns="http://www.w3.org/2000/svg" xmlns:xlink="http://www.w3.org/1999/xlink" width="700" height="500" style="" viewBox="0 0 700 500"><rect x="0" y="0" width="700" height="500" style="fill: rgb(255, 255, 255); fill-opacity: 1;"/><defs id="defs-bfa168"><g class="clips"><clipPath id="clipbfa168xyplot" class="plotclip"><rect width="533" height="320"/></clipPath><clipPath class="axesclip" id="clipbfa168x"><rect x="80" y="0" width="533" height="500"/></clipPath><clipPath class="axesclip" id="clipbfa168y"><rect x="0" y="100" width="700" height="320"/></clipPath><clipPath class="axesclip" id="clipbfa168xy"><rect x="80" y="100" width="533" height="320"/></clipPath></g><g class="gradients"/><g class="patterns"/></defs><g class="bglayer"><rect class="bg" x="80" y="100" width="533" height="320" style="fill: rgb(229, 236, 246); fill-opacity: 1; stroke-width: 0;"/></g><g class="layer-below"><g class="imagelayer"/><g class="shapelayer"/></g><g class="cartesianlayer"><g class="subplot xy"><g class="layer-subplot"><g class="shapelayer"/><g class="imagelayer"/></g><g class="minor-gridlayer"><g class="x"/><g class="y"/></g><g class="gridlayer"><g class="x"><path class="xgrid crisp" transform="translate(81.92,0)" d="M0,100v320" style="stroke: rgb(255, 255, 255); stroke-opacity: 1; stroke-width: 1px;"/><path class="xgrid crisp" transform="translate(194.98000000000002,0)" d="M0,100v320" style="stroke: rgb(255, 255, 255); stroke-opacity: 1; stroke-width: 1px;"/><path class="xgrid crisp" transform="translate(307.98,0)" d="M0,100v320" style="stroke: rgb(255, 255, 255); stroke-opacity: 1; stroke-width: 1px;"/><path class="xgrid crisp" transform="translate(420.98,0)" d="M0,100v320" style="stroke: rgb(255, 255, 255); stroke-opacity: 1; stroke-width: 1px;"/><path class="xgrid crisp" transform="translate(533.98,0)" d="M0,100v320" style="stroke: rgb(255, 255, 255); stroke-opacity: 1; stroke-width: 1px;"/></g><g class="y"><path class="ygrid crisp" transform="translate(0,417.41)" d="M80,0h533" style="stroke: rgb(255, 255, 255); stroke-opacity: 1; stroke-width: 1px;"/><path class="ygrid crisp" transform="translate(0,382.04)" d="M80,0h533" style="stroke: rgb(255, 255, 255); stroke-opacity: 1; stroke-width: 1px;"/><path class="ygrid crisp" transform="translate(0,335.28)" d="M80,0h533" style="stroke: rgb(255, 255, 255); stroke-opacity: 1; stroke-width: 1px;"/><path class="ygrid crisp" transform="translate(0,299.90999999999997)" d="M80,0h533" style="stroke: rgb(255, 255, 255); stroke-opacity: 1; stroke-width: 1px;"/><path class="ygrid crisp" transform="translate(0,264.53999999999996)" d="M80,0h533" style="stroke: rgb(255, 255, 255); stroke-opacity: 1; stroke-width: 1px;"/><path class="ygrid crisp" transform="translate(0,217.78)" d="M80,0h533" style="stroke: rgb(255, 255, 255); stroke-opacity: 1; stroke-width: 1px;"/><path class="ygrid crisp" transform="translate(0,182.41)" d="M80,0h533" style="stroke: rgb(255, 255, 255); stroke-opacity: 1; stroke-width: 1px;"/><path class="ygrid crisp" transform="translate(0,147.03)" d="M80,0h533" style="stroke: rgb(255, 255, 255); stroke-opacity: 1; stroke-width: 1px;"/></g></g><g class="zerolinelayer"/><path class="xlines-below"/><path class="ylines-below"/><g class="overlines-below"/><g class="xaxislayer-below"/><g class="yaxislayer-below"/><g class="overaxes-below"/><g class="plot" transform="translate(80,100)" clip-path="url(#clipbfa168xyplot)"><g class="scatterlayer mlayer"><g class="trace scatter traceeb924c" style="stroke-miterlimit: 2;"><g class="fills"><g><path class="js-fill" d="M533,3360L0,3360L0,302.27L1.92,293.13L3.84,300.3L5.63,303.11L7.55,301.44L9.41,303.73L11.32,304L15.1,302.56L17.02,300.63L18.87,301.76L20.79,300.69L22.65,297.92L24.57,290.28L26.49,297.03L28.22,298.94L30.14,298.02L31.99,300.45L35.77,299.98L37.69,298.91L39.61,296.5L41.46,298.51L43.38,297.48L45.24,294.43L47.15,291.16L49.07,291.42L50.81,294.9L52.72,293.86L54.58,295.9L56.5,296.39L60.27,294.35L62.19,292.69L64.05,293.38L65.97,292.33L67.82,289.5L69.74,278.96L71.66,287.59L73.39,290.01L75.31,289.03L77.17,289.99L79.09,290.46L80.94,289.26L82.86,288.54L84.78,286.56L88.55,286.19L90.41,282.69L92.33,276.51L94.25,282.31L96.04,283.87L97.96,282.35L99.82,284.53L101.74,284.61L103.59,284.53L105.51,283.29L107.43,280.72L109.29,281.84L111.2,281.51L113.06,278.43L114.98,272.7L116.9,275.65L118.63,278.97L120.55,277.96L122.4,280.01L124.32,279.92L128.1,278.7L130.02,276.55L131.87,277.43L133.79,276.24L135.65,272.67L137.57,262.54L139.48,271.72L141.22,273.87L143.14,272.41L144.99,273.89L148.77,273.27L150.69,272.34L152.6,269.27L154.46,270.73L156.38,269.59L158.24,266.59L160.15,264.96L162.07,260.29L163.8,266L165.72,265.21L167.58,267.24L169.5,266.95L173.27,265.19L175.19,263.03L177.05,264.29L178.97,263.1L180.82,260.78L182.74,251.1L186.45,260.62L188.37,260.02L190.23,261.06L192.15,261.04L197.84,258.5L199.7,259.16L201.62,258.69L203.47,254.63L205.39,245.31L207.31,253.28L209.04,255.34L210.96,254.58L212.82,255.63L214.73,255.5L218.51,254.36L220.43,250.94L222.28,252.43L224.2,251.56L229.9,243.14L231.63,247.86L233.55,247.11L235.4,248.42L241.1,246.77L243.02,244.36L244.87,244.61L246.79,243.87L248.65,241.08L250.57,227.65L252.48,238.15L254.22,240.83L256.13,240.11L257.99,241.11L259.91,241.25L261.77,240.45L263.68,239.79L265.6,238.28L267.46,238.9L269.38,238.1L271.23,234.52L273.15,226.13L275.07,233.82L276.87,235.7L278.78,235.08L280.64,236.27L286.33,235.04L288.25,231.89L290.11,233.8L292.03,232.9L293.88,230.73L295.8,223.94L297.72,225.71L299.45,229.99L301.37,229.86L303.23,230.95L307,230.97L308.92,230.49L310.84,229.05L312.7,229.87L314.61,229.1L316.47,227.2L318.39,213.59L320.31,224.04L322.04,227.42L323.96,227.17L327.73,228.64L329.59,228.29L333.43,226.97L335.28,227.98L337.2,227.32L339.06,225.76L340.98,223.45L342.89,216.04L344.63,224.35L346.55,225.32L348.4,226.77L350.32,227.18L354.1,226.78L356.01,225.11L357.87,226.06L359.79,225.7L361.65,223.31L363.56,216.3L365.48,218.53L367.28,222.17L369.2,222.36L371.05,223.67L376.74,223.12L378.66,221.84L380.52,222.51L382.44,221.97L384.29,219.36L386.21,207.25L388.13,216.87L389.86,219.14L399.33,219.93L401.25,218.29L403.11,219.42L405.03,219.12L406.88,217.64L408.8,214.84L410.72,210.4L412.45,216.18L418.14,218.41L420,218.45L421.92,218.27L423.84,217.2L425.69,218.03L427.61,217.7L429.47,215.82L431.39,206.74L435.04,214.63L436.96,215.3L440.73,216.26L442.59,216.19L446.43,215.19L448.28,215.69L450.2,215.29L452.06,213.12L453.98,203.48L455.89,206.32L457.69,209.4L459.61,210.36L461.46,211.48L463.38,211.64L467.16,211.27L469.07,209.81L470.93,210.64L472.85,210.29L474.71,208.62L476.62,205.5L478.54,204.21L480.28,207.28L485.97,208.6L487.83,208.37L489.74,208.17L491.66,207.09L493.52,207.56L495.44,206.76L497.29,204.82L499.21,196.84L501.13,201.34L502.86,202.45L518.02,200.04L519.88,197.56L521.8,192.95L523.72,196.17L525.45,197.13L527.37,196.98L529.23,197.54L531.14,197.22L533,196.87" style="fill: rgb(99, 110, 250); fill-opacity: 0.5; stroke-width: 0;"/></g><g><path class="js-fill" d="M0,226.58L1.92,223.76L3.84,227.13L5.63,227.36L7.55,225.98L9.41,226.35L11.32,225.11L13.18,225.17L15.1,224.09L17.02,222.28L18.87,223.05L20.79,222.16L22.65,219.74L24.57,217.08L26.49,220.42L30.14,219.68L31.99,220.74L33.91,218.75L35.77,219.91L39.61,216.75L41.46,217.68L43.38,217.13L45.24,214.21L47.15,213.05L49.07,214.35L50.81,214.58L52.72,213.69L54.58,213.59L56.5,212.43L60.27,210.93L62.19,209.4L65.97,208.6L67.82,206.34L69.74,203.26L71.66,206.61L77.17,205.35L79.09,203.68L82.86,202.72L84.78,201.22L88.55,200.29L90.41,197.97L92.33,196.89L94.25,198.18L97.96,197.19L99.82,197.02L101.74,196.15L103.59,197.02L107.43,194.6L109.29,194.65L111.2,193.85L113.06,191.71L114.98,190.14L116.9,192.56L122.4,192.07L124.32,190.84L126.18,191.1L128.1,190.3L133.79,187.9L135.65,186.01L137.57,184.01L139.48,186.98L144.99,185.48L146.91,184.29L150.69,183.09L152.6,181.84L154.46,181.54L156.38,180.19L160.15,177.08L162.07,176.93L165.72,177.38L167.58,176.89L169.5,175.06L171.35,174.8L175.19,172.35L177.05,171.95L180.82,169.11L182.74,166.74L184.66,169.17L186.45,169.55L201.62,167.31L203.47,164.43L205.39,162.96L207.31,164.21L209.04,161.98L210.96,161.45L212.82,160.71L214.73,158.12L222.28,154.54L224.2,153.39L227.98,149.16L229.9,149.76L235.4,148.26L237.32,147.46L243.02,146.34L244.87,144.71L250.57,140.58L252.48,142.76L256.13,141.8L257.99,141.54L259.91,140.69L261.77,141.24L263.68,140.69L265.6,141.46L271.23,137.37L273.15,139.01L275.07,140.27L276.87,139.36L280.64,139.34L282.56,137.94L284.42,138.55L286.33,138.07L292.03,136.09L293.88,134.07L295.8,132.64L297.72,135.05L299.45,133.65L301.37,134.08L310.84,133.31L312.7,132.44L314.61,131.61L316.47,129.7L318.39,130.28L320.31,131.92L322.04,130.98L323.96,131.37L325.82,131L327.73,129.36L329.59,130.63L331.51,130.45L335.28,130.81L337.2,129.99L339.06,128.12L340.98,127.76L346.55,129.53L348.4,128.89L350.32,127.33L352.18,127.64L359.79,123.39L361.65,121.57L363.56,119.31L365.48,121.82L367.28,120.26L369.2,120.08L371.05,119.12L372.97,117.12L374.83,117.15L376.74,115.97L378.66,115.83L380.52,114.84L386.21,112.07L388.13,113.08L389.86,112.23L391.78,112.13L405.03,108.12L406.88,107.26L408.8,106.98L410.72,108.61L416.23,108.81L418.14,107.34L420,107.95L421.92,107.79L427.61,107.29L429.47,106.4L431.39,105.73L433.31,107.91L435.04,106.59L436.96,107.25L438.81,107.04L440.73,105.16L442.59,106.33L444.51,105.99L450.2,105.46L452.06,104.14L453.98,105.28L455.89,105.11L457.69,103.76L459.61,104.26L461.46,103.55L463.38,101.8L465.24,102.76L467.16,101.99L472.85,100.59L474.71,99.89L476.62,99.51L478.54,101.68L480.28,100.41L482.19,101.25L485.97,99.04L487.83,100.24L491.66,99.78L493.52,99.73L497.29,97.89L499.21,99.17L501.13,99.25L502.86,97.76L504.78,98.34L506.64,97.73L508.56,95.72L510.41,96.52L521.8,95.76L523.72,96.04L525.45,94.85L527.37,95.37L529.23,95.08L531.14,93.73L533,94.87L533,196.87L531.14,197.22L529.23,197.54L527.37,196.98L525.45,197.13L523.72,196.17L521.8,192.95L519.88,197.56L518.02,200.04L502.86,202.45L501.13,201.34L499.21,196.84L497.29,204.82L495.44,206.76L493.52,207.56L491.66,207.09L489.74,208.17L487.83,208.37L485.97,208.6L480.28,207.28L478.54,204.21L476.62,205.5L474.71,208.62L472.85,210.29L470.93,210.64L469.07,209.81L467.16,211.27L463.38,211.64L461.46,211.48L459.61,210.36L457.69,209.4L455.89,206.32L453.98,203.48L452.06,213.12L450.2,215.29L448.28,215.69L446.43,215.19L442.59,216.19L440.73,216.26L436.96,215.3L435.04,214.63L431.39,206.74L429.47,215.82L427.61,217.7L425.69,218.03L423.84,217.2L421.92,218.27L420,218.45L418.14,218.41L412.45,216.18L410.72,210.4L408.8,214.84L406.88,217.64L405.03,219.12L403.11,219.42L401.25,218.29L399.33,219.93L389.86,219.14L388.13,216.87L386.21,207.25L384.29,219.36L382.44,221.97L380.52,222.51L378.66,221.84L376.74,223.12L371.05,223.67L369.2,222.36L367.28,222.17L365.48,218.53L363.56,216.3L361.65,223.31L359.79,225.7L357.87,226.06L356.01,225.11L354.1,226.78L350.32,227.18L348.4,226.77L346.55,225.32L344.63,224.35L342.89,216.04L340.98,223.45L339.06,225.76L337.2,227.32L335.28,227.98L333.43,226.97L329.59,228.29L327.73,228.64L323.96,227.17L322.04,227.42L320.31,224.04L318.39,213.59L316.47,227.2L314.61,229.1L312.7,229.87L310.84,229.05L308.92,230.49L307,230.97L303.23,230.95L301.37,229.86L299.45,229.99L297.72,225.71L295.8,223.94L293.88,230.73L292.03,232.9L290.11,233.8L288.25,231.89L286.33,235.04L280.64,236.27L278.78,235.08L276.87,235.7L275.07,233.82L273.15,226.13L271.23,234.52L269.38,238.1L267.46,238.9L265.6,238.28L263.68,239.79L261.77,240.45L259.91,241.25L257.99,241.11L256.13,240.11L254.22,240.83L252.48,238.15L250.57,227.65L248.65,241.08L246.79,243.87L244.87,244.61L243.02,244.36L241.1,246.77L235.4,248.42L233.55,247.11L231.63,247.86L229.9,243.14L224.2,251.56L222.28,252.43L220.43,250.94L218.51,254.36L214.73,255.5L212.82,255.63L210.96,254.58L209.04,255.34L207.31,253.28L205.39,245.31L203.47,254.63L201.62,258.69L199.7,259.16L197.84,258.5L192.15,261.04L190.23,261.06L188.37,260.02L186.45,260.62L182.74,251.1L180.82,260.78L178.97,263.1L177.05,264.29L175.19,263.03L173.27,265.19L169.5,266.95L167.58,267.24L165.72,265.21L163.8,266L162.07,260.29L160.15,264.96L158.24,266.59L156.38,269.59L154.46,270.73L152.6,269.27L150.69,272.34L148.77,273.27L144.99,273.89L143.14,272.41L141.22,273.87L139.48,271.72L137.57,262.54L135.65,272.67L133.79,276.24L131.87,277.43L130.02,276.55L128.1,278.7L124.32,279.92L122.4,280.01L120.55,277.96L118.63,278.97L116.9,275.65L114.98,272.7L113.06,278.43L111.2,281.51L109.29,281.84L107.43,280.72L105.51,283.29L103.59,284.53L101.74,284.61L99.82,284.53L97.96,282.35L96.04,283.87L94.25,282.31L92.33,276.51L90.41,282.69L88.55,286.19L84.78,286.56L82.86,288.54L80.94,289.26L79.09,290.46L77.17,289.99L75.31,289.03L73.39,290.01L71.66,287.59L69.74,278.96L67.82,289.5L65.97,292.33L64.05,293.38L62.19,292.69L60.27,294.35L56.5,296.39L54.58,295.9L52.72,293.86L50.81,294.9L49.07,291.42L47.15,291.16L45.24,294.43L43.38,297.48L41.46,298.51L39.61,296.5L37.69,298.91L35.77,299.98L31.99,300.45L30.14,298.02L28.22,298.94L26.49,297.03L24.57,290.28L22.65,297.92L20.79,300.69L18.87,301.76L17.02,300.63L15.1,302.56L11.32,304L9.41,303.73L7.55,301.44L5.63,303.11L3.84,300.3L1.92,293.13L0,302.27Z" style="fill: rgb(239, 85, 59); fill-opacity: 0.5; stroke-width: 0;"/></g></g><g class="errorbars"/><g class="lines"><path class="js-line" d="M0,302.27L1.92,293.13L3.84,300.3L5.63,303.11L7.55,301.44L9.41,303.73L11.32,304L15.1,302.56L17.02,300.63L18.87,301.76L20.79,300.69L22.65,297.92L24.57,290.28L26.49,297.03L28.22,298.94L30.14,298.02L31.99,300.45L35.77,299.98L37.69,298.91L39.61,296.5L41.46,298.51L43.38,297.48L45.24,294.43L47.15,291.16L49.07,291.42L50.81,294.9L52.72,293.86L54.58,295.9L56.5,296.39L60.27,294.35L62.19,292.69L64.05,293.38L65.97,292.33L67.82,289.5L69.74,278.96L71.66,287.59L73.39,290.01L75.31,289.03L77.17,289.99L79.09,290.46L80.94,289.26L82.86,288.54L84.78,286.56L88.55,286.19L90.41,282.69L92.33,276.51L94.25,282.31L96.04,283.87L97.96,282.35L99.82,284.53L101.74,284.61L103.59,284.53L105.51,283.29L107.43,280.72L109.29,281.84L111.2,281.51L113.06,278.43L114.98,272.7L116.9,275.65L118.63,278.97L120.55,277.96L122.4,280.01L124.32,279.92L128.1,278.7L130.02,276.55L131.87,277.43L133.79,276.24L135.65,272.67L137.57,262.54L139.48,271.72L141.22,273.87L143.14,272.41L144.99,273.89L148.77,273.27L150.69,272.34L152.6,269.27L154.46,270.73L156.38,269.59L158.24,266.59L160.15,264.96L162.07,260.29L163.8,266L165.72,265.21L167.58,267.24L169.5,266.95L173.27,265.19L175.19,263.03L177.05,264.29L178.97,263.1L180.82,260.78L182.74,251.1L186.45,260.62L188.37,260.02L190.23,261.06L192.15,261.04L197.84,258.5L199.7,259.16L201.62,258.69L203.47,254.63L205.39,245.31L207.31,253.28L209.04,255.34L210.96,254.58L212.82,255.63L214.73,255.5L218.51,254.36L220.43,250.94L222.28,252.43L224.2,251.56L229.9,243.14L231.63,247.86L233.55,247.11L235.4,248.42L241.1,246.77L243.02,244.36L244.87,244.61L246.79,243.87L248.65,241.08L250.57,227.65L252.48,238.15L254.22,240.83L256.13,240.11L257.99,241.11L259.91,241.25L261.77,240.45L263.68,239.79L265.6,238.28L267.46,238.9L269.38,238.1L271.23,234.52L273.15,226.13L275.07,233.82L276.87,235.7L278.78,235.08L280.64,236.27L286.33,235.04L288.25,231.89L290.11,233.8L292.03,232.9L293.88,230.73L295.8,223.94L297.72,225.71L299.45,229.99L301.37,229.86L303.23,230.95L307,230.97L308.92,230.49L310.84,229.05L312.7,229.87L314.61,229.1L316.47,227.2L318.39,213.59L320.31,224.04L322.04,227.42L323.96,227.17L327.73,228.64L329.59,228.29L333.43,226.97L335.28,227.98L337.2,227.32L339.06,225.76L340.98,223.45L342.89,216.04L344.63,224.35L346.55,225.32L348.4,226.77L350.32,227.18L354.1,226.78L356.01,225.11L357.87,226.06L359.79,225.7L361.65,223.31L363.56,216.3L365.48,218.53L367.28,222.17L369.2,222.36L371.05,223.67L376.74,223.12L378.66,221.84L380.52,222.51L382.44,221.97L384.29,219.36L386.21,207.25L388.13,216.87L389.86,219.14L399.33,219.93L401.25,218.29L403.11,219.42L405.03,219.12L406.88,217.64L408.8,214.84L410.72,210.4L412.45,216.18L418.14,218.41L420,218.45L421.92,218.27L423.84,217.2L425.69,218.03L427.61,217.7L429.47,215.82L431.39,206.74L435.04,214.63L436.96,215.3L440.73,216.26L442.59,216.19L446.43,215.19L448.28,215.69L450.2,215.29L452.06,213.12L453.98,203.48L455.89,206.32L457.69,209.4L459.61,210.36L461.46,211.48L463.38,211.64L467.16,211.27L469.07,209.81L470.93,210.64L472.85,210.29L474.71,208.62L476.62,205.5L478.54,204.21L480.28,207.28L485.97,208.6L487.83,208.37L489.74,208.17L491.66,207.09L493.52,207.56L495.44,206.76L497.29,204.82L499.21,196.84L501.13,201.34L502.86,202.45L518.02,200.04L519.88,197.56L521.8,192.95L523.72,196.17L525.45,197.13L527.37,196.98L529.23,197.54L531.14,197.22L533,196.87" style="vector-effect: none; fill: none; stroke: rgb(99, 110, 250); stroke-opacity: 1; stroke-width: 2px; opacity: 1;"/></g><g class="points"/><g class="text"/></g><g class="trace scatter trace0a6f51" style="stroke-miterlimit: 2;"><g class="fills"><g><path class="js-fill" d="M0,170.79L1.92,169.47L3.84,170.48L9.41,169.5L11.32,168.37L13.18,168.47L15.1,167.71L17.02,166.39L18.87,166.89L20.79,166.21L22.65,164.46L24.57,162.75L26.49,164.21L30.14,163.03L31.99,163.6L33.91,161.8L35.77,162.62L39.61,158.82L41.46,160.43L43.38,158.43L45.24,157.75L47.15,156.27L49.07,156.41L60.27,152.72L62.19,151.49L65.97,150.69L67.82,148.96L69.74,146.9L71.66,148.08L75.31,146.78L77.17,145.98L79.09,144.54L80.94,144.21L86.64,142L88.55,141.58L92.33,138.8L94.25,138.9L97.96,137.59L99.82,137.36L101.74,136.56L103.59,137.36L107.43,135.3L109.29,135.31L111.2,134.58L113.06,133.05L114.98,131.94L116.9,132.48L120.55,131.35L122.4,131L124.32,129.78L126.18,129.7L135.65,125.47L137.57,124.29L139.48,125.08L141.22,124.22L144.99,123.22L146.91,122.19L150.69,121.27L152.6,120.46L156.38,119.37L158.24,117.91L163.8,115.84L165.72,115.5L167.58,115.12L169.5,113.8L180.82,109.66L182.74,107.68L186.45,108.11L188.37,107.48L195.92,105.45L197.84,105.15L201.62,104.54L203.47,102.42L205.39,100.43L207.31,100.03L209.04,97.71L210.96,96.89L212.82,96.15L214.73,94.07L224.2,91.09L226.06,89.52L227.98,88.01L229.9,87.6L235.4,85.65L237.32,84.84L239.18,84.8L241.1,83.87L246.79,81.8L248.65,80.55L250.57,79.74L252.48,80.28L254.22,78.99L256.13,78.97L259.91,77.54L261.77,78.07L265.6,77.46L267.46,75.72L269.38,75.09L271.23,73.44L275.07,73.57L276.87,72.13L278.78,72.48L280.64,71.94L282.56,70.54L284.42,70.94L292.03,69.25L293.88,67.57L295.8,66.5L297.72,66.9L299.45,65.15L301.37,65.39L310.84,63.58L312.7,63.61L314.61,63.08L316.47,61.63L320.31,61.35L322.04,60.15L325.82,59.45L327.73,58.17L329.59,58.97L331.51,58.82L337.2,58.35L339.06,57.26L344.63,56.1L346.55,55.99L352.18,53.4L354.1,53.02L359.79,51.79L361.65,50.84L363.56,49.61L365.48,50.01L367.28,49.05L369.2,49.03L376.74,46.3L378.66,46.13L384.29,44.42L386.21,43.5L388.13,43.63L389.86,42.98L393.64,42.79L395.56,41.78L399.33,41.28L401.25,40.99L405.03,40.27L406.88,39.8L408.8,39.05L410.72,39.29L416.23,39.04L418.14,38.08L425.69,37.61L427.61,37.15L431.39,35.67L433.31,36.18L435.04,35.4L436.96,35.66L438.81,35.48L440.73,34.4L444.51,34.33L446.43,33.97L450.2,33.69L452.06,32.87L455.89,32.26L457.69,30.99L461.46,30.58L463.38,29.52L465.24,29.93L467.16,29.53L476.62,27.58L478.54,27.7L480.28,26.7L482.19,27.14L485.97,25.67L487.83,26.22L497.29,24.32L499.21,23.84L501.13,23.69L502.86,22.45L506.64,21.98L508.56,20.68L512.33,20.61L514.25,20.11L516.11,20.36L518.02,19.75L523.72,18.17L525.45,17.06L529.23,17.03L531.14,16L533,16.51L533,94.87L531.14,93.73L529.23,95.08L527.37,95.37L525.45,94.85L523.72,96.04L521.8,95.76L510.41,96.52L508.56,95.72L506.64,97.73L504.78,98.34L502.86,97.76L501.13,99.25L499.21,99.17L497.29,97.89L493.52,99.73L491.66,99.78L487.83,100.24L485.97,99.04L482.19,101.25L480.28,100.41L478.54,101.68L476.62,99.51L474.71,99.89L472.85,100.59L467.16,101.99L465.24,102.76L463.38,101.8L461.46,103.55L459.61,104.26L457.69,103.76L455.89,105.11L453.98,105.28L452.06,104.14L450.2,105.46L444.51,105.99L442.59,106.33L440.73,105.16L438.81,107.04L436.96,107.25L435.04,106.59L433.31,107.91L431.39,105.73L429.47,106.4L427.61,107.29L421.92,107.79L420,107.95L418.14,107.34L416.23,108.81L410.72,108.61L408.8,106.98L406.88,107.26L405.03,108.12L391.78,112.13L389.86,112.23L388.13,113.08L386.21,112.07L380.52,114.84L378.66,115.83L376.74,115.97L374.83,117.15L372.97,117.12L371.05,119.12L369.2,120.08L367.28,120.26L365.48,121.82L363.56,119.31L361.65,121.57L359.79,123.39L352.18,127.64L350.32,127.33L348.4,128.89L346.55,129.53L340.98,127.76L339.06,128.12L337.2,129.99L335.28,130.81L331.51,130.45L329.59,130.63L327.73,129.36L325.82,131L323.96,131.37L322.04,130.98L320.31,131.92L318.39,130.28L316.47,129.7L314.61,131.61L312.7,132.44L310.84,133.31L301.37,134.08L299.45,133.65L297.72,135.05L295.8,132.64L293.88,134.07L292.03,136.09L286.33,138.07L284.42,138.55L282.56,137.94L280.64,139.34L276.87,139.36L275.07,140.27L273.15,139.01L271.23,137.37L265.6,141.46L263.68,140.69L261.77,141.24L259.91,140.69L257.99,141.54L256.13,141.8L252.48,142.76L250.57,140.58L244.87,144.71L243.02,146.34L237.32,147.46L235.4,148.26L229.9,149.76L227.98,149.16L224.2,153.39L222.28,154.54L214.73,158.12L212.82,160.71L210.96,161.45L209.04,161.98L207.31,164.21L205.39,162.96L203.47,164.43L201.62,167.31L186.45,169.55L184.66,169.17L182.74,166.74L180.82,169.11L177.05,171.95L175.19,172.35L171.35,174.8L169.5,175.06L167.58,176.89L165.72,177.38L162.07,176.93L160.15,177.08L156.38,180.19L154.46,181.54L152.6,181.84L150.69,183.09L146.91,184.29L144.99,185.48L139.48,186.98L137.57,184.01L135.65,186.01L133.79,187.9L128.1,190.3L126.18,191.1L124.32,190.84L122.4,192.07L116.9,192.56L114.98,190.14L113.06,191.71L111.2,193.85L109.29,194.65L107.43,194.6L103.59,197.02L101.74,196.15L99.82,197.02L97.96,197.19L94.25,198.18L92.33,196.89L90.41,197.97L88.55,200.29L84.78,201.22L82.86,202.72L79.09,203.68L77.17,205.35L71.66,206.61L69.74,203.26L67.82,206.34L65.97,208.6L62.19,209.4L60.27,210.93L56.5,212.43L54.58,213.59L52.72,213.69L50.81,214.58L49.07,214.35L47.15,213.05L45.24,214.21L43.38,217.13L41.46,217.68L39.61,216.75L35.77,219.91L33.91,218.75L31.99,220.74L30.14,219.68L26.49,220.42L24.57,217.08L22.65,219.74L20.79,222.16L18.87,223.05L17.02,222.28L15.1,224.09L13.18,225.17L11.32,225.11L9.41,226.35L7.55,225.98L5.63,227.36L3.84,227.13L1.92,223.76L0,226.58Z" style="fill: rgb(0, 204, 150); fill-opacity: 0.5; stroke-width: 0;"/></g></g><g class="errorbars"/><g class="lines"><path class="js-line" d="M0,226.58L1.92,223.76L3.84,227.13L5.63,227.36L7.55,225.98L9.41,226.35L11.32,225.11L13.18,225.17L15.1,224.09L17.02,222.28L18.87,223.05L20.79,222.16L22.65,219.74L24.57,217.08L26.49,220.42L30.14,219.68L31.99,220.74L33.91,218.75L35.77,219.91L39.61,216.75L41.46,217.68L43.38,217.13L45.24,214.21L47.15,213.05L49.07,214.35L50.81,214.58L52.72,213.69L54.58,213.59L56.5,212.43L60.27,210.93L62.19,209.4L65.97,208.6L67.82,206.34L69.74,203.26L71.66,206.61L77.17,205.35L79.09,203.68L82.86,202.72L84.78,201.22L88.55,200.29L90.41,197.97L92.33,196.89L94.25,198.18L97.96,197.19L99.82,197.02L101.74,196.15L103.59,197.02L107.43,194.6L109.29,194.65L111.2,193.85L113.06,191.71L114.98,190.14L116.9,192.56L122.4,192.07L124.32,190.84L126.18,191.1L128.1,190.3L133.79,187.9L135.65,186.01L137.57,184.01L139.48,186.98L144.99,185.48L146.91,184.29L150.69,183.09L152.6,181.84L154.46,181.54L156.38,180.19L160.15,177.08L162.07,176.93L165.72,177.38L167.58,176.89L169.5,175.06L171.35,174.8L175.19,172.35L177.05,171.95L180.82,169.11L182.74,166.74L184.66,169.17L186.45,169.55L201.62,167.31L203.47,164.43L205.39,162.96L207.31,164.21L209.04,161.98L210.96,161.45L212.82,160.71L214.73,158.12L222.28,154.54L224.2,153.39L227.98,149.16L229.9,149.76L235.4,148.26L237.32,147.46L243.02,146.34L244.87,144.71L250.57,140.58L252.48,142.76L256.13,141.8L257.99,141.54L259.91,140.69L261.77,141.24L263.68,140.69L265.6,141.46L271.23,137.37L273.15,139.01L275.07,140.27L276.87,139.36L280.64,139.34L282.56,137.94L284.42,138.55L286.33,138.07L292.03,136.09L293.88,134.07L295.8,132.64L297.72,135.05L299.45,133.65L301.37,134.08L310.84,133.31L312.7,132.44L314.61,131.61L316.47,129.7L318.39,130.28L320.31,131.92L322.04,130.98L323.96,131.37L325.82,131L327.73,129.36L329.59,130.63L331.51,130.45L335.28,130.81L337.2,129.99L339.06,128.12L340.98,127.76L346.55,129.53L348.4,128.89L350.32,127.33L352.18,127.64L359.79,123.39L361.65,121.57L363.56,119.31L365.48,121.82L367.28,120.26L369.2,120.08L371.05,119.12L372.97,117.12L374.83,117.15L376.74,115.97L378.66,115.83L380.52,114.84L386.21,112.07L388.13,113.08L389.86,112.23L391.78,112.13L405.03,108.12L406.88,107.26L408.8,106.98L410.72,108.61L416.23,108.81L418.14,107.34L420,107.95L421.92,107.79L427.61,107.29L429.47,106.4L431.39,105.73L433.31,107.91L435.04,106.59L436.96,107.25L438.81,107.04L440.73,105.16L442.59,106.33L444.51,105.99L450.2,105.46L452.06,104.14L453.98,105.28L455.89,105.11L457.69,103.76L459.61,104.26L461.46,103.55L463.38,101.8L465.24,102.76L467.16,101.99L472.85,100.59L474.71,99.89L476.62,99.51L478.54,101.68L480.28,100.41L482.19,101.25L485.97,99.04L487.83,100.24L491.66,99.78L493.52,99.73L497.29,97.89L499.21,99.17L501.13,99.25L502.86,97.76L504.78,98.34L506.64,97.73L508.56,95.72L510.41,96.52L521.8,95.76L523.72,96.04L525.45,94.85L527.37,95.37L529.23,95.08L531.14,93.73L533,94.87" style="vector-effect: none; fill: none; stroke: rgb(239, 85, 59); stroke-opacity: 1; stroke-width: 2px; opacity: 1;"/></g><g class="points"/><g class="text"/></g><g class="trace scatter trace24d657" style="stroke-miterlimit: 2;"><g class="fills"/><g class="errorbars"/><g class="lines"><path class="js-line" d="M0,170.79L1.92,169.47L3.84,170.48L9.41,169.5L11.32,168.37L13.18,168.47L15.1,167.71L17.02,166.39L18.87,166.89L20.79,166.21L22.65,164.46L24.57,162.75L26.49,164.21L30.14,163.03L31.99,163.6L33.91,161.8L35.77,162.62L39.61,158.82L41.46,160.43L43.38,158.43L45.24,157.75L47.15,156.27L49.07,156.41L60.27,152.72L62.19,151.49L65.97,150.69L67.82,148.96L69.74,146.9L71.66,148.08L75.31,146.78L77.17,145.98L79.09,144.54L80.94,144.21L86.64,142L88.55,141.58L92.33,138.8L94.25,138.9L97.96,137.59L99.82,137.36L101.74,136.56L103.59,137.36L107.43,135.3L109.29,135.31L111.2,134.58L113.06,133.05L114.98,131.94L116.9,132.48L120.55,131.35L122.4,131L124.32,129.78L126.18,129.7L135.65,125.47L137.57,124.29L139.48,125.08L141.22,124.22L144.99,123.22L146.91,122.19L150.69,121.27L152.6,120.46L156.38,119.37L158.24,117.91L163.8,115.84L165.72,115.5L167.58,115.12L169.5,113.8L180.82,109.66L182.74,107.68L186.45,108.11L188.37,107.48L195.92,105.45L197.84,105.15L201.62,104.54L203.47,102.42L205.39,100.43L207.31,100.03L209.04,97.71L210.96,96.89L212.82,96.15L214.73,94.07L224.2,91.09L226.06,89.52L227.98,88.01L229.9,87.6L235.4,85.65L237.32,84.84L239.18,84.8L241.1,83.87L246.79,81.8L248.65,80.55L250.57,79.74L252.48,80.28L254.22,78.99L256.13,78.97L259.91,77.54L261.77,78.07L265.6,77.46L267.46,75.72L269.38,75.09L271.23,73.44L275.07,73.57L276.87,72.13L278.78,72.48L280.64,71.94L282.56,70.54L284.42,70.94L292.03,69.25L293.88,67.57L295.8,66.5L297.72,66.9L299.45,65.15L301.37,65.39L310.84,63.58L312.7,63.61L314.61,63.08L316.47,61.63L320.31,61.35L322.04,60.15L325.82,59.45L327.73,58.17L329.59,58.97L331.51,58.82L337.2,58.35L339.06,57.26L344.63,56.1L346.55,55.99L352.18,53.4L354.1,53.02L359.79,51.79L361.65,50.84L363.56,49.61L365.48,50.01L367.28,49.05L369.2,49.03L376.74,46.3L378.66,46.13L384.29,44.42L386.21,43.5L388.13,43.63L389.86,42.98L393.64,42.79L395.56,41.78L399.33,41.28L401.25,40.99L405.03,40.27L406.88,39.8L408.8,39.05L410.72,39.29L416.23,39.04L418.14,38.08L425.69,37.61L427.61,37.15L431.39,35.67L433.31,36.18L435.04,35.4L436.96,35.66L438.81,35.48L440.73,34.4L444.51,34.33L446.43,33.97L450.2,33.69L452.06,32.87L455.89,32.26L457.69,30.99L461.46,30.58L463.38,29.52L465.24,29.93L467.16,29.53L476.62,27.58L478.54,27.7L480.28,26.7L482.19,27.14L485.97,25.67L487.83,26.22L497.29,24.32L499.21,23.84L501.13,23.69L502.86,22.45L506.64,21.98L508.56,20.68L512.33,20.61L514.25,20.11L516.11,20.36L518.02,19.75L523.72,18.17L525.45,17.06L529.23,17.03L531.14,16L533,16.51" style="vector-effect: none; fill: none; stroke: rgb(0, 204, 150); stroke-opacity: 1; stroke-width: 2px; opacity: 1;"/></g><g class="points"/><g class="text"/></g></g></g><g class="overplot"/><path class="xlines-above crisp" d="M0,0" style="fill: none;"/><path class="ylines-above crisp" d="M0,0" style="fill: none;"/><g class="overlines-above"/><g class="xaxislayer-above"><g class="xtick"><text text-anchor="middle" x="0" y="433" transform="translate(81.92,0)" style="font-family: 'Open Sans', verdana, arial, sans-serif; font-size: 12px; fill: rgb(42, 63, 95); fill-opacity: 1; white-space: pre; opacity: 1;">2000</text></g><g class="xtick"><text text-anchor="middle" x="0" y="433" style="font-family: 'Open Sans', verdana, arial, sans-serif; font-size: 12px; fill: rgb(42, 63, 95); fill-opacity: 1; white-space: pre; opacity: 1;" transform="translate(194.98000000000002,0)">2005</text></g><g class="xtick"><text text-anchor="middle" x="0" y="433" style="font-family: 'Open Sans', verdana, arial, sans-serif; font-size: 12px; fill: rgb(42, 63, 95); fill-opacity: 1; white-space: pre; opacity: 1;" transform="translate(307.98,0)">2010</text></g><g class="xtick"><text text-anchor="middle" x="0" y="433" style="font-family: 'Open Sans', verdana, arial, sans-serif; font-size: 12px; fill: rgb(42, 63, 95); fill-opacity: 1; white-space: pre; opacity: 1;" transform="translate(420.98,0)">2015</text></g><g class="xtick"><text text-anchor="middle" x="0" y="433" style="font-family: 'Open Sans', verdana, arial, sans-serif; font-size: 12px; fill: rgb(42, 63, 95); fill-opacity: 1; white-space: pre; opacity: 1;" transform="translate(533.98,0)">2020</text></g></g><g class="yaxislayer-above"><g class="ytick"><text text-anchor="end" x="79" y="4.199999999999999" transform="translate(0,417.41)" style="font-family: 'Open Sans', verdana, arial, sans-serif; font-size: 12px; fill: rgb(42, 63, 95); fill-opacity: 1; white-space: pre; opacity: 1;">10k</text></g><g class="ytick"><text text-anchor="end" x="79" y="3.15" style="font-family: 'Open Sans', verdana, arial, sans-serif; font-size: 9px; fill: rgb(42, 63, 95); fill-opacity: 1; white-space: pre; opacity: 1;" transform="translate(0,382.04)">2</text></g><g class="ytick"><text text-anchor="end" x="79" y="3.15" style="font-family: 'Open Sans', verdana, arial, sans-serif; font-size: 9px; fill: rgb(42, 63, 95); fill-opacity: 1; white-space: pre; opacity: 1;" transform="translate(0,335.28)">5</text></g><g class="ytick"><text text-anchor="end" x="79" y="4.199999999999999" style="font-family: 'Open Sans', verdana, arial, sans-serif; font-size: 12px; fill: rgb(42, 63, 95); fill-opacity: 1; white-space: pre; opacity: 1;" transform="translate(0,299.90999999999997)">100k</text></g><g class="ytick"><text text-anchor="end" x="79" y="3.15" style="font-family: 'Open Sans', verdana, arial, sans-serif; font-size: 9px; fill: rgb(42, 63, 95); fill-opacity: 1; white-space: pre; opacity: 1;" transform="translate(0,264.53999999999996)">2</text></g><g class="ytick"><text text-anchor="end" x="79" y="3.15" style="font-family: 'Open Sans', verdana, arial, sans-serif; font-size: 9px; fill: rgb(42, 63, 95); fill-opacity: 1; white-space: pre; opacity: 1;" transform="translate(0,217.78)">5</text></g><g class="ytick"><text text-anchor="end" x="79" y="4.199999999999999" style="font-family: 'Open Sans', verdana, arial, sans-serif; font-size: 12px; fill: rgb(42, 63, 95); fill-opacity: 1; white-space: pre; opacity: 1;" transform="translate(0,182.41)">1M</text></g><g class="ytick"><text text-anchor="end" x="79" y="3.15" style="font-family: 'Open Sans', verdana, arial, sans-serif; font-size: 9px; fill: rgb(42, 63, 95); fill-opacity: 1; white-space: pre; opacity: 1;" transform="translate(0,147.03)">2</text></g><g class="ytick"><text text-anchor="end" x="79" y="3.15" style="font-family: 'Open Sans', verdana, arial, sans-serif; font-size: 9px; fill: rgb(42, 63, 95); fill-opacity: 1; white-space: pre; opacity: 1;" transform="translate(0,100.27)">5</text></g></g><g class="overaxes-above"/></g></g><g class="polarlayer"/><g class="smithlayer"/><g class="ternarylayer"/><g class="geolayer"/><g class="funnelarealayer"/><g class="pielayer"/><g class="iciclelayer"/><g class="treemaplayer"/><g class="sunburstlayer"/><g class="glimages"/><defs id="topdefs-bfa168"><g class="clips"/><clipPath id="legendbfa168"><rect width="64" height="86" x="0" y="0"/></clipPath></defs><g class="layer-above"><g class="imagelayer"/><g class="shapelayer"/></g><g class="infolayer"><g class="legend" pointer-events="all" transform="translate(623.66,100)"><rect class="bg" shape-rendering="crispEdges" style="stroke: rgb(68, 68, 68); stroke-opacity: 1; fill: rgb(255, 255, 255); fill-opacity: 1; stroke-width: 0px;" width="64" height="86" x="0" y="0"/><g class="scrollbox" transform="" clip-path="url(#legendbfa168)"><text class="legendtitletext" text-anchor="start" x="2" y="18.2" style="font-family: 'Open Sans', verdana, arial, sans-serif; font-size: 14px; fill: rgb(42, 63, 95); fill-opacity: 1; white-space: pre;">variable</text><g class="groups" transform=""><g class="traces" transform="translate(0,32.7)" style="opacity: 1;"><text class="legendtext" text-anchor="start" x="40" y="4.680000000000001" style="font-family: 'Open Sans', verdana, arial, sans-serif; font-size: 12px; fill: rgb(42, 63, 95); fill-opacity: 1; white-space: pre;">M0</text><g class="layers"><g class="legendfill"><path class="js-fill" d="M5,-2h30v6h-30z" style="stroke-width: 0; fill: rgb(99, 110, 250); fill-opacity: 0.5;"/></g><g class="legendlines"><path class="js-line" d="M5,-2h30" style="fill: none; stroke: rgb(99, 110, 250); stroke-opacity: 1; stroke-width: 2px;"/></g><g class="legendsymbols"><g class="legendpoints"/></g></g><rect class="legendtoggle" x="0" y="-9.5" width="58.125" height="19" style="fill: rgb(0, 0, 0); fill-opacity: 0;"/></g></g><g class="groups" transform=""><g class="traces" transform="translate(0,51.7)" style="opacity: 1;"><text class="legendtext" text-anchor="start" x="40" y="4.680000000000001" style="font-family: 'Open Sans', verdana, arial, sans-serif; font-size: 12px; fill: rgb(42, 63, 95); fill-opacity: 1; white-space: pre;">M1</text><g class="layers"><g class="legendfill"><path class="js-fill" d="M5,-2h30v6h-30z" style="stroke-width: 0; fill: rgb(239, 85, 59); fill-opacity: 0.5;"/></g><g class="legendlines"><path class="js-line" d="M5,-2h30" style="fill: none; stroke: rgb(239, 85, 59); stroke-opacity: 1; stroke-width: 2px;"/></g><g class="legendsymbols"><g class="legendpoints"/></g></g><rect class="legendtoggle" x="0" y="-9.5" width="58.125" height="19" style="fill: rgb(0, 0, 0); fill-opacity: 0;"/></g></g><g class="groups" transform=""><g class="traces" transform="translate(0,70.7)" style="opacity: 1;"><text class="legendtext" text-anchor="start" x="40" y="4.680000000000001" style="font-family: 'Open Sans', verdana, arial, sans-serif; font-size: 12px; fill: rgb(42, 63, 95); fill-opacity: 1; white-space: pre;">M2</text><g class="layers"><g class="legendfill"><path class="js-fill" d="M5,-2h30v6h-30z" style="stroke-width: 0; fill: rgb(0, 204, 150); fill-opacity: 0.5;"/></g><g class="legendlines"><path class="js-line" d="M5,-2h30" style="fill: none; stroke: rgb(0, 204, 150); stroke-opacity: 1; stroke-width: 2px;"/></g><g class="legendsymbols"><g class="legendpoints"/></g></g><rect class="legendtoggle" x="0" y="-9.5" width="58.125" height="19" style="fill: rgb(0, 0, 0); fill-opacity: 0;"/></g></g></g><rect class="scrollbar" rx="20" ry="3" width="0" height="0" style="fill: rgb(128, 139, 164); fill-opacity: 1;" x="0" y="0"/></g><g class="g-gtitle"><text class="gtitle" x="35" y="50" text-anchor="start" dy="0em" style="font-family: 'Open Sans', verdana, arial, sans-serif; font-size: 17px; fill: rgb(42, 63, 95); opacity: 1; font-weight: normal; white-space: pre;">中国M0、M1、M2货币供应量</text></g><g class="g-xtitle"><text class="xtitle" x="346.5" y="460.3" text-anchor="middle" style="font-family: 'Open Sans', verdana, arial, sans-serif; font-size: 14px; fill: rgb(42, 63, 95); opacity: 1; font-weight: normal; white-space: pre;">Time</text></g><g class="g-ytitle"><text class="ytitle" transform="rotate(-90,24.700000000000003,260)" x="24.700000000000003" y="260" text-anchor="middle" style="font-family: 'Open Sans', verdana, arial, sans-serif; font-size: 14px; fill: rgb(42, 63, 95); opacity: 1; font-weight: normal; white-space: pre;">亿元</text></g></g></svg>