<svg class="main-svg" xmlns="http://www.w3.org/2000/svg" xmlns:xlink="http://www.w3.org/1999/xlink" width="700" height="500" style="" viewBox="0 0 700 500"><rect x="0" y="0" width="700" height="500" style="fill: rgb(255, 255, 255); fill-opacity: 1;"/><defs id="defs-f2718d"><g class="clips"><clipPath id="clipf2718dxyplot" class="plotclip"><rect width="512" height="320"/></clipPath><clipPath class="axesclip" id="clipf2718dx"><rect x="80" y="0" width="512" height="500"/></clipPath><clipPath class="axesclip" id="clipf2718dy"><rect x="0" y="100" width="700" height="320"/></clipPath><clipPath class="axesclip" id="clipf2718dxy"><rect x="80" y="100" width="512" height="320"/></clipPath></g><g class="gradients"/><g class="patterns"/></defs><g class="bglayer"><rect class="bg" x="80" y="100" width="512" height="320" style="fill: rgb(229, 236, 246); fill-opacity: 1; stroke-width: 0;"/></g><g class="layer-below"><g class="imagelayer"/><g class="shapelayer"/></g><g class="cartesianlayer"><g class="subplot xy"><g class="layer-subplot"><g class="shapelayer"/><g class="imagelayer"/></g><g class="minor-gridlayer"><g class="x"/><g class="y"/></g><g class="gridlayer"><g class="x"><path class="xgrid crisp" transform="translate(140.23,0)" d="M0,100v320" style="stroke: rgb(255, 255, 255); stroke-opacity: 1; stroke-width: 1px;"/><path class="xgrid crisp" transform="translate(260.84000000000003,0)" d="M0,100v320" style="stroke: rgb(255, 255, 255); stroke-opacity: 1; stroke-width: 1px;"/><path class="xgrid crisp" transform="translate(381.29,0)" d="M0,100v320" style="stroke: rgb(255, 255, 255); stroke-opacity: 1; stroke-width: 1px;"/><path class="xgrid crisp" transform="translate(501.91,0)" d="M0,100v320" style="stroke: rgb(255, 255, 255); stroke-opacity: 1; stroke-width: 1px;"/></g><g class="y"><path class="ygrid crisp" transform="translate(0,400.95)" d="M80,0h512" style="stroke: rgb(255, 255, 255); stroke-opacity: 1; stroke-width: 1px;"/><path class="ygrid crisp" transform="translate(0,302.13)" d="M80,0h512" style="stroke: rgb(255, 255, 255); stroke-opacity: 1; stroke-width: 1px;"/><path class="ygrid crisp" transform="translate(0,252.72)" d="M80,0h512" style="stroke: rgb(255, 255, 255); stroke-opacity: 1; stroke-width: 1px;"/><path class="ygrid crisp" transform="translate(0,203.31)" d="M80,0h512" style="stroke: rgb(255, 255, 255); stroke-opacity: 1; stroke-width: 1px;"/><path class="ygrid crisp" transform="translate(0,153.9)" d="M80,0h512" style="stroke: rgb(255, 255, 255); stroke-opacity: 1; stroke-width: 1px;"/><path class="ygrid crisp" transform="translate(0,104.5)" d="M80,0h512" style="stroke: rgb(255, 255, 255); stroke-opacity: 1; stroke-width: 1px;"/></g></g><g class="zerolinelayer"><path class="yzl zl crisp" transform="translate(0,351.53999999999996)" d="M80,0h512" style="stroke: rgb(255, 255, 255); stroke-opacity: 1; stroke-width: 2px;"/></g><path class="xlines-below"/><path class="ylines-below"/><g class="overlines-below"/><g class="xaxislayer-below"/><g class="yaxislayer-below"/><g class="overaxes-below"/><g class="plot" transform="translate(80,100)" clip-path="url(#clipf2718dxyplot)"><g class="scatterlayer mlayer"><g class="trace scatter tracedc6678" style="stroke-miterlimit: 2;"><g class="fills"><g><path class="js-fill" d="M512,251.54L0,251.54L0,216.26L5.12,181.53L9.74,214.04L14.85,236.05L19.8,202.43L24.92,219.37L29.87,195.22L34.98,266.3L40.1,248.35L45.05,276.72L50.16,248.77L55.11,239.22L60.23,221.13L65.34,181.18L70.13,245.36L75.24,258.73L80.19,237.36L85.31,228.31L90.26,247.15L95.37,232.23L100.49,237.75L105.44,271.26L110.55,249.1L115.5,230.58L120.62,132.57L125.73,247.44L130.35,237.11L135.47,264.96L140.42,252.5L145.53,212.22L150.48,259.97L155.6,229.36L160.71,224.44L165.66,274.59L170.78,233.95L175.73,244.49L180.84,174.65L185.96,166.39L190.58,240.95L195.69,261.63L200.64,240.3L205.76,228.2L210.71,218.59L215.82,224.92L220.94,220.05L225.89,270.46L231,216.35L235.95,238.24L241.07,139.78L246.18,202.28L250.8,247.59L260.87,244.77L265.98,234.58L270.93,220.16L276.05,221.09L281.16,210.98L286.11,270.45L291.23,223.16L296.18,223.04L301.29,85.88L306.41,250.07L311.19,183L316.31,208.28L321.26,262.19L326.37,222.99L331.32,242.56L336.44,248.37L341.55,186.75L346.5,304L351.62,219.84L356.57,232.16L361.68,186.65L366.8,115.52L371.42,207.49L376.53,260.66L381.48,246.54L386.6,198.18L391.55,247.89L396.66,242.1L401.78,171.07L406.73,271.57L411.84,230.66L416.79,209.73L421.91,49.69L427.02,244.84L431.64,170.64L436.76,224.5L446.82,189.39L451.77,228.89L456.89,216.42L462,173.47L466.95,279.44L472.07,179.42L477.02,220.21L482.13,28.68L487.25,215.84L491.87,154.71L496.98,246.1L501.93,235.37L507.05,172.05L512,253.06" style="fill: rgb(99, 110, 250); fill-opacity: 0.5; stroke-width: 0;"/></g><g><path class="js-fill" d="M0,200.99L5.12,184.15L9.74,227.67L14.85,223.37L19.8,237.46L24.92,238.23L29.87,225.67L34.98,248.02L40.1,222.02L45.05,265.86L50.16,255.39L55.11,239.73L60.23,194.66L65.34,181.15L70.13,239.55L75.24,237L80.19,261.36L85.31,258.74L90.26,237.95L95.37,244.14L100.49,208.76L105.44,257.08L110.55,230.87L115.5,238.58L120.62,125.55L125.73,234.48L130.35,229.45L135.47,220.73L140.42,240.62L145.53,241.96L150.48,222.64L155.6,233.59L160.71,205.63L165.66,246L170.78,235.38L175.73,243.5L180.84,174.13L185.96,157.4L190.58,228.46L195.69,212.38L200.64,230.07L205.76,258.44L210.71,203.18L215.82,207.84L220.94,198.57L225.89,237.05L231,222.22L235.95,232.49L241.07,121.01L250.8,228.77L255.92,193.06L265.98,244.37L270.93,183.54L276.05,206.58L281.16,190.27L286.11,232.58L291.23,213.02L296.18,230.57L301.29,51.4L306.41,247.67L311.19,178.69L316.31,162.79L321.26,199.89L326.37,223.19L331.32,177.3L336.44,187.91L341.55,168.36L346.5,234.1L351.62,222.13L356.57,226.24L361.68,123.32L366.8,129.7L371.42,224.03L376.53,179.25L381.48,231.49L386.6,211.11L391.55,182.7L396.66,193.23L401.78,174.86L406.73,215.13L411.84,215.51L416.79,217.64L421.91,16L427.02,240.63L431.64,194.44L436.76,206.45L441.71,203.5L446.82,195.56L451.77,201.32L456.89,197.34L462,163.89L466.95,223.06L472.07,214.64L477.02,230.72L482.13,62.76L487.25,180.15L491.87,168.18L496.98,200.75L501.93,226.67L507.05,197.44L512,193.09L512,253.06L507.05,172.05L501.93,235.37L496.98,246.1L491.87,154.71L487.25,215.84L482.13,28.68L477.02,220.21L472.07,179.42L466.95,279.44L462,173.47L456.89,216.42L451.77,228.89L446.82,189.39L436.76,224.5L431.64,170.64L427.02,244.84L421.91,49.69L416.79,209.73L411.84,230.66L406.73,271.57L401.78,171.07L396.66,242.1L391.55,247.89L386.6,198.18L381.48,246.54L376.53,260.66L371.42,207.49L366.8,115.52L361.68,186.65L356.57,232.16L351.62,219.84L346.5,304L341.55,186.75L336.44,248.37L331.32,242.56L326.37,222.99L321.26,262.19L316.31,208.28L311.19,183L306.41,250.07L301.29,85.88L296.18,223.04L291.23,223.16L286.11,270.45L281.16,210.98L276.05,221.09L270.93,220.16L265.98,234.58L260.87,244.77L250.8,247.59L246.18,202.28L241.07,139.78L235.95,238.24L231,216.35L225.89,270.46L220.94,220.05L215.82,224.92L210.71,218.59L205.76,228.2L200.64,240.3L195.69,261.63L190.58,240.95L185.96,166.39L180.84,174.65L175.73,244.49L170.78,233.95L165.66,274.59L160.71,224.44L155.6,229.36L150.48,259.97L145.53,212.22L140.42,252.5L135.47,264.96L130.35,237.11L125.73,247.44L120.62,132.57L115.5,230.58L110.55,249.1L105.44,271.26L100.49,237.75L95.37,232.23L90.26,247.15L85.31,228.31L80.19,237.36L75.24,258.73L70.13,245.36L65.34,181.18L60.23,221.13L55.11,239.22L50.16,248.77L45.05,276.72L40.1,248.35L34.98,266.3L29.87,195.22L24.92,219.37L19.8,202.43L14.85,236.05L9.74,214.04L5.12,181.53L0,216.26Z" style="fill: rgb(239, 85, 59); fill-opacity: 0.5; stroke-width: 0;"/></g></g><g class="errorbars"/><g class="lines"><path class="js-line" d="M0,216.26L5.12,181.53L9.74,214.04L14.85,236.05L19.8,202.43L24.92,219.37L29.87,195.22L34.98,266.3L40.1,248.35L45.05,276.72L50.16,248.77L55.11,239.22L60.23,221.13L65.34,181.18L70.13,245.36L75.24,258.73L80.19,237.36L85.31,228.31L90.26,247.15L95.37,232.23L100.49,237.75L105.44,271.26L110.55,249.1L115.5,230.58L120.62,132.57L125.73,247.44L130.35,237.11L135.47,264.96L140.42,252.5L145.53,212.22L150.48,259.97L155.6,229.36L160.71,224.44L165.66,274.59L170.78,233.95L175.73,244.49L180.84,174.65L185.96,166.39L190.58,240.95L195.69,261.63L200.64,240.3L205.76,228.2L210.71,218.59L215.82,224.92L220.94,220.05L225.89,270.46L231,216.35L235.95,238.24L241.07,139.78L246.18,202.28L250.8,247.59L260.87,244.77L265.98,234.58L270.93,220.16L276.05,221.09L281.16,210.98L286.11,270.45L291.23,223.16L296.18,223.04L301.29,85.88L306.41,250.07L311.19,183L316.31,208.28L321.26,262.19L326.37,222.99L331.32,242.56L336.44,248.37L341.55,186.75L346.5,304L351.62,219.84L356.57,232.16L361.68,186.65L366.8,115.52L371.42,207.49L376.53,260.66L381.48,246.54L386.6,198.18L391.55,247.89L396.66,242.1L401.78,171.07L406.73,271.57L411.84,230.66L416.79,209.73L421.91,49.69L427.02,244.84L431.64,170.64L436.76,224.5L446.82,189.39L451.77,228.89L456.89,216.42L462,173.47L466.95,279.44L472.07,179.42L477.02,220.21L482.13,28.68L487.25,215.84L491.87,154.71L496.98,246.1L501.93,235.37L507.05,172.05L512,253.06" style="vector-effect: none; fill: none; stroke: rgb(99, 110, 250); stroke-opacity: 1; stroke-width: 2px; opacity: 1;"/></g><g class="points"/><g class="text"/></g><g class="trace scatter trace00b458" style="stroke-miterlimit: 2;"><g class="fills"/><g class="errorbars"/><g class="lines"><path class="js-line" d="M0,200.99L5.12,184.15L9.74,227.67L14.85,223.37L19.8,237.46L24.92,238.23L29.87,225.67L34.98,248.02L40.1,222.02L45.05,265.86L50.16,255.39L55.11,239.73L60.23,194.66L65.34,181.15L70.13,239.55L75.24,237L80.19,261.36L85.31,258.74L90.26,237.95L95.37,244.14L100.49,208.76L105.44,257.08L110.55,230.87L115.5,238.58L120.62,125.55L125.73,234.48L130.35,229.45L135.47,220.73L140.42,240.62L145.53,241.96L150.48,222.64L155.6,233.59L160.71,205.63L165.66,246L170.78,235.38L175.73,243.5L180.84,174.13L185.96,157.4L190.58,228.46L195.69,212.38L200.64,230.07L205.76,258.44L210.71,203.18L215.82,207.84L220.94,198.57L225.89,237.05L231,222.22L235.95,232.49L241.07,121.01L250.8,228.77L255.92,193.06L265.98,244.37L270.93,183.54L276.05,206.58L281.16,190.27L286.11,232.58L291.23,213.02L296.18,230.57L301.29,51.4L306.41,247.67L311.19,178.69L316.31,162.79L321.26,199.89L326.37,223.19L331.32,177.3L336.44,187.91L341.55,168.36L346.5,234.1L351.62,222.13L356.57,226.24L361.68,123.32L366.8,129.7L371.42,224.03L376.53,179.25L381.48,231.49L386.6,211.11L391.55,182.7L396.66,193.23L401.78,174.86L406.73,215.13L411.84,215.51L416.79,217.64L421.91,16L427.02,240.63L431.64,194.44L436.76,206.45L441.71,203.5L446.82,195.56L451.77,201.32L456.89,197.34L462,163.89L466.95,223.06L472.07,214.64L477.02,230.72L482.13,62.76L487.25,180.15L491.87,168.18L496.98,200.75L501.93,226.67L507.05,197.44L512,193.09" style="vector-effect: none; fill: none; stroke: rgb(239, 85, 59); stroke-opacity: 1; stroke-width: 2px; opacity: 1;"/></g><g class="points"/><g class="text"/></g></g></g><g class="overplot"/><path class="xlines-above crisp" d="M0,0" style="fill: none;"/><path class="ylines-above crisp" d="M0,0" style="fill: none;"/><g class="overlines-above"/><g class="xaxislayer-above"><g class="xtick"><text text-anchor="middle" x="0" y="433" transform="translate(140.23,0)" style="font-family: 'Open Sans', verdana, arial, sans-serif; font-size: 12px; fill: rgb(42, 63, 95); fill-opacity: 1; white-space: pre; opacity: 1;">2016</text></g><g class="xtick"><text text-anchor="middle" x="0" y="433" style="font-family: 'Open Sans', verdana, arial, sans-serif; font-size: 12px; fill: rgb(42, 63, 95); fill-opacity: 1; white-space: pre; opacity: 1;" transform="translate(260.84000000000003,0)">2018</text></g><g class="xtick"><text text-anchor="middle" x="0" y="433" style="font-family: 'Open Sans', verdana, arial, sans-serif; font-size: 12px; fill: rgb(42, 63, 95); fill-opacity: 1; white-space: pre; opacity: 1;" transform="translate(381.29,0)">2020</text></g><g class="xtick"><text text-anchor="middle" x="0" y="433" style="font-family: 'Open Sans', verdana, arial, sans-serif; font-size: 12px; fill: rgb(42, 63, 95); fill-opacity: 1; white-space: pre; opacity: 1;" transform="translate(501.91,0)">2022</text></g></g><g class="yaxislayer-above"><g class="ytick"><text text-anchor="end" x="79" y="4.199999999999999" transform="translate(0,400.95)" style="font-family: 'Open Sans', verdana, arial, sans-serif; font-size: 12px; fill: rgb(42, 63, 95); fill-opacity: 1; white-space: pre; opacity: 1;">−20k</text></g><g class="ytick"><text text-anchor="end" x="79" y="4.199999999999999" style="font-family: 'Open Sans', verdana, arial, sans-serif; font-size: 12px; fill: rgb(42, 63, 95); fill-opacity: 1; white-space: pre; opacity: 1;" transform="translate(0,351.53999999999996)">0</text></g><g class="ytick"><text text-anchor="end" x="79" y="4.199999999999999" style="font-family: 'Open Sans', verdana, arial, sans-serif; font-size: 12px; fill: rgb(42, 63, 95); fill-opacity: 1; white-space: pre; opacity: 1;" transform="translate(0,302.13)">20k</text></g><g class="ytick"><text text-anchor="end" x="79" y="4.199999999999999" style="font-family: 'Open Sans', verdana, arial, sans-serif; font-size: 12px; fill: rgb(42, 63, 95); fill-opacity: 1; white-space: pre; opacity: 1;" transform="translate(0,252.72)">40k</text></g><g class="ytick"><text text-anchor="end" x="79" y="4.199999999999999" style="font-family: 'Open Sans', verdana, arial, sans-serif; font-size: 12px; fill: rgb(42, 63, 95); fill-opacity: 1; white-space: pre; opacity: 1;" transform="translate(0,203.31)">60k</text></g><g class="ytick"><text text-anchor="end" x="79" y="4.199999999999999" style="font-family: 'Open Sans', verdana, arial, sans-serif; font-size: 12px; fill: rgb(42, 63, 95); fill-opacity: 1; white-space: pre; opacity: 1;" transform="translate(0,153.9)">80k</text></g><g class="ytick"><text text-anchor="end" x="79" y="4.199999999999999" style="font-family: 'Open Sans', verdana, arial, sans-serif; font-size: 12px; fill: rgb(42, 63, 95); fill-opacity: 1; white-space: pre; opacity: 1;" transform="translate(0,104.5)">100k</text></g></g><g class="overaxes-above"/></g></g><g class="polarlayer"/><g class="smithlayer"/><g class="ternarylayer"/><g class="geolayer"/><g class="funnelarealayer"/><g class="pielayer"/><g class="iciclelayer"/><g class="treemaplayer"/><g class="sunburstlayer"/><g class="glimages"/><defs id="topdefs-f2718d"><g class="clips"/><clipPath id="legendf2718d"><rect width="86" height="67" x="0" y="0"/></clipPath></defs><g class="layer-above"><g class="imagelayer"/><g class="shapelayer"/></g><g class="infolayer"><g class="legend" pointer-events="all" transform="translate(602.24,100)"><rect class="bg" shape-rendering="crispEdges" width="86" height="67" x="0" y="0" style="stroke: rgb(68, 68, 68); stroke-opacity: 1; fill: rgb(255, 255, 255); fill-opacity: 1; stroke-width: 0px;"/><g class="scrollbox" transform="" clip-path="url(#legendf2718d)"><text class="legendtitletext" text-anchor="start" x="2" y="18.2" style="font-family: 'Open Sans', verdana, arial, sans-serif; font-size: 14px; fill: rgb(42, 63, 95); fill-opacity: 1; white-space: pre;">variable</text><g class="groups" transform=""><g class="traces" transform="translate(0,32.7)" style="opacity: 1;"><text class="legendtext" text-anchor="start" x="40" y="4.680000000000001" style="font-family: 'Open Sans', verdana, arial, sans-serif; font-size: 12px; fill: rgb(42, 63, 95); fill-opacity: 1; white-space: pre;">M2-M1</text><g class="layers"><g class="legendfill"><path class="js-fill" d="M5,-2h30v6h-30z" style="stroke-width: 0; fill: rgb(99, 110, 250); fill-opacity: 0.5;"/></g><g class="legendlines"><path class="js-line" d="M5,-2h30" style="fill: none; stroke: rgb(99, 110, 250); stroke-opacity: 1; stroke-width: 2px;"/></g><g class="legendsymbols"><g class="legendpoints"/></g></g><rect class="legendtoggle" x="0" y="-9.5" width="80.9375" height="19" style="fill: rgb(0, 0, 0); fill-opacity: 0;"/></g></g><g class="groups" transform=""><g class="traces" transform="translate(0,51.7)" style="opacity: 1;"><text class="legendtext" text-anchor="start" x="40" y="4.680000000000001" style="font-family: 'Open Sans', verdana, arial, sans-serif; font-size: 12px; fill: rgb(42, 63, 95); fill-opacity: 1; white-space: pre;">AF-M2</text><g class="layers"><g class="legendfill"><path class="js-fill" d="M5,-2h30v6h-30z" style="stroke-width: 0; fill: rgb(239, 85, 59); fill-opacity: 0.5;"/></g><g class="legendlines"><path class="js-line" d="M5,-2h30" style="fill: none; stroke: rgb(239, 85, 59); stroke-opacity: 1; stroke-width: 2px;"/></g><g class="legendsymbols"><g class="legendpoints"/></g></g><rect class="legendtoggle" x="0" y="-9.5" width="80.9375" height="19" style="fill: rgb(0, 0, 0); fill-opacity: 0;"/></g></g></g><rect class="scrollbar" rx="20" ry="3" width="0" height="0" x="0" y="0" style="fill: rgb(128, 139, 164); fill-opacity: 1;"/></g><g class="g-gtitle"><text class="gtitle" x="35" y="50" text-anchor="start" dy="0em" style="font-family: 'Open Sans', verdana, arial, sans-serif; font-size: 17px; fill: rgb(42, 63, 95); opacity: 1; font-weight: normal; white-space: pre;">中国M2-M1和社融-M2的增量剪刀差</text></g><g class="g-xtitle"><text class="xtitle" x="336" y="460.3" text-anchor="middle" style="font-family: 'Open Sans', verdana, arial, sans-serif; font-size: 14px; fill: rgb(42, 63, 95); opacity: 1; font-weight: normal; white-space: pre;">Time</text></g><g class="g-ytitle"><text class="ytitle" transform="rotate(-90,22.512500000000003,260)" x="22.512500000000003" y="260" text-anchor="middle" style="font-family: 'Open Sans', verdana, arial, sans-serif; font-size: 14px; fill: rgb(42, 63, 95); opacity: 1; font-weight: normal; white-space: pre;">亿元</text></g></g></svg>