<svg class="main-svg" xmlns="http://www.w3.org/2000/svg" xmlns:xlink="http://www.w3.org/1999/xlink" width="700" height="500" style="" viewBox="0 0 700 500"><rect x="0" y="0" width="700" height="500" style="fill: rgb(255, 255, 255); fill-opacity: 1;"/><defs id="defs-46f86f"><g class="clips"><clipPath id="clip46f86fxyplot" class="plotclip"><rect width="540" height="320"/></clipPath><clipPath class="axesclip" id="clip46f86fx"><rect x="80" y="0" width="540" height="500"/></clipPath><clipPath class="axesclip" id="clip46f86fy"><rect x="0" y="100" width="700" height="320"/></clipPath><clipPath class="axesclip" id="clip46f86fxy"><rect x="80" y="100" width="540" height="320"/></clipPath></g><g class="gradients"/><g class="patterns"/></defs><g class="bglayer"><rect class="bg" x="80" y="100" width="540" height="320" style="fill: rgb(229, 236, 246); fill-opacity: 1; stroke-width: 0;"/></g><g class="layer-below"><g class="imagelayer"/><g class="shapelayer"/></g><g class="cartesianlayer"><g class="subplot xy"><g class="layer-subplot"><g class="shapelayer"/><g class="imagelayer"/></g><g class="minor-gridlayer"><g class="x"/><g class="y"/></g><g class="gridlayer"><g class="x"><path class="xgrid crisp" transform="translate(81.94,0)" d="M0,100v320" style="stroke: rgb(255, 255, 255); stroke-opacity: 1; stroke-width: 1px;"/><path class="xgrid crisp" transform="translate(196.49,0)" d="M0,100v320" style="stroke: rgb(255, 255, 255); stroke-opacity: 1; stroke-width: 1px;"/><path class="xgrid crisp" transform="translate(310.97,0)" d="M0,100v320" style="stroke: rgb(255, 255, 255); stroke-opacity: 1; stroke-width: 1px;"/><path class="xgrid crisp" transform="translate(425.45,0)" d="M0,100v320" style="stroke: rgb(255, 255, 255); stroke-opacity: 1; stroke-width: 1px;"/><path class="xgrid crisp" transform="translate(539.94,0)" d="M0,100v320" style="stroke: rgb(255, 255, 255); stroke-opacity: 1; stroke-width: 1px;"/></g><g class="y"><path class="ygrid crisp" transform="translate(0,413.39)" d="M80,0h540" style="stroke: rgb(255, 255, 255); stroke-opacity: 1; stroke-width: 1px;"/><path class="ygrid crisp" transform="translate(0,379.1)" d="M80,0h540" style="stroke: rgb(255, 255, 255); stroke-opacity: 1; stroke-width: 1px;"/><path class="ygrid crisp" transform="translate(0,346.57)" d="M80,0h540" style="stroke: rgb(255, 255, 255); stroke-opacity: 1; stroke-width: 1px;"/><path class="ygrid crisp" transform="translate(0,315.63)" d="M80,0h540" style="stroke: rgb(255, 255, 255); stroke-opacity: 1; stroke-width: 1px;"/><path class="ygrid crisp" transform="translate(0,286.13)" d="M80,0h540" style="stroke: rgb(255, 255, 255); stroke-opacity: 1; stroke-width: 1px;"/><path class="ygrid crisp" transform="translate(0,257.94)" d="M80,0h540" style="stroke: rgb(255, 255, 255); stroke-opacity: 1; stroke-width: 1px;"/><path class="ygrid crisp" transform="translate(0,230.96)" d="M80,0h540" style="stroke: rgb(255, 255, 255); stroke-opacity: 1; stroke-width: 1px;"/><path class="ygrid crisp" transform="translate(0,205.07)" d="M80,0h540" style="stroke: rgb(255, 255, 255); stroke-opacity: 1; stroke-width: 1px;"/><path class="ygrid crisp" transform="translate(0,180.2)" d="M80,0h540" style="stroke: rgb(255, 255, 255); stroke-opacity: 1; stroke-width: 1px;"/><path class="ygrid crisp" transform="translate(0,156.26)" d="M80,0h540" style="stroke: rgb(255, 255, 255); stroke-opacity: 1; stroke-width: 1px;"/><path class="ygrid crisp" transform="translate(0,133.2)" d="M80,0h540" style="stroke: rgb(255, 255, 255); stroke-opacity: 1; stroke-width: 1px;"/><path class="ygrid crisp" transform="translate(0,110.95)" d="M80,0h540" style="stroke: rgb(255, 255, 255); stroke-opacity: 1; stroke-width: 1px;"/></g></g><g class="zerolinelayer"/><path class="xlines-below"/><path class="ylines-below"/><g class="overlines-below"/><g class="xaxislayer-below"/><g class="yaxislayer-below"/><g class="overaxes-below"/><g class="plot" transform="translate(80,100)" clip-path="url(#clip46f86fxyplot)"><g class="scatterlayer mlayer"><g class="trace scatter trace747a0e" style="stroke-miterlimit: 2; opacity: 1;"><g class="fills"/><g class="errorbars"/><g class="lines"><path class="js-line" d="M0,284.12L1.94,287.58L3.89,257.72L5.71,258.97L7.65,267.35L9.53,269.84L11.47,277.44L13.35,275.94L15.3,282.98L17.24,292.26L19.12,288.17L21.07,291.72L22.95,304L24.89,303.69L26.83,279.4L28.59,280.14L30.53,277.16L32.41,272.5L34.36,282.93L36.24,270.84L38.18,281.51L40.13,257.61L42.01,274.26L43.95,245.39L45.83,287.5L47.77,273.95L49.72,248.13L51.47,244.12L53.42,252.52L55.3,255.14L57.24,260.84L59.12,259.54L61.07,264.36L63.01,269.47L64.89,271.38L66.83,270.83L68.71,279.23L70.66,273.11L72.6,250.53L74.36,251.05L76.3,244.6L78.18,246.64L80.13,256.91L82.01,254.72L83.95,248.72L87.77,263.54L89.72,262.31L91.6,273.87L93.54,254.2L95.49,246.8L97.3,251L99.25,244.04L101.13,249.41L103.07,253.19L104.95,249.41L106.9,253.29L108.84,251.99L112.66,256.84L114.55,265.78L116.49,261.78L118.43,229.31L120.19,229.67L122.13,223.15L125.96,228.73L127.84,220.33L129.78,221.43L131.72,217.91L137.43,231.41L139.37,221.43L141.32,203.13L143.07,204.98L145.02,196.98L146.9,206.86L148.84,212.41L150.72,211.74L154.61,219.18L156.49,225.59L160.31,241.07L162.26,242.53L164.2,219.24L165.96,217.85L167.9,211.58L169.78,219.82L171.72,232.21L173.61,224.18L175.55,240.11L177.49,237.71L181.32,250.66L183.2,264.17L185.14,251.34L187.08,227.27L188.9,227.15L190.85,221.51L196.55,210.97L198.5,214.95L200.44,205.2L202.32,210.4L204.26,205.58L206.14,215.41L208.09,186.36L210.03,177.52L211.79,185.84L213.73,180.69L215.61,184.63L217.55,197.58L219.44,201.59L221.38,211.4L223.32,206.35L225.2,222.27L227.15,228.45L229.03,237.98L230.97,245.03L232.92,220.25L234.67,220.83L236.61,226.55L242.32,227.89L244.26,225.06L246.21,215.88L248.09,236.42L251.91,245.61L253.86,227.27L255.8,219.39L257.55,217.81L261.38,220.48L263.32,218.78L265.2,215.79L267.15,215.95L269.09,197.32L270.97,195.99L272.92,200.04L274.8,199.09L276.74,155.91L278.68,149.37L282.45,144.81L284.33,145.67L286.27,147.84L288.15,142.91L290.09,144.52L292.04,135.7L293.92,152.01L295.86,153.73L297.74,158.33L299.69,152.82L301.63,122.74L303.39,129.1L305.33,125.26L307.21,124.74L309.15,124.16L311.03,120.39L312.98,121.75L314.92,111.07L316.8,126.29L318.75,130.56L320.63,137.31L322.57,94.02L324.51,93.1L326.27,97.64L328.21,89.28L330.09,88.7L332.04,97.64L333.92,88.99L335.86,88.65L337.81,79.63L341.63,88.67L343.51,99.47L345.45,93.74L347.4,68.44L351.1,62.42L352.98,62.03L354.92,70.37L356.8,59.36L358.75,70.93L360.69,72.05L364.51,97.29L366.39,107.69L368.34,113.68L370.28,85.53L372.1,101.68L374.04,104.39L375.92,111.68L377.87,124.73L379.75,123.52L381.69,130.31L383.64,128.2L385.52,139.93L389.34,153.17L391.29,125.83L393.23,128.38L394.98,135.83L396.93,138.7L398.81,143.52L400.75,148.48L402.63,149.8L404.58,152.39L406.52,148.6L408.4,157.51L410.34,161.97L412.23,166.8L414.17,156.3L416.11,127.15L417.87,130.46L419.81,133.04L421.69,132.24L423.64,141.62L425.52,132.58L427.46,130.55L429.4,126.98L431.29,130.29L433.23,128.42L435.11,132.38L437.05,115.52L439,97.63L440.75,110.92L442.7,105.68L444.58,107.44L446.52,120.89L448.4,107.95L450.34,107.14L452.29,103.08L454.17,105.72L456.11,105.54L457.99,111.19L459.94,75.04L461.88,79.52L463.7,87.01L465.64,79.85L467.52,87.64L469.47,98.96L471.35,90.23L473.29,96L475.24,90.54L477.12,99.52L479.06,102.08L480.94,104.3L482.88,98.27L484.83,67.43L486.58,76.81L488.53,71.42L490.41,77.58L492.35,84.68L494.23,74.71L496.18,77.48L498.12,69.59L500,72.06L501.94,76.69L503.82,78.71L505.77,44.03L507.71,47.84L509.47,54.49L511.41,47.63L513.29,49.08L515.24,59.88L517.12,51.68L519.06,50.57L521,44.92L522.88,45.67L524.83,43.09L526.71,43.28L528.65,19.73L530.6,18.8L532.35,22.72L534.29,18.22L536.18,19.94L538.12,24.94L540,16" style="vector-effect: none; fill: none; stroke: rgb(99, 110, 250); stroke-opacity: 1; stroke-width: 2px; opacity: 1;"/></g><g class="points"/><g class="text"/></g></g></g><g class="overplot"/><path class="xlines-above crisp" d="M0,0" style="fill: none;"/><path class="ylines-above crisp" d="M0,0" style="fill: none;"/><g class="overlines-above"/><g class="xaxislayer-above"><g class="xtick"><text text-anchor="middle" x="0" y="433" transform="translate(81.94,0)" style="font-family: 'Open Sans', verdana, arial, sans-serif; font-size: 12px; fill: rgb(42, 63, 95); fill-opacity: 1; white-space: pre; opacity: 1;">2000</text></g><g class="xtick"><text text-anchor="middle" x="0" y="433" style="font-family: 'Open Sans', verdana, arial, sans-serif; font-size: 12px; fill: rgb(42, 63, 95); fill-opacity: 1; white-space: pre; opacity: 1;" transform="translate(196.49,0)">2005</text></g><g class="xtick"><text text-anchor="middle" x="0" y="433" style="font-family: 'Open Sans', verdana, arial, sans-serif; font-size: 12px; fill: rgb(42, 63, 95); fill-opacity: 1; white-space: pre; opacity: 1;" transform="translate(310.97,0)">2010</text></g><g class="xtick"><text text-anchor="middle" x="0" y="433" style="font-family: 'Open Sans', verdana, arial, sans-serif; font-size: 12px; fill: rgb(42, 63, 95); fill-opacity: 1; white-space: pre; opacity: 1;" transform="translate(425.45,0)">2015</text></g><g class="xtick"><text text-anchor="middle" x="0" y="433" style="font-family: 'Open Sans', verdana, arial, sans-serif; font-size: 12px; fill: rgb(42, 63, 95); fill-opacity: 1; white-space: pre; opacity: 1;" transform="translate(539.94,0)">2020</text></g></g><g class="yaxislayer-above"><g class="ytick"><text text-anchor="end" x="79" y="4.199999999999999" transform="translate(0,413.39)" style="font-family: 'Open Sans', verdana, arial, sans-serif; font-size: 12px; fill: rgb(42, 63, 95); fill-opacity: 1; white-space: pre; opacity: 1;">0.9</text></g><g class="ytick"><text text-anchor="end" x="79" y="4.199999999999999" style="font-family: 'Open Sans', verdana, arial, sans-serif; font-size: 12px; fill: rgb(42, 63, 95); fill-opacity: 1; white-space: pre; opacity: 1;" transform="translate(0,379.1)">0.95</text></g><g class="ytick"><text text-anchor="end" x="79" y="4.199999999999999" style="font-family: 'Open Sans', verdana, arial, sans-serif; font-size: 12px; fill: rgb(42, 63, 95); fill-opacity: 1; white-space: pre; opacity: 1;" transform="translate(0,346.57)">1</text></g><g class="ytick"><text text-anchor="end" x="79" y="4.199999999999999" style="font-family: 'Open Sans', verdana, arial, sans-serif; font-size: 12px; fill: rgb(42, 63, 95); fill-opacity: 1; white-space: pre; opacity: 1;" transform="translate(0,315.63)">1.05</text></g><g class="ytick"><text text-anchor="end" x="79" y="4.199999999999999" style="font-family: 'Open Sans', verdana, arial, sans-serif; font-size: 12px; fill: rgb(42, 63, 95); fill-opacity: 1; white-space: pre; opacity: 1;" transform="translate(0,286.13)">1.1</text></g><g class="ytick"><text text-anchor="end" x="79" y="4.199999999999999" style="font-family: 'Open Sans', verdana, arial, sans-serif; font-size: 12px; fill: rgb(42, 63, 95); fill-opacity: 1; white-space: pre; opacity: 1;" transform="translate(0,257.94)">1.15</text></g><g class="ytick"><text text-anchor="end" x="79" y="4.199999999999999" style="font-family: 'Open Sans', verdana, arial, sans-serif; font-size: 12px; fill: rgb(42, 63, 95); fill-opacity: 1; white-space: pre; opacity: 1;" transform="translate(0,230.96)">1.2</text></g><g class="ytick"><text text-anchor="end" x="79" y="4.199999999999999" style="font-family: 'Open Sans', verdana, arial, sans-serif; font-size: 12px; fill: rgb(42, 63, 95); fill-opacity: 1; white-space: pre; opacity: 1;" transform="translate(0,205.07)">1.25</text></g><g class="ytick"><text text-anchor="end" x="79" y="4.199999999999999" style="font-family: 'Open Sans', verdana, arial, sans-serif; font-size: 12px; fill: rgb(42, 63, 95); fill-opacity: 1; white-space: pre; opacity: 1;" transform="translate(0,180.2)">1.3</text></g><g class="ytick"><text text-anchor="end" x="79" y="4.199999999999999" style="font-family: 'Open Sans', verdana, arial, sans-serif; font-size: 12px; fill: rgb(42, 63, 95); fill-opacity: 1; white-space: pre; opacity: 1;" transform="translate(0,156.26)">1.35</text></g><g class="ytick"><text text-anchor="end" x="79" y="4.199999999999999" style="font-family: 'Open Sans', verdana, arial, sans-serif; font-size: 12px; fill: rgb(42, 63, 95); fill-opacity: 1; white-space: pre; opacity: 1;" transform="translate(0,133.2)">1.4</text></g><g class="ytick"><text text-anchor="end" x="79" y="4.199999999999999" style="font-family: 'Open Sans', verdana, arial, sans-serif; font-size: 12px; fill: rgb(42, 63, 95); fill-opacity: 1; white-space: pre; opacity: 1;" transform="translate(0,110.95)">1.45</text></g></g><g class="overaxes-above"/></g></g><g class="polarlayer"/><g class="smithlayer"/><g class="ternarylayer"/><g class="geolayer"/><g class="funnelarealayer"/><g class="pielayer"/><g class="iciclelayer"/><g class="treemaplayer"/><g class="sunburstlayer"/><g class="glimages"/><defs id="topdefs-46f86f"><g class="clips"/></defs><g class="layer-above"><g class="imagelayer"/><g class="shapelayer"/></g><g class="infolayer"><g class="g-gtitle"><text class="gtitle" x="35" y="50" text-anchor="start" dy="0em" style="font-family: 'Open Sans', verdana, arial, sans-serif; font-size: 17px; fill: rgb(42, 63, 95); opacity: 1; font-weight: normal; white-space: pre;">中国ln(m2)-ln(m1)</text></g><g class="g-xtitle"><text class="xtitle" x="350" y="460.3" text-anchor="middle" style="font-family: 'Open Sans', verdana, arial, sans-serif; font-size: 14px; fill: rgb(42, 63, 95); opacity: 1; font-weight: normal; white-space: pre;">Date</text></g><g class="g-ytitle"><text class="ytitle" transform="rotate(-90,27.434375000000003,260)" x="27.434375000000003" y="260" text-anchor="middle" style="font-family: 'Open Sans', verdana, arial, sans-serif; font-size: 14px; fill: rgb(42, 63, 95); opacity: 1; font-weight: normal; white-space: pre;">M2-M1</text></g></g></svg>