<?xml version="1.0" encoding="utf-8"?>
<!-- Generator: Adobe Illustrator 22.1.0, SVG Export Plug-In . SVG Version: 6.00 Build 0)  -->
<svg version="1.1" id="Layer_1" xmlns="http://www.w3.org/2000/svg" xmlns:xlink="http://www.w3.org/1999/xlink" x="0px" y="0px"
	 viewBox="0 0 3840 2160" style="enable-background:new 0 0 3840 2160;" xml:space="preserve">
<style type="text/css">
	.st0{fill:#FFFFFF;}
	.st1{fill:#149ADD;}
	.st2{fill:none;}
	.st3{fill:#3232CC;}
	.st4{fill:#E58800;}
</style>
<g>
	<g>
		<g>
			<g>
				<g>
					<g>
						<polygon class="st0" points="2309.8,611.6 2148.8,432.4 2148.8,387.1 2309.8,207.9 2630.9,207.9 2791.9,387.1 2791.9,432.4 
							2630.9,611.6 						"/>
					</g>
				</g>
				<g>
					<g>
						<path class="st1" d="M2629.2,211.9l158.8,176.7v42.2l-158.8,176.8h-317.6l0,0l-158.8-176.8v-42.2l158.8-176.7H2629.2
							 M2632.8,203.9h-3.6h-317.6h-3.6l-2.4,2.6l-158.8,176.8l-2.1,2.3v3v42.2v3.1l2.1,2.3L2305.7,613l2.4,2.6h3.6h317.6h3.6
							l2.4-2.6l158.8-176.8l2.1-2.3v-3.1v-42.2v-3l-2.1-2.3l-158.8-176.8L2632.8,203.9L2632.8,203.9z"/>
					</g>
				</g>
			</g>
			<g>
				<path class="st1" d="M2629.2,211.9l158.8,176.7v42.2l-158.8,176.8h-317.6l-158.8-176.8v-42.2l158.8-176.7H2629.2 M2630.9,207.9
					h-1.8h-317.6h-1.8l-1.2,1.4L2149.8,386l-1,1.1v1.6V431v1.6l1,1.1l158.8,176.7l1.2,1.4h1.8h317.6h1.8l1.2-1.4l158.8-176.7l1-1.1
					V431v-42.2v-1.6l-1-1.1l-158.8-176.8L2630.9,207.9L2630.9,207.9z"/>
			</g>
			<g>
				<line class="st2" x1="2470.5" y1="409.8" x2="2470.5" y2="409.8"/>
				<path class="st1" d="M2470.5,409.8"/>
			</g>
			<g>
				<g>
					<line class="st2" x1="2470.5" y1="409.8" x2="2470.5" y2="409.8"/>
					<path class="st1" d="M2470.5,409.8"/>
				</g>
			</g>
			<g>
				<g>
					<path class="st0" d="M2310.8,567.5l-160.6-178.8l160.6-178.8h319.4l160.6,178.8l-160.6,178.8H2310.8z M2616.2,536.4
						l132.5-147.5l-132.5-147.6h-291.5l-132.5,147.6l132.5,147.5H2616.2L2616.2,536.4z"/>
				</g>
				<g>
					<path class="st1" d="M2629.3,211.9l158.8,176.8l-158.8,176.8h-317.6l-158.8-176.8l158.8-176.8L2629.3,211.9 M2323.8,538.4
						h293.3l134.3-149.5l-134.3-149.6h-293.3l-134.3,149.6L2323.8,538.4 M2631.1,207.9h-1.8h-317.6h-1.8l-1.2,1.4L2149.9,386
						l-2.4,2.6l2.4,2.7l158.8,176.8l1.2,1.3h1.8h317.6h1.8l1.2-1.3l158.8-176.8l2.4-2.7l-2.4-2.6l-158.8-176.8L2631.1,207.9
						L2631.1,207.9z M2325.6,243.3h289.7l130.8,145.6l-130.8,145.5h-289.7l-130.8-145.5L2325.6,243.3L2325.6,243.3z"/>
				</g>
			</g>
			<g>
				<g>
					<rect x="2309.1" y="566.8" class="st1" width="4" height="42.2"/>
				</g>
				<g>
					<rect x="2627.6" y="566.8" class="st1" width="4" height="42.2"/>
				</g>
			</g>
		</g>
	</g>
	<g>
		<g>
			<rect x="2432.1" y="579.3" class="st0" width="77" height="265"/>
		</g>
		<g>
			<path class="st1" d="M2505.1,583.3v257h-69v-257H2505.1 M2513.1,575.3h-8h-69h-8v8v257v8h8h69h8v-8v-257V575.3L2513.1,575.3z"/>
		</g>
	</g>
	<g>
		<g>
			<g>
				<g>
					<g>
						<polygon class="st0" points="1223.8,611.6 1062.8,432.4 1062.8,387.1 1223.8,207.9 1544.9,207.9 1705.9,387.1 1705.9,432.4 
							1544.9,611.6 						"/>
					</g>
				</g>
				<g>
					<g>
						<path class="st1" d="M1543.2,211.9l158.8,176.7v42.2l-158.8,176.8h-317.6l-158.8-176.8v-42.2l158.8-176.7L1543.2,211.9
							 M1546.8,203.9h-3.6h-317.6h-3.5l-2.4,2.6l-158.8,176.8l-2.1,2.3v3.1v42.2v3.1l2.1,2.3L1219.6,613l2.4,2.7h3.6h317.5h3.6
							l2.4-2.7l158.8-176.8l2-2.3v-3.1v-42.2v-3.1l-2-2.3l-158.8-176.8L1546.8,203.9L1546.8,203.9z"/>
					</g>
				</g>
			</g>
			<g>
				<path class="st1" d="M1543.2,211.9l158.8,176.7v42.2l-158.8,176.8h-317.6l-158.8-176.8v-42.2l158.8-176.7L1543.2,211.9
					 M1544.9,207.9h-1.8h-317.5h-1.8l-1.2,1.4L1063.9,386l-1,1.1v1.5v42.2v1.6l1,1.1l158.7,176.8l1.2,1.3h1.8h317.6h1.8l1.2-1.3
					l158.8-176.8l1-1.1v-1.6v-42.2v-1.5l-1-1.1l-158.8-176.7L1544.9,207.9L1544.9,207.9z"/>
			</g>
			<g>
				<line class="st2" x1="1384.5" y1="409.8" x2="1384.5" y2="409.8"/>
				<path class="st1" d="M1384.5,409.8"/>
			</g>
			<g>
				<g>
					<line class="st2" x1="1384.5" y1="409.8" x2="1384.5" y2="409.8"/>
					<path class="st1" d="M1384.5,409.8"/>
				</g>
			</g>
			<g>
				<g>
					<path class="st0" d="M1224.8,567.5l-160.6-178.8l160.6-178.8h319.4l160.6,178.8l-160.6,178.8H1224.8z M1530.2,536.4
						l132.5-147.5l-132.5-147.6h-291.5l-132.5,147.6l132.5,147.5H1530.2L1530.2,536.4z"/>
				</g>
				<g>
					<path class="st1" d="M1543.3,211.9l158.8,176.8l-158.8,176.8h-317.6l-158.8-176.8l158.8-176.8L1543.3,211.9 M1237.8,538.4
						h293.3l134.3-149.5l-134.3-149.6h-293.3l-134.3,149.6L1237.8,538.4 M1545.1,207.9h-1.8h-317.6h-1.8l-1.2,1.4L1063.9,386
						l-2.4,2.6l2.4,2.7l158.8,176.8l1.2,1.4h1.8h317.6h1.8l1.2-1.4l158.8-176.8l2.4-2.6l-2.4-2.6l-158.8-176.8L1545.1,207.9
						L1545.1,207.9z M1239.6,243.3h289.7l130.8,145.6l-130.8,145.5h-289.7l-130.8-145.5L1239.6,243.3L1239.6,243.3z"/>
				</g>
			</g>
			<g>
				<g>
					<rect x="1223.1" y="566.8" class="st1" width="4" height="42.2"/>
				</g>
				<g>
					<rect x="1541.7" y="566.8" class="st1" width="4" height="42.2"/>
				</g>
			</g>
		</g>
	</g>
	<g>
		<g>
			<rect x="1339.1" y="579.3" class="st0" width="77" height="265"/>
		</g>
		<g>
			<path class="st1" d="M1412.1,583.3v257h-69v-257H1412.1 M1420.1,575.3h-8h-69h-8v8v257v8h8h69h8v-8v-257V575.3L1420.1,575.3z"/>
		</g>
	</g>
	<g>
		<g>
			<g>
				<g>
					<g>
						<g>
							<polygon class="st0" points="287,965.8 126,786.5 126,741.2 287,562 608.2,562 769.2,741.2 769.2,786.5 608.2,965.8 							
								"/>
						</g>
					</g>
					<g>
						<g>
							<path class="st1" d="M606.4,566l158.8,176.8V785L606.4,961.8H288.8L130,785v-42.2L288.8,566L606.4,566 M610,558h-3.6H288.8
								h-3.5l-2.4,2.6L124.1,737.4l-2,2.3v3V785v3l2,2.3l158.8,176.8l2.4,2.6h3.5h317.6h3.5l2.4-2.6l158.8-176.8l2-2.3v-3v-42.2
								v-3.1l-2-2.3L612.4,560.6L610,558L610,558z"/>
						</g>
					</g>
				</g>
				<g>
					<path class="st1" d="M606.4,566l158.8,176.8V785L606.4,961.8H288.8L130,785v-42.2L288.8,566L606.4,566 M608.2,562h-1.8H288.8
						H287l-1.2,1.3L127,740.1l-1,1.2v1.5V785v1.5l1,1.1l158.8,176.8l1.2,1.3h1.8h317.6h1.8l1.2-1.3l158.8-176.8l1-1.1V785v-42.2
						v-1.6l-1-1.1L609.4,563.3L608.2,562L608.2,562z"/>
				</g>
				<g>
					<line class="st2" x1="447.6" y1="763.9" x2="447.6" y2="763.9"/>
					<path class="st1" d="M447.6,763.9"/>
				</g>
				<g>
					<g>
						<line class="st2" x1="447.6" y1="763.9" x2="447.6" y2="763.9"/>
						<path class="st1" d="M447.6,763.9"/>
					</g>
				</g>
				<g>
					<g>
						<path class="st0" d="M287.9,921.6L127.3,742.8L287.9,564h319.4l160.6,178.8L607.3,921.6H287.9z M593.4,890.3l132.5-147.5
							L593.4,595.2H301.9L169.4,742.8l132.5,147.5H593.4z"/>
					</g>
					<g>
						<path class="st1" d="M606.4,566l158.8,176.8L606.4,919.6H288.8L130,742.8L288.8,566L606.4,566 M301,892.3h293.3l134.3-149.5
							L594.3,593.2H301L166.7,742.8L301,892.3 M608.2,562h-1.8H288.8H287l-1.2,1.3L127,740.1l-2.4,2.7l2.4,2.6l158.8,176.8l1.2,1.3
							h1.8h317.6h1.8l1.2-1.3l158.8-176.8l2.4-2.7l-2.4-2.7L609.4,563.3L608.2,562L608.2,562z M302.8,597.2h289.7l130.8,145.5
							L592.5,888.3H302.7L172,742.8L302.8,597.2L302.8,597.2z"/>
					</g>
				</g>
				<g>
					<g>
						<rect x="286.4" y="920.9" class="st1" width="4" height="42.2"/>
					</g>
					<g>
						<rect x="604.9" y="920.9" class="st1" width="4" height="42.2"/>
					</g>
				</g>
			</g>
		</g>
	</g>
	<g>
		<g>
			<g>
				<g>
					<g>
						<polygon class="st0" points="3231.9,940.6 3070.9,761.4 3070.9,716.1 3231.9,536.9 3552.9,536.9 3713.9,716.1 3713.9,761.4 
							3552.9,940.6 						"/>
					</g>
				</g>
				<g>
					<g>
						<path class="st1" d="M3551.2,540.9l158.8,176.8v42.2l-158.8,176.8h-317.6l-158.8-176.8v-42.2l158.8-176.8H3551.2
							 M3554.8,532.9h-3.6h-317.6h-3.6l-2.4,2.7l-158.8,176.8l-2.1,2.3v3.1v42.2v3l2.1,2.3L3227.7,942l2.4,2.6h3.6h317.6h3.6
							l2.4-2.6l158.8-176.8l2.1-2.3v-3v-42.2v-3l-2.1-2.3l-158.8-176.8L3554.8,532.9L3554.8,532.9z"/>
					</g>
				</g>
			</g>
			<g>
				<path class="st1" d="M3551.2,540.9l158.8,176.8v42.2l-158.8,176.8h-317.6l-158.8-176.8v-42.2l158.8-176.8H3551.2 M3552.9,536.9
					h-1.8h-317.6h-1.8l-1.2,1.4L3071.8,715l-1,1.1v1.5V760v1.6l1,1.1l158.8,176.8l1.2,1.4h1.8h317.6h1.8l1.2-1.4l158.8-176.8l1-1.1
					V760v-42.2v-1.5l-1-1.1l-158.8-176.8L3552.9,536.9L3552.9,536.9z"/>
			</g>
			<g>
				<line class="st2" x1="3392.5" y1="738.8" x2="3392.5" y2="738.8"/>
				<path class="st1" d="M3392.5,738.8"/>
			</g>
			<g>
				<g>
					<line class="st2" x1="3392.5" y1="738.8" x2="3392.5" y2="738.8"/>
					<path class="st1" d="M3392.5,738.8"/>
				</g>
			</g>
			<g>
				<g>
					<path class="st0" d="M3232.8,896.5l-160.6-178.8l160.6-178.8h319.4l160.6,178.8l-160.6,178.8L3232.8,896.5L3232.8,896.5z
						 M3538.2,865.4l132.5-147.5l-132.5-147.5h-291.5l-132.5,147.5l132.5,147.5H3538.2z"/>
				</g>
				<g>
					<path class="st1" d="M3551.3,540.9l158.8,176.8l-158.8,176.8h-317.6l-158.8-176.8l158.8-176.8H3551.3 M3245.9,867.4h293.3
						l134.3-149.5l-134.3-149.5h-293.3l-134.3,149.5L3245.9,867.4 M3553.1,536.9h-1.8h-317.6h-1.8l-1.2,1.4L3071.9,715l-2.4,2.6
						l2.4,2.7l158.8,176.8l1.2,1.3h1.8h317.6h1.8l1.2-1.3l158.8-176.8l2.4-2.6l-2.4-2.6l-158.9-176.8L3553.1,536.9L3553.1,536.9z
						 M3247.6,572.3h289.7l130.8,145.5l-130.8,145.5h-289.7l-130.8-145.5L3247.6,572.3L3247.6,572.3z"/>
				</g>
			</g>
			<g>
				<g>
					<rect x="3231.1" y="895.8" class="st1" width="4" height="42.2"/>
				</g>
				<g>
					<rect x="3549.6" y="895.8" class="st1" width="4" height="42.2"/>
				</g>
			</g>
		</g>
	</g>
	<g>
		<g>
			<polygon class="st0" points="3169,840.5 3127.8,795.2 2747.1,935.2 2747.1,956.4 2788.3,1001.7 3169,861.7 			"/>
			<path class="st1" d="M2787.8,1004.1l-42.7-46.9v-23.3l1.3-0.5l381.9-140.5l42.6,46.8v23.4l-1.3,0.5L2787.8,1004.1z M2749.1,955.7
				l39.8,43.8L3167,860.3v-19l-39.8-43.8l-378.1,139.1L2749.1,955.7L2749.1,955.7z"/>
		</g>
		<g>
			<path class="st1" d="M2787.2,1006.4l-44.1-48.5v-25.5l385.8-141.9L3173,839v25.5L2787.2,1006.4z M2751.1,954.9l38.4,42.2
				L3165,858.9V842l-38.4-42.2L2751.1,938V954.9L2751.1,954.9z"/>
		</g>
		<g>
			<polygon class="st0" points="3127.8,795.2 2747.1,935.2 2788.3,980.5 3169,840.5 			"/>
			<path class="st1" d="M2787.8,982.9l-44.1-48.5l384.7-141.5l44.1,48.5L2787.8,982.9z M2750.6,936.1l38.3,42.1l376.6-138.5
				l-38.3-42.1L2750.6,936.1z"/>
		</g>
	</g>
	<g>
		<g>
			<g>
				<polygon class="st0" points="680.1,856.9 710.1,824 831.2,868.8 831.2,884.2 801.3,917.2 680.1,872.3 				"/>
				<path class="st1" d="M801.8,919.5l-123.7-45.9v-17.5l31.3-34.5l123.7,45.9V885L801.8,919.5z M682.1,870.9l118.5,43.9l28.5-31.4
					v-13.2l-118.5-43.9l-28.5,31.3V870.9z"/>
			</g>
			<g>
				<path class="st1" d="M802.4,921.8L676.1,875v-19.8l32.8-36L835.2,866v19.8L802.4,921.8z M684.1,869.5l116,43l27.1-29.8v-11
					l-116-43l-27.1,29.8V869.5z"/>
			</g>
			<g>
				<polygon class="st0" points="710.1,824 831.2,868.8 801.3,901.7 680.1,856.9 				"/>
				<path class="st1" d="M801.8,904.1l-125.2-46.4l32.8-36.1l125.2,46.3L801.8,904.1z M683.6,856l117.1,43.4l27.1-29.8l-117.1-43.4
					L683.6,856z"/>
			</g>
		</g>
		<g>
			<g>
				<g>
					<polygon class="st0" points="763.9,975 763.9,900.5 845.9,807.2 980.8,856.4 980.8,931 898.8,1024.2 					"/>
				</g>
				<g>
					<path class="st1" d="M847.1,811.9l129.8,47.4v70.2l-79.2,90.1l-129.8-47.3V902L847.1,811.9 M844.7,802.5l-3.6,4.1l-79.2,90.1
						l-2,2.2v3v70.2v5.6l5.2,1.9l129.8,47.4l5.2,1.9l3.6-4.1l79.2-90l2-2.2v-3v-70.2v-5.6l-5.2-1.9l-129.8-47.4L844.7,802.5
						L844.7,802.5z"/>
				</g>
			</g>
			<g>
				<polygon class="st0" points="847,811.8 976.8,859.2 897.6,949.3 767.9,902 				"/>
				<path class="st1" d="M898.2,951.7l-133.8-48.8l82-93.4l133.8,48.9L898.2,951.7z M771.3,901.1L897,947l76.3-86.9l-125.8-45.9
					L771.3,901.1z"/>
			</g>
			<g>
				<line class="st2" x1="897.7" y1="949.2" x2="897.7" y2="1019.4"/>
				<rect x="895.7" y="949.2" class="st1" width="4" height="70.2"/>
			</g>
		</g>
		<g>
			<g>
				<polygon class="st0" points="927.4,948.8 957.4,915.9 1058.5,952.2 1058.5,967.6 1028.5,1000.5 927.4,964.2 				"/>
				<path class="st1" d="M1029.1,1002.9l-103.7-37.2V948l31.4-34.5l103.7,37.2v17.6L1029.1,1002.9z M929.4,962.8l98.5,35.4
					l28.6-31.3v-13.2L958,918.2l-28.6,31.3V962.8z"/>
			</g>
			<g>
				<path class="st1" d="M1029.7,1005.2L923.4,967v-19.8l32.8-36l106.2,38.1v19.8L1029.7,1005.2z M931.4,961.4l95.9,34.5l27.2-29.8
					v-11l-95.9-34.5l-27.1,29.8L931.4,961.4L931.4,961.4z"/>
			</g>
			<g>
				<polygon class="st0" points="957.4,915.9 1058.5,952.2 1028.5,985.1 927.4,948.8 				"/>
				<path class="st1" d="M1029.1,987.4L924,949.7l32.8-36.1l105.2,37.8L1029.1,987.4z M930.9,947.9l97,34.9l27.1-29.7l-97-34.8
					L930.9,947.9z"/>
			</g>
		</g>
	</g>
	<g>
		<g>
			<g>
				<g>
					<g>
						<polygon class="st0" points="1183.9,1381.6 983.2,1158.2 983.2,1003.3 1183.9,779.9 1584.5,779.9 1785.2,1003.3 
							1785.2,1158.2 1584.5,1381.6 						"/>
					</g>
				</g>
				<g>
					<g>
						<path class="st3" d="M1582.8,783.9l198.5,221v151.8l-198.5,221h-397l-198.5-221v-151.8l198.5-221H1582.8 M1586.3,775.9h-3.5
							h-397h-3.6l-2.4,2.7l-198.5,221l-2,2.3v3v151.8v3.1l2,2.3l198.5,221l2.4,2.7h3.6h397h3.5l2.4-2.7l198.5-221l2.1-2.3v-3.1
							v-151.8v-3l-2.1-2.3l-198.5-221L1586.3,775.9L1586.3,775.9z"/>
					</g>
				</g>
			</g>
			<g>
				<path class="st3" d="M1582.8,783.9l198.5,221v151.8l-198.5,221h-397l-198.5-221v-151.8l198.5-221H1582.8 M1584.5,779.9h-1.8
					h-397h-1.8l-1.2,1.4l-198.5,221l-1,1.1v1.5v151.8v1.6l1,1.2l198.5,221l1.2,1.3h1.8h397h1.8l1.2-1.3l198.5-221l1-1.2v-1.6v-151.8
					v-1.5l-1-1.1l-198.5-221L1584.5,779.9L1584.5,779.9z"/>
			</g>
			<g>
				<line class="st2" x1="1384.2" y1="1031.3" x2="1384.2" y2="1031.3"/>
				<path class="st3" d="M1384.2,1031.3"/>
			</g>
			<g>
				<g>
					<line class="st2" x1="1384.2" y1="1031.3" x2="1384.2" y2="1031.3"/>
					<path class="st3" d="M1384.2,1031.3"/>
				</g>
			</g>
			<g>
				<g>
					<path class="st0" d="M1184.8,1227.8l-200.3-223l200.3-223h398.8l200.3,223l-200.3,223H1184.8z M1566.7,1189.8l166.1-184.9
						L1566.7,820h-364.8l-166.2,184.9l166.1,184.9H1566.7z"/>
				</g>
				<g>
					<path class="st3" d="M1582.8,783.9l198.5,221l-198.5,221h-397l-198.5-221l198.5-221H1582.8 M1200.9,1191.8h366.7l167.9-186.9
						L1567.6,818h-366.7L1033,1004.9L1200.9,1191.8 M1584.5,779.9h-1.8h-397h-1.8l-1.2,1.4l-198.5,221l-2.4,2.6l2.4,2.7l198.5,221
						l1.2,1.3h1.8h397h1.8l1.2-1.3l198.5-221l2.4-2.7l-2.4-2.6l-198.5-221L1584.5,779.9L1584.5,779.9z M1202.7,821.9h363.1
						l164.3,182.9l-164.3,182.9h-363.1l-164.3-182.8L1202.7,821.9L1202.7,821.9z"/>
				</g>
			</g>
			<g>
				<g>
					<rect x="1183.2" y="1227.6" class="st3" width="4" height="151.8"/>
				</g>
				<g>
					<rect x="1581.3" y="1227.6" class="st3" width="4" height="151.8"/>
				</g>
			</g>
		</g>
	</g>
	<g>
		<g>
			<g>
				<g>
					<g>
						<polygon class="st0" points="2270,1378.6 2069.2,1155.2 2069.2,1003.3 2270,779.9 2670.6,779.9 2871.3,1003.3 2871.3,1155.2 
							2670.6,1378.6 						"/>
					</g>
				</g>
				<g>
					<g>
						<path class="st3" d="M2668.8,783.9l198.5,221v148.8l-198.5,221h-397l-198.5-221v-148.8l198.5-221H2668.8 M2672.3,775.9h-3.6
							h-397h-3.6l-2.4,2.7l-198.5,221l-2.1,2.3v3v148.8v3.1l2.1,2.3l198.5,221l2.4,2.7h3.6h397h3.6l2.4-2.7l198.5-221l2.1-2.3v-3.1
							v-148.8v-3l-2.1-2.3l-198.5-221L2672.3,775.9L2672.3,775.9z"/>
					</g>
				</g>
			</g>
			<g>
				<path class="st3" d="M2668.8,783.9l198.5,221v148.8l-198.5,221h-397l-198.5-221v-148.8l198.5-221H2668.8 M2670.6,779.9h-1.8
					h-397h-1.8l-1.2,1.4l-198.5,221l-1,1.1v1.5v148.8v1.6l1,1.2l198.5,221l1.2,1.3h1.8h397h1.8l1.2-1.3l198.5-221l1-1.2v-1.6v-148.8
					v-1.5l-1-1.1l-198.5-221L2670.6,779.9L2670.6,779.9z"/>
			</g>
			<g>
				<line class="st2" x1="2470.2" y1="1031.3" x2="2470.2" y2="1031.3"/>
				<path class="st3" d="M2470.2,1031.3"/>
			</g>
			<g>
				<g>
					<line class="st2" x1="2470.2" y1="1031.3" x2="2470.2" y2="1031.3"/>
					<path class="st3" d="M2470.2,1031.3"/>
				</g>
			</g>
			<g>
				<g>
					<path class="st0" d="M2270.9,1227.8l-200.3-223l200.3-223h398.8l200.3,223l-200.3,223H2270.9z M2652.7,1189.8l166.1-184.9
						L2652.7,820h-364.9l-166.1,184.9l166.1,184.9H2652.7z"/>
				</g>
				<g>
					<path class="st3" d="M2668.8,783.9l198.5,221l-198.5,221h-397l-198.5-221l198.5-221H2668.8 M2286.9,1191.8h366.6l167.9-186.9
						L2653.6,818h-366.6L2119,1004.9L2286.9,1191.8 M2670.6,779.9h-1.8h-397h-1.8l-1.2,1.4l-198.5,221l-2.4,2.6l2.4,2.7l198.5,221
						l1.2,1.3h1.8h397h1.8l1.2-1.3l198.5-221l2.4-2.7l-2.4-2.6l-198.5-221L2670.6,779.9L2670.6,779.9z M2288.8,821.9h363.1
						l164.3,182.9l-164.3,182.9h-363.1l-164.3-182.9L2288.8,821.9L2288.8,821.9z"/>
				</g>
			</g>
			<g>
				<g>
					<rect x="2667.3" y="1227.6" class="st3" width="4" height="148.8"/>
				</g>
				<g>
					<rect x="2269.2" y="1227.6" class="st3" width="4" height="148.8"/>
				</g>
			</g>
		</g>
	</g>
	<g>
		<g>
			<g>
				<polygon class="st0" points="1092.2,1191.3 1062.3,1158.4 941.6,1202.8 941.6,1218.2 971.6,1251.1 1092.2,1206.7 				"/>
				<path class="st4" d="M971,1253.4l-31.4-34.5v-17.6l123.2-45.3l31.4,34.5v17.5L971,1253.4z M943.6,1217.4l28.5,31.3l118-43.5
					v-13.2l-28.5-31.3l-118,43.5V1217.4L943.6,1217.4z"/>
			</g>
			<g>
				<path class="st4" d="M970.4,1255.8l-32.8-36.1V1200l125.8-46.2l32.8,36.1v19.8L970.4,1255.8z M945.6,1216.6l27.1,29.8
					l115.5-42.5v-11l-27.1-29.8l-115.5,42.5C945.6,1205.6,945.6,1216.6,945.6,1216.6z"/>
			</g>
			<g>
				<polygon class="st0" points="1062.3,1158.4 941.6,1202.8 971.6,1235.7 1092.2,1191.3 				"/>
				<path class="st4" d="M971,1238l-32.9-36.1l124.7-45.8l32.9,36.1L971,1238z M945.1,1203.6l27,29.8l116.6-42.9l-27-29.8
					L945.1,1203.6z"/>
			</g>
		</g>
		<g>
			<g>
				<g>
					<polygon class="st0" points="784,1267.9 784,1193.4 919,1144.1 1001,1237.4 1001,1311.9 866,1361.2 					"/>
				</g>
				<g>
					<path class="st4" d="M917.8,1148.8l79.2,90.1v70.2l-129.8,47.3l-79.2-90.1v-70.2L917.8,1148.8 M920.2,1139.4l-5.1,1.9
						l-129.8,47.3l-5.2,1.9v5.6v70.2v3l2,2.2l79.2,90.1l3.6,4.1l5.2-1.9l129.8-47.3l5.2-1.9v-5.6v-70.2v-3l-2-2.2l-79.2-90.1
						L920.2,1139.4L920.2,1139.4z"/>
				</g>
			</g>
			<g>
				<polygon class="st0" points="917.9,1148.8 788.1,1196.1 867.2,1286.3 997,1238.9 				"/>
				<path class="st4" d="M866.6,1288.6l-82-93.3l133.8-48.8l81.9,93.3L866.6,1288.6z M791.5,1197l76.3,86.9l125.8-45.9l-76.3-86.9
					L791.5,1197z"/>
			</g>
			<g>
				<line class="st2" x1="867.2" y1="1286.2" x2="867.2" y2="1356.4"/>
				<rect x="865.2" y="1286.2" class="st4" width="4" height="70.2"/>
			</g>
		</g>
		<g>
			<g>
				<polygon class="st0" points="836.9,1285.7 807,1252.8 668.4,1304.6 668.4,1320 698.3,1353 836.9,1301.1 				"/>
				<path class="st4" d="M697.8,1355.3l-31.4-34.5v-17.5l1.3-0.5l139.8-52.3l31.4,34.5v17.6l-1.3,0.5L697.8,1355.3z M670.4,1319.3
					l28.5,31.3l136-50.8v-13.2l-28.5-31.3l-136,50.8V1319.3z"/>
			</g>
			<g>
				<path class="st4" d="M697.2,1357.7l-32.8-36.1v-19.8l143.7-53.8l32.8,36.1v19.8L697.2,1357.7z M672.4,1318.5l27.1,29.8
					l133.4-49.9v-11.1l-27.1-29.8l-133.5,49.9V1318.5z"/>
			</g>
			<g>
				<polygon class="st0" points="807,1252.8 668.4,1304.6 698.3,1337.6 836.9,1285.7 				"/>
				<path class="st4" d="M697.8,1339.9l-32.8-36.1l142.6-53.3l32.9,36.1L697.8,1339.9z M671.9,1305.5l27,29.8l134.5-50.3l-27-29.8
					L671.9,1305.5z"/>
			</g>
		</g>
	</g>
	<g>
		<g>
			<polygon class="st0" points="2752.1,1201 2793.3,1155.7 3170,1296.2 3170,1317.4 3128.8,1362.7 2752.1,1222.2 			"/>
			<path class="st1" d="M3129.4,1365.1l-1.2-0.4l-377.9-141.1v-23.3l42.6-46.8l1.2,0.5l378,141v23.3L3129.4,1365.1z M2754.1,1220.8
				l374.1,139.6l39.8-43.7v-19L2793.9,1158l-39.8,43.7V1220.8z"/>
		</g>
		<g>
			<path class="st1" d="M3129.9,1367.4L2748.1,1225v-25.5l44.1-48.4l381.8,142.4v25.5L3129.9,1367.4z M2756.1,1219.4l371.5,138.7
				l38.4-42.2V1299l-371.5-138.7l-38.4,42.2V1219.4z"/>
		</g>
		<g>
			<polygon class="st0" points="2793.3,1155.7 3170,1296.2 3128.8,1341.5 2752.1,1201 			"/>
			<path class="st1" d="M3129.4,1343.9l-1.2-0.5l-379.4-141.6l44.1-48.5l1.2,0.4l379.4,141.6L3129.4,1343.9z M2755.6,1200.2
				l372.6,139l38.3-42.1L2793.9,1158L2755.6,1200.2z"/>
		</g>
	</g>
	<g>
		<g>
			<g>
				<g>
					<g>
						<polygon class="st0" points="3231.9,1622.6 3070.9,1443.4 3070.9,1398.1 3231.9,1218.9 3552.9,1218.9 3713.9,1398.1 
							3713.9,1443.4 3552.9,1622.6 						"/>
					</g>
				</g>
				<g>
					<g>
						<path class="st1" d="M3551.2,1222.9l158.8,176.8v42.2l-158.8,176.8h-317.6l-158.8-176.8v-42.2l158.8-176.8H3551.2
							 M3554.8,1214.9h-3.6h-317.6h-3.6l-2.4,2.7l-158.8,176.8l-2.1,2.3v3.1v42.2v3l2.1,2.3l158.8,176.8l2.4,2.7h3.6h317.6h3.6
							l2.4-2.7l158.8-176.8l2.1-2.3v-3v-42.2v-3.1l-2.1-2.3l-158.8-176.8L3554.8,1214.9L3554.8,1214.9z"/>
					</g>
				</g>
			</g>
			<g>
				<path class="st1" d="M3551.2,1222.9l158.8,176.8v42.2l-158.8,176.8h-317.6l-158.8-176.8v-42.2l158.8-176.8H3551.2
					 M3552.9,1218.9h-1.8h-317.6h-1.8l-1.2,1.3L3071.8,1397l-1,1.2v1.5v42.2v1.6l1,1.2l158.8,176.8l1.2,1.3h1.8h317.6h1.8l1.2-1.3
					l158.8-176.8l1-1.2v-1.6v-42.2v-1.5l-1-1.2l-158.8-176.8L3552.9,1218.9L3552.9,1218.9z"/>
			</g>
			<g>
				<line class="st2" x1="3392.5" y1="1420.8" x2="3392.5" y2="1420.8"/>
				<path class="st1" d="M3392.5,1420.8"/>
			</g>
			<g>
				<g>
					<line class="st2" x1="3392.5" y1="1420.8" x2="3392.5" y2="1420.8"/>
					<path class="st1" d="M3392.5,1420.8"/>
				</g>
			</g>
			<g>
				<g>
					<path class="st0" d="M3232.8,1578.5l-160.6-178.8l160.6-178.8h319.4l160.6,178.8l-160.6,178.8H3232.8z M3538.2,1547.4
						l132.5-147.6l-132.5-147.5h-291.5l-132.5,147.5l132.5,147.6H3538.2z"/>
				</g>
				<g>
					<path class="st1" d="M3551.3,1222.9l158.8,176.8l-158.8,176.8h-317.6l-158.8-176.8l158.8-176.8H3551.3 M3245.9,1549.4h293.3
						l134.3-149.6l-134.3-149.5h-293.3l-134.3,149.5L3245.9,1549.4 M3553.1,1218.9h-1.8h-317.6h-1.8l-1.2,1.3L3071.9,1397l-2.4,2.7
						l2.4,2.7l158.8,176.8l1.2,1.3h1.8h317.6h1.8l1.2-1.3l158.8-176.8l2.4-2.7l-2.4-2.7l-158.8-176.8L3553.1,1218.9L3553.1,1218.9z
						 M3247.6,1254.3h289.7l130.8,145.5l-130.8,145.6h-289.7l-130.8-145.6L3247.6,1254.3L3247.6,1254.3z"/>
				</g>
			</g>
			<g>
				<g>
					<rect x="3231.1" y="1577.8" class="st1" width="4" height="42.2"/>
				</g>
				<g>
					<rect x="3549.6" y="1577.8" class="st1" width="4" height="42.2"/>
				</g>
			</g>
		</g>
	</g>
	<g>
		<path class="st3" d="M2405.6,979.7h11.4v62.4h-11.4v-27.7h-27.1v27.7h-11.4v-62.4h11.4v25h27.1V979.7z"/>
		<path class="st3" d="M2469.9,1040.6c-2.1,0.6-4.9,1.1-8.2,1.7c-3.4,0.5-7.1,0.8-11.1,0.8c-3.8,0-6.9-0.5-9.5-1.6
			c-2.6-1.1-4.6-2.6-6.1-4.5c-1.6-1.9-2.6-4.2-3.3-6.9c-0.6-2.7-1-5.6-1-8.8V995h10.9v24.6c0,5,0.8,8.6,2.2,10.8s4.1,3.2,7.7,3.2
			c1.3,0,2.7,0,4.2-0.2c1.4-0.1,2.6-0.2,3.3-0.5v-38h10.9L2469.9,1040.6L2469.9,1040.6z"/>
		<path class="st3" d="M2526.2,1018.6c0,3.8-0.6,7.2-1.7,10.2c-1.1,3-2.7,5.6-4.8,7.8c-2.1,2.2-4.6,3.8-7.5,5
			c-2.9,1.2-6.2,1.7-10,1.7c-3.6,0-7.1-0.2-10.3-0.8c-3.2-0.6-6-1.2-8.1-1.8V974l10.9-1.8v24.4c1.2-0.6,2.8-1.2,4.7-1.8
			c1.8-0.5,3.8-0.8,6.1-0.8c3.3,0,6.2,0.6,8.9,1.8c2.6,1.2,4.8,2.9,6.5,5c1.8,2.2,3.1,4.8,4,7.8
			C2525.7,1011.6,2526.2,1014.9,2526.2,1018.6z M2515,1018.4c0-4.6-0.9-8.3-2.8-11c-1.9-2.7-4.8-4-8.7-4c-1.8,0-3.5,0.2-5.1,0.8
			c-1.6,0.5-2.8,1.2-3.8,1.8v27.1c0.8,0.2,1.8,0.4,3,0.5c1.2,0.2,2.7,0.2,4.4,0.2c4,0,7.2-1.3,9.4-4.1
			C2513.9,1027,2515,1023.2,2515,1018.4z"/>
		<path class="st3" d="M2573.8,995.9c0,2.2-0.4,4.2-1.4,6.4c-0.9,2-2.1,4.1-3.4,6s-3,3.8-4.8,5.6c-1.8,1.9-3.6,3.6-5.4,5.4
			c-0.9,0.9-2.1,2-3.2,3.2s-2.4,2.5-3.4,3.8c-1.1,1.3-2,2.5-2.8,3.7c-0.8,1.1-1.2,2.1-1.2,2.9h27.7v9.2h-39.7
			c-0.1-0.5-0.1-1.1-0.1-1.8c0-0.7,0-1.2,0-1.6c0-2.9,0.4-5.6,1.4-8c0.9-2.4,2.2-4.7,3.7-6.8c1.5-2.1,3.2-4.1,5.1-6
			c1.8-1.8,3.7-3.7,5.6-5.5c1.4-1.4,2.8-2.8,4.2-4c1.3-1.3,2.4-2.6,3.4-3.9s1.8-2.6,2.4-4c0.6-1.4,0.9-2.8,0.9-4.2
			c0-3.1-0.9-5.4-2.7-6.7c-1.8-1.3-4-2-6.6-2c-1.7,0-3.2,0.2-4.7,0.7c-1.4,0.5-2.7,1-3.9,1.7c-1.1,0.7-2.1,1.4-2.9,2
			c-0.9,0.7-1.4,1.2-1.9,1.7l-5.4-7.7c2.5-2.4,5.4-4.3,8.8-5.8c3.4-1.5,7.1-2.2,10.9-2.2c6.7,0,11.6,1.6,14.7,4.8
			C2572.2,986.1,2573.8,990.4,2573.8,995.9z"/>
	</g>
	<g>
		<path class="st3" d="M1312.6,979.7h11.3v62.4h-11.3v-27.7h-27.1v27.7h-11.4v-62.4h11.4v25h27.1V979.7z"/>
		<path class="st3" d="M1376.9,1040.6c-2.1,0.6-4.8,1.1-8.2,1.7c-3.4,0.5-7.1,0.8-11.1,0.8c-3.8,0-6.9-0.5-9.5-1.6
			c-2.5-1.1-4.6-2.6-6.1-4.5c-1.5-1.9-2.7-4.2-3.3-6.9c-0.7-2.7-1-5.6-1-8.8V995h10.9v24.6c0,5,0.8,8.6,2.2,10.8
			c1.4,2.2,4,3.2,7.7,3.2c1.3,0,2.7,0,4.2-0.2c1.4-0.1,2.5-0.2,3.3-0.5v-38h10.9L1376.9,1040.6L1376.9,1040.6z"/>
		<path class="st3" d="M1433.2,1018.6c0,3.8-0.5,7.2-1.6,10.2c-1.1,3-2.7,5.6-4.8,7.8c-2.1,2.2-4.6,3.8-7.5,5c-3,1.2-6.2,1.7-10,1.7
			c-3.6,0-7.1-0.2-10.3-0.8c-3.2-0.6-6-1.2-8.2-1.8V974l10.9-1.8v24.4c1.2-0.6,2.8-1.2,4.7-1.8s3.8-0.8,6.1-0.8
			c3.3,0,6.2,0.6,8.8,1.8c2.6,1.2,4.8,2.9,6.6,5c1.8,2.2,3,4.8,4,7.8C1432.7,1011.6,1433.2,1014.9,1433.2,1018.6z M1422,1018.4
			c0-4.6-0.9-8.3-2.8-11c-1.9-2.7-4.8-4-8.7-4c-1.8,0-3.5,0.2-5.1,0.8s-2.8,1.2-3.8,1.8v27.1c0.8,0.2,1.8,0.4,3,0.5
			c1.2,0.2,2.7,0.2,4.5,0.2c4,0,7.2-1.3,9.5-4.1C1420.9,1027,1422,1023.2,1422,1018.4z"/>
		<path class="st3" d="M1445.6,992.7c3.5-1.4,7-3.1,10.5-5.3c3.5-2.1,6.6-4.7,9.3-7.6h7.7v62.4h-10.9v-47.8
			c-1.6,1.2-3.6,2.5-6.1,3.7c-2.4,1.2-4.8,2.2-7.1,3L1445.6,992.7z"/>
	</g>
	<g>
		<path class="st1" d="M3355.4,703.6c-1.3,1.5-2.9,3.3-4.8,5.6c-1.9,2.3-3.8,4.8-5.8,7.5c-2,2.7-3.9,5.5-5.9,8.3s-3.6,5.5-5.1,8.2
			h22.3v6.4h-31.4v-4.8c0.8-1.5,1.8-3.1,2.8-4.9s2.2-3.5,3.4-5.3c1.2-1.8,2.4-3.7,3.8-5.6c1.3-1.9,2.6-3.7,3.9-5.5
			c1.3-1.8,2.6-3.4,3.8-5c1.2-1.6,2.4-3,3.4-4.2h-20v-6.4h29.8L3355.4,703.6L3355.4,703.6z"/>
		<path class="st1" d="M3390.2,723.9c0,2.5-0.4,4.8-1.1,6.8c-0.7,2-1.8,3.8-3.1,5.2c-1.3,1.5-2.9,2.6-4.8,3.4s-3.9,1.2-6.1,1.2
			s-4.3-0.4-6.1-1.2c-1.9-0.8-3.4-1.9-4.8-3.4c-1.3-1.4-2.4-3.2-3.1-5.2c-0.8-2.1-1.1-4.3-1.1-6.8s0.4-4.8,1.1-6.8s1.8-3.8,3.1-5.2
			c1.4-1.5,2.9-2.6,4.8-3.4s3.9-1.1,6.1-1.1s4.2,0.4,6.1,1.1c1.9,0.8,3.4,1.9,4.8,3.4c1.3,1.4,2.4,3.1,3.1,5.2
			C3389.9,719.1,3390.2,721.4,3390.2,723.9z M3382.8,723.9c0-3.1-0.6-5.6-2-7.4s-3.2-2.8-5.6-2.8s-4.2,0.9-5.6,2.8
			c-1.4,1.8-2,4.3-2,7.4c0,3.2,0.6,5.7,2,7.5c1.4,1.9,3.2,2.8,5.6,2.8s4.2-0.9,5.6-2.8C3382.1,729.5,3382.8,727,3382.8,723.9z"/>
		<path class="st1" d="M3397.7,709.2c1.4-0.4,3.2-0.8,5.4-1.1c2.2-0.4,4.7-0.5,7.4-0.5c2.6,0,4.7,0.3,6.4,1s3.1,1.7,4.1,3
			s1.8,2.8,2.1,4.5c0.4,1.8,0.6,3.8,0.6,5.9v17.6h-7.2v-16.5c0-1.7-0.1-3.1-0.4-4.3c-0.2-1.2-0.6-2.2-1.1-2.9s-1.2-1.3-2.1-1.6
			c-0.9-0.4-1.9-0.5-3.1-0.5c-0.9,0-1.9,0-2.9,0.2c-1,0.1-1.8,0.2-2.2,0.3v25.3h-7.2L3397.7,709.2L3397.7,709.2z"/>
		<path class="st1" d="M3431.1,724c0-2.8,0.4-5.2,1.2-7.2c0.8-2.1,1.9-3.8,3.2-5.2s2.9-2.4,4.7-3.1c1.8-0.7,3.6-1,5.4-1
			c4.3,0,7.7,1.4,10.1,4c2.4,2.7,3.6,6.7,3.6,12c0,0.4,0,0.9-0.1,1.4c0,0.5-0.1,0.9-0.1,1.3h-20.7c0.2,2.5,1.1,4.5,2.6,5.9
			c1.6,1.4,3.9,2,6.9,2c1.8,0,3.4-0.2,4.9-0.5c1.4-0.3,2.6-0.7,3.4-1l0.9,6c-0.4,0.2-0.9,0.4-1.6,0.6c-0.7,0.2-1.5,0.4-2.4,0.6
			s-1.9,0.3-2.9,0.5c-1.1,0.1-2.1,0.2-3.2,0.2c-2.8,0-5.1-0.4-7.2-1.2c-2.1-0.8-3.7-1.9-5.1-3.4c-1.3-1.5-2.3-3.2-2.9-5.2
			C3431.4,728.6,3431.1,726.4,3431.1,724z M3452.1,720.8c0-1-0.1-2-0.4-2.9c-0.3-0.9-0.7-1.7-1.2-2.3c-0.6-0.7-1.2-1.2-2-1.5
			c-0.8-0.4-1.7-0.6-2.8-0.6s-2.1,0.2-2.9,0.7c-0.9,0.4-1.6,0.9-2.1,1.6c-0.6,0.7-1.1,1.5-1.4,2.4c-0.3,0.9-0.6,1.8-0.6,2.7
			L3452.1,720.8L3452.1,720.8z"/>
	</g>
	<g>
		<path class="st1" d="M1347.4,366.6c-1.3,1.5-2.9,3.3-4.8,5.6s-3.8,4.8-5.8,7.5s-4,5.5-5.9,8.4c-2,2.9-3.7,5.5-5.2,8.1h22.3v6.4
			h-31.5v-4.8c0.8-1.5,1.8-3.1,2.8-4.9c1.1-1.8,2.2-3.6,3.4-5.4c1.2-1.9,2.5-3.7,3.8-5.6c1.3-1.9,2.6-3.7,3.8-5.4
			c1.3-1.8,2.6-3.4,3.8-5c1.2-1.6,2.4-3,3.5-4.2h-20v-6.4h29.8L1347.4,366.6L1347.4,366.6z"/>
		<path class="st1" d="M1382.2,386.9c0,2.5-0.3,4.8-1.1,6.8s-1.8,3.8-3,5.2c-1.3,1.5-2.9,2.6-4.8,3.4c-1.9,0.8-3.9,1.2-6.2,1.2
			s-4.3-0.4-6.1-1.2c-1.9-0.8-3.4-1.9-4.8-3.4c-1.3-1.4-2.4-3.2-3.1-5.2c-0.8-2.1-1.1-4.3-1.1-6.8s0.3-4.8,1.1-6.8s1.8-3.8,3.1-5.2
			c1.3-1.4,2.9-2.6,4.8-3.4c1.8-0.8,3.8-1.1,6-1.1c2.2,0,4.2,0.4,6.1,1.1c1.9,0.8,3.5,1.9,4.8,3.4c1.3,1.4,2.4,3.1,3.1,5.2
			C1381.8,382.1,1382.2,384.4,1382.2,386.9z M1374.8,386.9c0-3.1-0.7-5.6-2-7.4c-1.3-1.8-3.2-2.8-5.6-2.8s-4.2,0.9-5.6,2.8
			c-1.3,1.8-2,4.3-2,7.4c0,3.2,0.7,5.7,2,7.5c1.3,1.9,3.2,2.8,5.6,2.8s4.2-0.9,5.6-2.8C1374.1,392.5,1374.8,390,1374.8,386.9z"/>
		<path class="st1" d="M1389.7,372.2c1.4-0.4,3.2-0.8,5.5-1.1c2.2-0.4,4.7-0.5,7.4-0.5c2.6,0,4.7,0.3,6.4,1s3.1,1.7,4.1,3
			s1.8,2.8,2.2,4.5c0.4,1.8,0.7,3.8,0.7,5.9v17.6h-7.2v-16.5c0-1.7-0.1-3.1-0.3-4.3c-0.2-1.2-0.6-2.2-1.1-2.9s-1.2-1.3-2-1.6
			c-0.8-0.4-1.9-0.5-3.2-0.5c-0.9,0-1.9,0-2.9,0.2c-1,0.1-1.8,0.2-2.2,0.3v25.3h-7.2L1389.7,372.2L1389.7,372.2z"/>
		<path class="st1" d="M1423.1,387c0-2.8,0.4-5.2,1.2-7.2c0.8-2.1,1.9-3.8,3.2-5.2s2.9-2.4,4.7-3.1c1.8-0.7,3.5-1.1,5.4-1.1
			c4.3,0,7.7,1.4,10.1,4c2.4,2.7,3.6,6.7,3.6,12c0,0.4,0,0.9,0,1.4c0,0.5-0.1,0.9-0.1,1.3h-20.7c0.2,2.5,1.1,4.5,2.7,5.9
			c1.6,1.4,3.8,2,6.8,2c1.8,0,3.3-0.1,4.8-0.5c1.5-0.3,2.6-0.6,3.5-1l0.9,6c-0.4,0.2-0.9,0.4-1.7,0.6c-0.7,0.2-1.5,0.4-2.4,0.6
			c-0.9,0.2-1.9,0.3-2.9,0.4s-2.1,0.2-3.2,0.2c-2.8,0-5.1-0.4-7.2-1.2c-2.1-0.8-3.7-1.9-5.1-3.4c-1.3-1.5-2.3-3.2-2.9-5.2
			C1423.4,391.6,1423.1,389.4,1423.1,387z M1444.1,383.8c0-1-0.1-2-0.4-2.9c-0.3-0.9-0.7-1.7-1.2-2.3c-0.6-0.7-1.2-1.2-2-1.6
			c-0.8-0.4-1.7-0.6-2.8-0.6s-2.1,0.2-2.9,0.7c-0.9,0.4-1.6,0.9-2.2,1.6c-0.6,0.7-1,1.5-1.3,2.4c-0.3,0.9-0.6,1.8-0.7,2.7
			L1444.1,383.8L1444.1,383.8z"/>
	</g>
	<g>
		<path class="st1" d="M1347.4,1707.1c-1.3,1.4-2.9,3.3-4.8,5.6c-1.9,2.3-3.8,4.8-5.8,7.5s-4,5.5-5.9,8.3c-2,2.8-3.7,5.6-5.2,8.2
			h22.3v6.4h-31.5v-4.8c0.8-1.5,1.8-3.1,2.8-4.8c1.1-1.8,2.2-3.6,3.4-5.3c1.2-1.8,2.5-3.7,3.8-5.6c1.3-1.9,2.6-3.7,3.8-5.4
			c1.3-1.8,2.6-3.4,3.8-5c1.2-1.6,2.4-3,3.5-4.2h-20v-6.4h29.8L1347.4,1707.1L1347.4,1707.1z"/>
		<path class="st1" d="M1382.2,1727.4c0,2.5-0.3,4.8-1.1,6.8s-1.8,3.8-3,5.2c-1.3,1.4-2.9,2.6-4.8,3.3c-1.9,0.8-3.9,1.2-6.2,1.2
			s-4.3-0.4-6.1-1.2c-1.9-0.8-3.4-1.9-4.8-3.3c-1.3-1.4-2.4-3.2-3.1-5.2c-0.8-2.1-1.1-4.3-1.1-6.8s0.3-4.8,1.1-6.8s1.8-3.8,3.1-5.2
			c1.3-1.4,2.9-2.6,4.8-3.3c1.8-0.8,3.8-1.2,6-1.2c2.2,0,4.2,0.4,6.1,1.2c1.9,0.8,3.5,1.9,4.8,3.3c1.3,1.4,2.4,3.2,3.1,5.2
			C1381.8,1722.6,1382.2,1724.9,1382.2,1727.4z M1374.8,1727.4c0-3.1-0.7-5.6-2-7.4s-3.2-2.8-5.6-2.8s-4.2,0.9-5.6,2.8
			c-1.3,1.8-2,4.3-2,7.4c0,3.2,0.7,5.7,2,7.5s3.2,2.8,5.6,2.8s4.2-0.9,5.6-2.8C1374.1,1733,1374.8,1730.5,1374.8,1727.4z"/>
		<path class="st1" d="M1389.7,1712.7c1.4-0.4,3.2-0.8,5.5-1.2s4.7-0.6,7.4-0.6c2.6,0,4.7,0.3,6.4,1.1c1.7,0.7,3.1,1.7,4.1,2.9
			s1.8,2.8,2.2,4.6c0.4,1.8,0.7,3.8,0.7,5.8v17.7h-7.2v-16.5c0-1.7-0.1-3.1-0.3-4.3c-0.2-1.2-0.6-2.2-1.1-2.9s-1.2-1.3-2-1.6
			c-0.8-0.3-1.9-0.5-3.2-0.5c-0.9,0-1.9,0.1-2.9,0.2c-1,0.1-1.8,0.2-2.2,0.3v25.3h-7.2L1389.7,1712.7L1389.7,1712.7z"/>
		<path class="st1" d="M1423.1,1727.5c0-2.8,0.4-5.2,1.2-7.2c0.8-2.1,1.9-3.8,3.2-5.2c1.3-1.4,2.9-2.4,4.7-3.1
			c1.8-0.7,3.5-1.1,5.4-1.1c4.3,0,7.7,1.3,10.1,4c2.4,2.7,3.6,6.7,3.6,12c0,0.4,0,0.8,0,1.3c0,0.5-0.1,0.9-0.1,1.3h-20.7
			c0.2,2.5,1.1,4.4,2.7,5.8c1.6,1.4,3.8,2.1,6.8,2.1c1.8,0,3.3-0.2,4.8-0.5c1.5-0.3,2.6-0.7,3.5-1l0.9,5.9c-0.4,0.2-0.9,0.4-1.7,0.7
			c-0.7,0.2-1.5,0.4-2.4,0.6c-0.9,0.2-1.9,0.3-2.9,0.4s-2.1,0.2-3.2,0.2c-2.8,0-5.1-0.4-7.2-1.2c-2.1-0.8-3.7-1.9-5.1-3.4
			c-1.3-1.4-2.3-3.2-2.9-5.2C1423.4,1732.1,1423.1,1729.9,1423.1,1727.5z M1444.1,1724.3c0-1-0.1-1.9-0.4-2.8
			c-0.3-0.9-0.7-1.7-1.2-2.3c-0.6-0.7-1.2-1.2-2-1.6c-0.8-0.4-1.7-0.6-2.8-0.6s-2.1,0.2-2.9,0.7c-0.9,0.4-1.6,0.9-2.2,1.7
			c-0.6,0.7-1,1.4-1.3,2.3s-0.6,1.8-0.7,2.7L1444.1,1724.3L1444.1,1724.3z"/>
	</g>
	<g>
		<path class="st1" d="M3355.4,1378.6c-1.3,1.5-2.9,3.3-4.8,5.6c-1.9,2.3-3.8,4.8-5.8,7.5c-2,2.7-3.9,5.5-5.9,8.3s-3.6,5.6-5.1,8.2
			h22.3v6.4h-31.4v-4.8c0.8-1.5,1.8-3.1,2.8-4.8s2.2-3.5,3.4-5.3c1.2-1.8,2.4-3.7,3.8-5.6s2.6-3.7,3.9-5.4c1.3-1.8,2.6-3.4,3.8-5
			s2.4-3,3.4-4.2h-20v-6.4h29.8L3355.4,1378.6L3355.4,1378.6z"/>
		<path class="st1" d="M3390.2,1398.9c0,2.5-0.4,4.8-1.1,6.8c-0.7,2.1-1.8,3.8-3.1,5.2c-1.3,1.4-2.9,2.5-4.8,3.3
			c-1.9,0.8-3.9,1.2-6.1,1.2s-4.3-0.4-6.1-1.2c-1.9-0.8-3.4-1.9-4.8-3.3c-1.3-1.5-2.4-3.2-3.1-5.2c-0.8-2-1.1-4.3-1.1-6.8
			s0.4-4.8,1.1-6.8s1.8-3.8,3.1-5.2c1.4-1.4,2.9-2.5,4.8-3.3c1.9-0.8,3.9-1.2,6.1-1.2s4.2,0.4,6.1,1.2c1.9,0.8,3.4,1.9,4.8,3.3
			c1.3,1.5,2.4,3.2,3.1,5.2C3389.9,1394.1,3390.2,1396.4,3390.2,1398.9z M3382.8,1398.9c0-3.1-0.6-5.6-2-7.4s-3.2-2.8-5.6-2.8
			s-4.2,0.9-5.6,2.8c-1.4,1.8-2,4.3-2,7.4c0,3.2,0.6,5.7,2,7.5s3.2,2.8,5.6,2.8s4.2-0.9,5.6-2.8
			C3382.1,1404.5,3382.8,1402,3382.8,1398.9z"/>
		<path class="st1" d="M3397.7,1384.2c1.4-0.4,3.2-0.8,5.4-1.2c2.2-0.3,4.7-0.5,7.4-0.5c2.6,0,4.7,0.3,6.4,1c1.7,0.7,3.1,1.7,4.1,3
			s1.8,2.8,2.1,4.5c0.4,1.8,0.6,3.8,0.6,5.8v17.7h-7.2v-16.5c0-1.7-0.1-3.1-0.4-4.3c-0.2-1.2-0.6-2.2-1.1-2.9s-1.2-1.3-2.1-1.6
			c-0.9-0.3-1.9-0.5-3.1-0.5c-0.9,0-1.9,0-2.9,0.2c-1,0.1-1.8,0.2-2.2,0.3v25.3h-7.2L3397.7,1384.2L3397.7,1384.2z"/>
		<path class="st1" d="M3431.1,1399c0-2.8,0.4-5.2,1.2-7.2c0.8-2.1,1.9-3.8,3.2-5.2s2.9-2.4,4.7-3.1c1.8-0.7,3.6-1,5.4-1
			c4.3,0,7.7,1.3,10.1,4c2.4,2.7,3.6,6.7,3.6,12c0,0.4,0,0.8-0.1,1.3c0,0.5-0.1,0.9-0.1,1.3h-20.7c0.2,2.5,1.1,4.4,2.6,5.8
			c1.6,1.4,3.9,2,6.9,2c1.8,0,3.4-0.2,4.9-0.5c1.4-0.3,2.6-0.7,3.4-1l0.9,6c-0.4,0.2-0.9,0.4-1.6,0.7c-0.7,0.2-1.5,0.4-2.4,0.6
			s-1.9,0.3-2.9,0.4c-1.1,0.1-2.1,0.2-3.2,0.2c-2.8,0-5.1-0.4-7.2-1.2c-2.1-0.8-3.7-2-5.1-3.4c-1.3-1.5-2.3-3.2-2.9-5.2
			C3431.4,1403.6,3431.1,1401.4,3431.1,1399z M3452.1,1395.8c0-1-0.1-2-0.4-2.8c-0.3-0.9-0.7-1.7-1.2-2.3c-0.6-0.7-1.2-1.2-2-1.6
			c-0.8-0.4-1.7-0.5-2.8-0.5s-2.1,0.2-2.9,0.7c-0.9,0.4-1.6,0.9-2.1,1.7c-0.6,0.7-1.1,1.4-1.4,2.3s-0.6,1.8-0.6,2.7L3452.1,1395.8
			L3452.1,1395.8z"/>
	</g>
	<g>
		<g>
			<g>
				<g>
					<g>
						<g>
							<polygon class="st0" points="287,1633.3 126,1454 126,1408.7 287,1229.5 608.2,1229.5 769.2,1408.7 769.2,1454 608.2,1633.3 
															"/>
						</g>
					</g>
					<g>
						<g>
							<path class="st4" d="M606.4,1233.5l158.8,176.8v42.2l-158.8,176.8H288.8L130,1452.5v-42.2l158.8-176.8L606.4,1233.5
								 M610,1225.5h-3.6H288.8h-3.5l-2.4,2.7l-158.8,176.8l-2,2.3v3.1v42.2v3l2,2.3l158.8,176.8l2.4,2.7h3.5h317.6h3.5l2.4-2.7
								l158.8-176.8l2-2.3v-3.1v-42.2v-3l-2-2.3l-158.8-176.8L610,1225.5L610,1225.5z"/>
						</g>
					</g>
				</g>
				<g>
					<path class="st4" d="M606.4,1233.5l158.8,176.8v42.2l-158.8,176.8H288.8L130,1452.5v-42.2l158.8-176.8L606.4,1233.5
						 M608.2,1229.5h-1.8H288.8H287l-1.2,1.3L127,1407.6l-1,1.2v1.5v42.2v1.6l1,1.2l158.8,176.8l1.2,1.3h1.8h317.6h1.8l1.2-1.3
						l158.8-176.8l1-1.2v-1.5v-42.2v-1.6l-1-1.2l-158.8-176.8L608.2,1229.5L608.2,1229.5z"/>
				</g>
				<g>
					<line class="st2" x1="447.6" y1="1431.4" x2="447.6" y2="1431.4"/>
					<path class="st4" d="M447.6,1431.4"/>
				</g>
				<g>
					<g>
						<line class="st2" x1="447.6" y1="1431.4" x2="447.6" y2="1431.4"/>
						<path class="st4" d="M447.6,1431.4"/>
					</g>
				</g>
				<g>
					<g>
						<path class="st0" d="M287.9,1589.1l-160.6-178.8l160.6-178.8h319.4l160.6,178.8l-160.6,178.8H287.9z M593.4,1557.8
							l132.5-147.5l-132.5-147.6H301.9l-132.5,147.6l132.5,147.5H593.4z"/>
					</g>
					<g>
						<path class="st4" d="M606.4,1233.5l158.8,176.8l-158.8,176.8H288.8L130,1410.3l158.8-176.8L606.4,1233.5 M301,1559.8h293.3
							l134.3-149.5l-134.3-149.6H301l-134.3,149.6L301,1559.8 M608.2,1229.5h-1.8H288.8H287l-1.2,1.3L127,1407.6l-2.4,2.7l2.4,2.7
							l158.8,176.8l1.2,1.3h1.8h317.6h1.8l1.2-1.3l158.8-176.8l2.4-2.7l-2.4-2.7l-158.8-176.8L608.2,1229.5L608.2,1229.5z
							 M302.8,1264.7h289.7l130.8,145.6l-130.8,145.5H302.7L172,1410.3L302.8,1264.7L302.8,1264.7z"/>
					</g>
				</g>
				<g>
					<g>
						<rect x="286.4" y="1588.4" class="st4" width="4" height="42.2"/>
					</g>
					<g>
						<rect x="604.9" y="1588.4" class="st4" width="4" height="42.2"/>
					</g>
				</g>
			</g>
		</g>
	</g>
	<g>
		<g>
			<polygon class="st0" points="2069.3,1075.6 2069.6,1057.6 1786.7,1057.6 1786.9,1075.6 1768.2,1096.5 2088.1,1096.5 			"/>
			<path class="st3" d="M2092.6,1098.5h-329l21.3-23.6l-0.2-19.2h286.9l-0.2,19.2L2092.6,1098.5z M1772.7,1094.5h311l-16.3-18.1
				l0.2-16.8h-278.8l0.2,16.8L1772.7,1094.5z"/>
		</g>
		<g>
			<rect x="1768.2" y="1096.5" class="st0" width="320" height="15.1"/>
			<path class="st3" d="M2090.1,1113.6h-324v-19.1h324V1113.6z M1770.2,1109.6h316v-11.1h-316V1109.6z"/>
		</g>
	</g>
	<g>
		<path class="st3" d="M2092.1,1115.6h-328V1095l18.8-20.8l-0.3-20.5h291l-0.3,20.5l18.8,20.8V1115.6z M1772.2,1107.6h312v-9.5
			l-18.8-20.8l0.2-15.6h-274.8l0.2,15.6l-18.8,20.8L1772.2,1107.6L1772.2,1107.6z"/>
	</g>
	<g>
		<g>
			<rect x="1339.1" y="1291.8" class="st0" width="77" height="277.5"/>
		</g>
		<g>
			<path class="st1" d="M1412.1,1295.8v269.5h-69v-269.5L1412.1,1295.8 M1420.1,1287.8h-8h-69h-8v8v269.5v8h8h69h8v-8v-269.5V1287.8
				L1420.1,1287.8z"/>
		</g>
	</g>
	<g>
		<g>
			<rect x="2432.1" y="1291.8" class="st0" width="77" height="277.5"/>
		</g>
		<g>
			<path class="st1" d="M2505.1,1295.8v269.5h-69v-269.5L2505.1,1295.8 M2513.1,1287.8h-8h-69h-8v8v269.5v8h8h69h8v-8v-269.5V1287.8
				L2513.1,1287.8z"/>
		</g>
	</g>
	<g>
		<g>
			<g>
				<g>
					<g>
						<polygon class="st0" points="1223.8,1952.1 1062.8,1772.9 1062.8,1727.6 1223.8,1548.4 1544.9,1548.4 1705.9,1727.6 
							1705.9,1772.9 1544.9,1952.1 						"/>
					</g>
				</g>
				<g>
					<g>
						<path class="st1" d="M1543.2,1552.4l158.8,176.8v42.2l-158.8,176.8h-317.6l-158.8-176.8v-42.2l158.8-176.8H1543.2
							 M1546.8,1544.4h-3.6h-317.6h-3.5l-2.4,2.7l-158.8,176.8l-2,2.3v3.1v42.2v3.1l2,2.3l158.8,176.8l2.4,2.7h3.5h317.6h3.5
							l2.4-2.7l158.8-176.8l2.1-2.3v-3.1v-42.2v-3.1l-2.1-2.3l-158.8-176.8L1546.8,1544.4L1546.8,1544.4z"/>
					</g>
				</g>
			</g>
			<g>
				<path class="st1" d="M1543.2,1552.4l158.8,176.8v42.2l-158.8,176.8h-317.6l-158.8-176.8v-42.2l158.8-176.8H1543.2
					 M1544.9,1548.4h-1.8h-317.5h-1.8l-1.2,1.3l-158.8,176.8l-1,1.2v1.6v42.2v1.6l1,1.2l158.8,176.8l1.2,1.3h1.8h317.6h1.8l1.2-1.3
					l158.8-176.8l1-1.2v-1.6v-42.2v-1.6l-1-1.2l-158.8-176.8L1544.9,1548.4L1544.9,1548.4z"/>
			</g>
			<g>
				<line class="st2" x1="1384.5" y1="1750.3" x2="1384.5" y2="1750.3"/>
				<path class="st1" d="M1384.5,1750.3"/>
			</g>
			<g>
				<g>
					<line class="st2" x1="1384.5" y1="1750.3" x2="1384.5" y2="1750.3"/>
					<path class="st1" d="M1384.5,1750.3"/>
				</g>
			</g>
			<g>
				<g>
					<path class="st0" d="M1224.8,1908l-160.6-178.8l160.6-178.8h319.4l160.6,178.8L1544.2,1908H1224.8z M1530.2,1876.9l132.5-147.6
						l-132.5-147.6h-291.5l-132.5,147.6l132.5,147.6H1530.2z"/>
				</g>
				<g>
					<path class="st1" d="M1543.3,1552.4l158.8,176.8L1543.3,1906h-317.6l-158.8-176.8l158.8-176.8H1543.3 M1237.8,1878.9h293.3
						l134.3-149.6l-134.3-149.6h-293.3l-134.3,149.6L1237.8,1878.9 M1545.1,1548.4h-1.8h-317.6h-1.8l-1.2,1.3l-158.8,176.8l-2.4,2.7
						l2.4,2.7l158.8,176.8l1.2,1.3h1.8h317.6h1.8l1.2-1.3l158.8-176.8l2.4-2.7l-2.4-2.7l-158.8-176.8L1545.1,1548.4L1545.1,1548.4z
						 M1239.6,1583.8h289.7l130.8,145.6l-130.8,145.6h-289.7l-130.8-145.6L1239.6,1583.8L1239.6,1583.8z"/>
				</g>
			</g>
			<g>
				<g>
					<rect x="1223.1" y="1907.3" class="st1" width="4" height="42.2"/>
				</g>
				<g>
					<rect x="1541.7" y="1907.3" class="st1" width="4" height="42.2"/>
				</g>
			</g>
		</g>
	</g>
	<g>
		<g>
			<g>
				<g>
					<g>
						<polygon class="st0" points="2309.8,1952.1 2148.8,1772.9 2148.8,1727.6 2309.8,1548.4 2630.9,1548.4 2791.9,1727.6 
							2791.9,1772.9 2630.9,1952.1 						"/>
					</g>
				</g>
				<g>
					<g>
						<path class="st1" d="M2629.2,1552.4l158.8,176.8v42.2l-158.8,176.8h-317.6l0,0l-158.8-176.8v-42.2l158.8-176.8H2629.2
							 M2632.8,1544.4h-3.6h-317.6h-3.6l-2.4,2.7l-158.8,176.8l-2.1,2.3v3.1v42.2v3.1l2.1,2.3l158.8,176.8l2.4,2.7h3.6h317.6h3.6
							l2.4-2.7l158.8-176.8l2.1-2.3v-3.1v-42.2v-3.1l-2.1-2.3l-158.8-176.8L2632.8,1544.4L2632.8,1544.4z"/>
					</g>
				</g>
			</g>
			<g>
				<path class="st1" d="M2629.2,1552.4l158.8,176.8v42.2l-158.8,176.8h-317.6l-158.8-176.8v-42.2l158.8-176.8H2629.2
					 M2630.9,1548.4h-1.8h-317.6h-1.8l-1.2,1.3l-158.8,176.8l-1,1.2v1.6v42.2v1.6l1,1.2l158.8,176.8l1.2,1.3h1.8h317.6h1.8l1.2-1.3
					l158.8-176.8l1-1.2v-1.6v-42.2v-1.6l-1-1.2l-158.8-176.8L2630.9,1548.4L2630.9,1548.4z"/>
			</g>
			<g>
				<line class="st2" x1="2470.5" y1="1750.3" x2="2470.5" y2="1750.3"/>
				<path class="st1" d="M2470.5,1750.3"/>
			</g>
			<g>
				<g>
					<line class="st2" x1="2470.5" y1="1750.3" x2="2470.5" y2="1750.3"/>
					<path class="st1" d="M2470.5,1750.3"/>
				</g>
			</g>
			<g>
				<g>
					<path class="st0" d="M2310.8,1908l-160.6-178.8l160.6-178.8h319.4l160.6,178.8L2630.2,1908H2310.8z M2616.2,1876.9l132.5-147.6
						l-132.5-147.6h-291.5l-132.5,147.6l132.5,147.6H2616.2z"/>
				</g>
				<g>
					<path class="st1" d="M2629.3,1552.4l158.8,176.8L2629.3,1906h-317.6l-158.8-176.8l158.8-176.8H2629.3 M2323.8,1878.9h293.3
						l134.3-149.6l-134.3-149.6h-293.3l-134.3,149.6L2323.8,1878.9 M2631.1,1548.4h-1.8h-317.6h-1.8l-1.2,1.3l-158.8,176.8l-2.4,2.7
						l2.4,2.7l158.8,176.8l1.2,1.3h1.8h317.6h1.8l1.2-1.3l158.8-176.8l2.4-2.7l-2.4-2.7l-158.8-176.8L2631.1,1548.4L2631.1,1548.4z
						 M2325.6,1583.8h289.7l130.8,145.6l-130.8,145.6h-289.7l-130.8-145.6L2325.6,1583.8L2325.6,1583.8z"/>
				</g>
			</g>
			<g>
				<g>
					<rect x="2309.1" y="1907.3" class="st1" width="4" height="42.2"/>
				</g>
				<g>
					<rect x="2627.6" y="1907.3" class="st1" width="4" height="42.2"/>
				</g>
			</g>
		</g>
	</g>
	<g>
		<path class="st1" d="M1347.4,1707.1c-1.3,1.4-2.9,3.3-4.8,5.6c-1.9,2.3-3.8,4.8-5.8,7.5s-4,5.5-5.9,8.3c-2,2.8-3.7,5.6-5.2,8.2
			h22.3v6.4h-31.5v-4.8c0.8-1.5,1.8-3.1,2.8-4.8c1.1-1.8,2.2-3.6,3.4-5.3c1.2-1.8,2.5-3.7,3.8-5.6c1.3-1.9,2.6-3.7,3.8-5.4
			c1.3-1.8,2.6-3.4,3.8-5c1.2-1.6,2.4-3,3.5-4.2h-20v-6.4h29.8L1347.4,1707.1L1347.4,1707.1z"/>
		<path class="st1" d="M1382.2,1727.4c0,2.5-0.3,4.8-1.1,6.8s-1.8,3.8-3,5.2c-1.3,1.4-2.9,2.6-4.8,3.3c-1.9,0.8-3.9,1.2-6.2,1.2
			s-4.3-0.4-6.1-1.2c-1.9-0.8-3.4-1.9-4.8-3.3c-1.3-1.4-2.4-3.2-3.1-5.2c-0.8-2.1-1.1-4.3-1.1-6.8s0.3-4.8,1.1-6.8s1.8-3.8,3.1-5.2
			c1.3-1.4,2.9-2.6,4.8-3.3c1.8-0.8,3.8-1.2,6-1.2c2.2,0,4.2,0.4,6.1,1.2c1.9,0.8,3.5,1.9,4.8,3.3c1.3,1.4,2.4,3.2,3.1,5.2
			C1381.8,1722.6,1382.2,1724.9,1382.2,1727.4z M1374.8,1727.4c0-3.1-0.7-5.6-2-7.4s-3.2-2.8-5.6-2.8s-4.2,0.9-5.6,2.8
			c-1.3,1.8-2,4.3-2,7.4c0,3.2,0.7,5.7,2,7.5s3.2,2.8,5.6,2.8s4.2-0.9,5.6-2.8C1374.1,1733,1374.8,1730.5,1374.8,1727.4z"/>
		<path class="st1" d="M1389.7,1712.7c1.4-0.4,3.2-0.8,5.5-1.2s4.7-0.6,7.4-0.6c2.6,0,4.7,0.3,6.4,1.1c1.7,0.7,3.1,1.7,4.1,2.9
			s1.8,2.8,2.2,4.6c0.4,1.8,0.7,3.8,0.7,5.8v17.7h-7.2v-16.5c0-1.7-0.1-3.1-0.3-4.3c-0.2-1.2-0.6-2.2-1.1-2.9s-1.2-1.3-2-1.6
			c-0.8-0.3-1.9-0.5-3.2-0.5c-0.9,0-1.9,0.1-2.9,0.2c-1,0.1-1.8,0.2-2.2,0.3v25.3h-7.2L1389.7,1712.7L1389.7,1712.7z"/>
		<path class="st1" d="M1423.1,1727.5c0-2.8,0.4-5.2,1.2-7.2c0.8-2.1,1.9-3.8,3.2-5.2c1.3-1.4,2.9-2.4,4.7-3.1
			c1.8-0.7,3.5-1.1,5.4-1.1c4.3,0,7.7,1.3,10.1,4c2.4,2.7,3.6,6.7,3.6,12c0,0.4,0,0.8,0,1.3c0,0.5-0.1,0.9-0.1,1.3h-20.7
			c0.2,2.5,1.1,4.4,2.7,5.8c1.6,1.4,3.8,2.1,6.8,2.1c1.8,0,3.3-0.2,4.8-0.5c1.5-0.3,2.6-0.7,3.5-1l0.9,5.9c-0.4,0.2-0.9,0.4-1.7,0.7
			c-0.7,0.2-1.5,0.4-2.4,0.6c-0.9,0.2-1.9,0.3-2.9,0.4s-2.1,0.2-3.2,0.2c-2.8,0-5.1-0.4-7.2-1.2c-2.1-0.8-3.7-1.9-5.1-3.4
			c-1.3-1.4-2.3-3.2-2.9-5.2C1423.4,1732.1,1423.1,1729.9,1423.1,1727.5z M1444.1,1724.3c0-1-0.1-1.9-0.4-2.8
			c-0.3-0.9-0.7-1.7-1.2-2.3c-0.6-0.7-1.2-1.2-2-1.6c-0.8-0.4-1.7-0.6-2.8-0.6s-2.1,0.2-2.9,0.7c-0.9,0.4-1.6,0.9-2.2,1.7
			c-0.6,0.7-1,1.4-1.3,2.3s-0.6,1.8-0.7,2.7L1444.1,1724.3L1444.1,1724.3z"/>
	</g>
	<g>
		<path class="st1" d="M309.6,770.6V729h26.7v6.4h-19.2v10.2h17v6.3h-17v12.2h20.6v6.4L309.6,770.6L309.6,770.6z"/>
		<path class="st1" d="M343.3,730.9l7.2-1.2v9.5h11.2v6.1h-11.2V758c0,2.5,0.4,4.3,1.2,5.4c0.8,1.1,2.2,1.6,4.1,1.6
			c1.3,0,2.5-0.2,3.5-0.4c1-0.3,1.8-0.5,2.5-0.8l1.2,5.8c-0.8,0.4-2,0.8-3.3,1.1c-1.3,0.4-3,0.5-4.8,0.5c-2.2,0-4.1-0.3-5.6-0.9
			c-1.5-0.6-2.7-1.5-3.5-2.6c-0.9-1.2-1.5-2.5-1.8-4.2c-0.3-1.6-0.5-3.5-0.5-5.5L343.3,730.9L343.3,730.9z"/>
		<path class="st1" d="M368.8,770.6v-45.3l7.2-1.2v15.5c0.8-0.3,1.8-0.5,2.8-0.7c1-0.2,2.1-0.3,3.2-0.3c2.5,0,4.6,0.4,6.2,1
			c1.7,0.7,3,1.7,4,3s1.7,2.8,2.2,4.5c0.4,1.8,0.7,3.7,0.7,5.9v17.7h-7.2v-16.5c0-1.7-0.1-3.1-0.3-4.3c-0.2-1.2-0.6-2.1-1.1-2.9
			s-1.2-1.3-2-1.6c-0.8-0.3-1.9-0.5-3.1-0.5c-1,0-2,0.1-3,0.3c-1,0.2-1.8,0.4-2.2,0.5v25h-7.3V770.6z"/>
		<path class="st1" d="M401.9,755c0-2.8,0.4-5.2,1.2-7.2c0.8-2.1,1.9-3.8,3.2-5.2s2.9-2.4,4.7-3.1c1.8-0.7,3.5-1,5.4-1
			c4.3,0,7.7,1.4,10.1,4c2.4,2.7,3.7,6.7,3.7,12c0,0.4,0,0.9,0,1.4c0,0.5,0,0.9-0.1,1.3h-20.7c0.2,2.5,1.1,4.5,2.7,5.9
			c1.6,1.4,3.8,2,6.8,2c1.8,0,3.3-0.2,4.8-0.5c1.5-0.3,2.6-0.7,3.5-1l1,6c-0.4,0.2-1,0.4-1.7,0.6c-0.7,0.2-1.5,0.4-2.4,0.6
			s-1.8,0.3-2.9,0.5c-1,0.1-2.1,0.2-3.2,0.2c-2.8,0-5.2-0.4-7.2-1.2c-2-0.8-3.7-1.9-5-3.4c-1.3-1.5-2.3-3.2-3-5.2
			C402.3,759.6,401.9,757.4,401.9,755z M423,751.8c0-1-0.2-2-0.4-2.9c-0.3-0.9-0.7-1.7-1.2-2.3c-0.5-0.7-1.2-1.2-2-1.5
			c-0.8-0.4-1.7-0.6-2.8-0.6s-2.1,0.2-3,0.7c-0.8,0.4-1.5,0.9-2.2,1.6c-0.6,0.7-1,1.5-1.3,2.4c-0.3,0.9-0.5,1.8-0.7,2.7L423,751.8
			L423,751.8z"/>
		<path class="st1" d="M455.8,745.7c-0.6-0.2-1.5-0.4-2.5-0.6c-1-0.2-2.3-0.4-3.7-0.4c-0.8,0-1.6,0.1-2.6,0.2
			c-0.9,0.2-1.5,0.3-1.9,0.4v25.2h-7.2v-29.9c1.4-0.5,3.2-1,5.2-1.5s4.5-0.7,7-0.7c0.5,0,1,0.1,1.7,0.1c0.6,0,1.3,0.1,1.9,0.2
			c0.6,0.1,1.2,0.2,1.9,0.4c0.6,0.1,1.1,0.2,1.5,0.4L455.8,745.7z"/>
		<path class="st1" d="M460.4,755c0-2.8,0.4-5.2,1.2-7.2c0.8-2.1,1.9-3.8,3.2-5.2s2.9-2.4,4.7-3.1c1.8-0.7,3.5-1,5.4-1
			c4.3,0,7.7,1.4,10.1,4c2.4,2.7,3.6,6.7,3.6,12c0,0.4,0,0.9,0,1.4c0,0.5,0,0.9-0.1,1.3h-20.7c0.2,2.5,1.1,4.5,2.6,5.9
			c1.6,1.4,3.9,2,6.9,2c1.8,0,3.4-0.2,4.9-0.5c1.5-0.3,2.6-0.7,3.5-1l1,6c-0.4,0.2-1,0.4-1.6,0.6c-0.7,0.2-1.5,0.4-2.4,0.6
			s-1.9,0.3-2.9,0.5c-1,0.1-2.1,0.2-3.2,0.2c-2.8,0-5.1-0.4-7.2-1.2c-2-0.8-3.7-1.9-5-3.4c-1.3-1.5-2.3-3.2-3-5.2
			C460.7,759.6,460.4,757.4,460.4,755z M481.4,751.8c0-1-0.1-2-0.4-2.9c-0.3-0.9-0.7-1.7-1.2-2.3c-0.5-0.7-1.2-1.2-2-1.5
			c-0.8-0.4-1.7-0.6-2.8-0.6c-1.1,0-2.1,0.2-3,0.7c-0.9,0.4-1.5,0.9-2.1,1.6s-1,1.5-1.4,2.4c-0.3,0.9-0.5,1.8-0.6,2.7L481.4,751.8
			L481.4,751.8z"/>
		<path class="st1" d="M522.1,769.6c-1.4,0.4-3.2,0.8-5.5,1.1c-2.2,0.4-4.7,0.5-7.4,0.5c-2.5,0-4.6-0.3-6.4-1.1
			c-1.7-0.7-3-1.7-4.1-3c-1-1.3-1.8-2.8-2.2-4.6s-0.6-3.8-0.6-5.9v-17.6h7.2v16.5c0,3.3,0.5,5.8,1.5,7.2c1,1.4,2.7,2.1,5.1,2.1
			c0.9,0,1.8,0,2.8-0.1c1-0.1,1.7-0.2,2.2-0.3v-25.4h7.2L522.1,769.6L522.1,769.6z"/>
		<path class="st1" d="M549.2,754.1c0-3.3-0.4-5.6-1.2-7.1c-0.8-1.4-2.4-2.2-4.6-2.2c-0.8,0-1.7,0-2.6,0.2c-1,0.1-1.7,0.2-2.2,0.3
			v25.3h-7.2v-30.4c1.4-0.4,3.2-0.8,5.5-1.1c2.2-0.4,4.7-0.5,7.2-0.5c2.1,0,3.9,0.3,5.3,0.8c1.4,0.6,2.6,1.3,3.5,2.2
			c0.4-0.3,1-0.6,1.7-1c0.7-0.4,1.5-0.7,2.3-1s1.8-0.5,2.6-0.8c1-0.2,1.9-0.3,2.9-0.3c2.4,0,4.4,0.3,6,1c1.6,0.7,2.8,1.7,3.7,3
			s1.5,2.8,1.8,4.5c0.3,1.8,0.5,3.8,0.5,5.9v17.6h-7.2v-16.5c0-3.3-0.4-5.6-1.2-7.1c-0.8-1.4-2.4-2.2-4.6-2.2
			c-1.1,0-2.2,0.2-3.3,0.5c-1.1,0.4-1.8,0.8-2.4,1.1c0.3,1,0.5,2,0.6,3.2c0.1,1.1,0.2,2.3,0.2,3.6v17.3h-7.2V754.1z"/>
	</g>
	<g>
		<path class="st4" d="M361.3,1421.1c-2.2,0-4.4,0-6.7-0.2s-4.2-0.5-5.9-0.8v-40.4c0.9-0.2,1.8-0.3,2.8-0.5s2-0.2,3-0.3
			s2-0.2,3.1-0.2c1-0.1,2-0.1,2.9-0.1c2.5,0,4.8,0.2,7,0.6c2.2,0.4,4,1,5.6,1.9c1.6,0.9,2.8,2,3.7,3.5c0.9,1.4,1.3,3.2,1.3,5.3
			c0,1.9-0.5,3.7-1.4,5c-1,1.4-2.2,2.5-4,3.3c2.5,0.8,4.4,2.1,5.6,3.7c1.2,1.7,1.8,3.7,1.8,6.2c0,4.3-1.5,7.5-4.7,9.7
			C372.6,1420,367.8,1421.1,361.3,1421.1z M356.2,1395.9h5.3c2.9,0,5.2-0.4,6.8-1.2c1.7-0.8,2.5-2.3,2.5-4.4c0-2-0.8-3.4-2.5-4.2
			s-3.9-1.2-6.7-1.2c-1.2,0-2.2,0-3.1,0c-0.9,0.1-1.7,0.1-2.3,0.2V1395.9z M356.2,1401.9v12.7c0.8,0.1,1.8,0.2,2.7,0.2
			c1,0.1,1.8,0.1,2.7,0.1c1.5,0,3-0.1,4.3-0.3c1.3-0.2,2.5-0.5,3.5-1s1.8-1.2,2.3-2s0.8-1.9,0.8-3.2c0-2.3-0.8-4-2.6-4.9
			c-1.7-0.9-4.1-1.4-7.2-1.4H356.2z"/>
		<path class="st4" d="M396,1380c0,1.3-0.5,2.4-1.3,3.2c-0.9,0.8-1.9,1.2-3.1,1.2c-1.2,0-2.3-0.4-3.2-1.2c-0.9-0.8-1.3-1.9-1.3-3.2
			c0-1.4,0.5-2.5,1.3-3.3c0.9-0.8,2-1.2,3.2-1.2c1.2,0,2.2,0.4,3.1,1.2C395.5,1377.5,396,1378.6,396,1380z M395.2,1420.6h-7.2v-31.4
			h7.2V1420.6z"/>
		<path class="st4" d="M404.1,1380.9l7.2-1.2v9.5h11.2v6.1h-11.2v12.8c0,2.5,0.4,4.3,1.2,5.4s2.2,1.6,4.1,1.6c1.3,0,2.5-0.2,3.5-0.4
			c1-0.3,1.8-0.5,2.5-0.8l1.2,5.8c-0.8,0.3-2,0.8-3.3,1.1c-1.3,0.4-3,0.5-4.8,0.5c-2.2,0-4.1-0.3-5.6-0.9c-1.5-0.6-2.7-1.4-3.5-2.6
			c-0.9-1.2-1.5-2.5-1.8-4.2c-0.3-1.6-0.5-3.4-0.5-5.5L404.1,1380.9L404.1,1380.9z"/>
		<path class="st4" d="M427.1,1404.9c0-2.3,0.3-4.5,1.1-6.5c0.7-2,1.8-3.8,3.1-5.2s3-2.7,4.9-3.5c1.9-0.8,4.1-1.2,6.5-1.2
			c3,0,5.8,0.5,8.4,1.6l-1.5,5.9c-0.9-0.3-1.8-0.7-2.9-0.9s-2.2-0.3-3.4-0.3c-2.8,0-5,0.9-6.5,2.7c-1.5,1.8-2.2,4.3-2.2,7.6
			c0,3.1,0.7,5.6,2.1,7.4c1.4,1.8,3.8,2.8,7.1,2.8c1.2,0,2.5-0.1,3.7-0.3s2.2-0.6,3.1-0.9l1,6c-0.8,0.4-2,0.8-3.6,1.1
			c-1.6,0.3-3.3,0.5-5,0.5c-2.7,0-5-0.4-7-1.2c-2-0.8-3.6-2-4.9-3.4c-1.3-1.5-2.2-3.2-2.9-5.2
			C427.4,1409.5,427.1,1407.3,427.1,1404.9z"/>
		<path class="st4" d="M484.9,1404.9c0,2.5-0.4,4.8-1.1,6.8c-0.7,2.1-1.8,3.8-3,5.2c-1.3,1.4-2.9,2.5-4.8,3.3
			c-1.9,0.8-3.9,1.2-6.1,1.2s-4.3-0.4-6.1-1.2c-1.9-0.8-3.4-1.9-4.8-3.3c-1.3-1.5-2.4-3.2-3.1-5.2c-0.8-2-1.1-4.3-1.1-6.8
			s0.4-4.8,1.1-6.8s1.8-3.8,3.1-5.2c1.4-1.4,3-2.5,4.8-3.3c1.9-0.8,3.9-1.2,6-1.2c2.2,0,4.2,0.4,6.1,1.2c1.9,0.8,3.5,1.9,4.8,3.3
			c1.3,1.5,2.4,3.2,3.1,5.2C484.5,1400.1,484.9,1402.4,484.9,1404.9z M477.4,1404.9c0-3.1-0.6-5.6-2-7.4s-3.2-2.8-5.6-2.8
			s-4.2,0.9-5.6,2.8c-1.4,1.8-2,4.3-2,7.4c0,3.2,0.6,5.7,2,7.5s3.2,2.8,5.6,2.8s4.2-0.9,5.6-2.8
			C476.8,1410.5,477.4,1408,477.4,1404.9z"/>
		<path class="st4" d="M500.5,1380c0,1.3-0.5,2.4-1.3,3.2c-0.9,0.8-1.9,1.2-3.1,1.2c-1.2,0-2.3-0.4-3.2-1.2
			c-0.9-0.8-1.3-1.9-1.3-3.2c0-1.4,0.5-2.5,1.3-3.3c0.9-0.8,2-1.2,3.2-1.2c1.2,0,2.2,0.4,3.1,1.2
			C500,1377.5,500.5,1378.6,500.5,1380z M499.7,1420.6h-7.2v-31.4h7.2V1420.6z"/>
		<path class="st4" d="M508.9,1390.2c1.4-0.4,3.2-0.8,5.5-1.2c2.2-0.3,4.7-0.5,7.4-0.5c2.6,0,4.7,0.3,6.4,1c1.7,0.7,3.1,1.7,4.1,3
			s1.8,2.8,2.2,4.5c0.4,1.8,0.7,3.8,0.7,5.8v17.7h-7.2v-16.5c0-1.7-0.1-3.1-0.4-4.3c-0.2-1.2-0.6-2.2-1.1-2.9s-1.2-1.3-2-1.6
			c-0.9-0.3-1.9-0.5-3.2-0.5c-0.9,0-1.9,0-2.9,0.2c-1,0.1-1.8,0.2-2.2,0.3v25.3h-7.3L508.9,1390.2L508.9,1390.2z"/>
	</g>
	<g>
		<path class="st1" d="M2433.4,366.6c-1.3,1.5-2.9,3.3-4.8,5.6c-1.9,2.3-3.8,4.8-5.8,7.5s-3.9,5.5-5.9,8.4s-3.7,5.5-5.2,8.1h22.3
			v6.4h-31.4v-4.8c0.8-1.5,1.8-3.1,2.8-4.9s2.2-3.6,3.4-5.4c1.2-1.9,2.4-3.7,3.8-5.6s2.6-3.7,3.8-5.4c1.3-1.8,2.6-3.4,3.8-5
			c1.2-1.6,2.4-3,3.4-4.2h-20v-6.4h29.8L2433.4,366.6L2433.4,366.6z"/>
		<path class="st1" d="M2468.2,386.9c0,2.5-0.4,4.8-1.1,6.8c-0.7,2.1-1.8,3.8-3.1,5.2c-1.3,1.5-2.9,2.6-4.8,3.4
			c-1.8,0.8-3.9,1.2-6.1,1.2s-4.3-0.4-6.1-1.2c-1.8-0.8-3.4-1.9-4.8-3.4c-1.3-1.4-2.3-3.2-3.1-5.2c-0.8-2.1-1.1-4.3-1.1-6.8
			s0.4-4.8,1.1-6.8s1.8-3.8,3.1-5.2c1.4-1.4,2.9-2.6,4.8-3.4s3.9-1.1,6.1-1.1s4.2,0.4,6.1,1.1c1.8,0.8,3.4,1.9,4.8,3.4
			c1.3,1.4,2.3,3.1,3.1,5.2C2467.8,382.1,2468.2,384.4,2468.2,386.9z M2460.8,386.9c0-3.1-0.7-5.6-2-7.4c-1.4-1.8-3.2-2.8-5.6-2.8
			c-2.4,0-4.2,0.9-5.6,2.8c-1.4,1.8-2,4.3-2,7.4c0,3.2,0.6,5.7,2,7.5c1.3,1.9,3.2,2.8,5.6,2.8c2.4,0,4.2-0.9,5.6-2.8
			C2460.1,392.5,2460.8,390,2460.8,386.9z"/>
		<path class="st1" d="M2475.7,372.2c1.4-0.4,3.2-0.8,5.4-1.1c2.2-0.4,4.7-0.5,7.4-0.5c2.6,0,4.7,0.3,6.4,1s3.1,1.7,4.1,3
			s1.8,2.8,2.1,4.5c0.4,1.8,0.7,3.8,0.7,5.9v17.6h-7.2v-16.5c0-1.7-0.1-3.1-0.4-4.3c-0.2-1.2-0.6-2.2-1.1-2.9s-1.2-1.3-2.1-1.6
			c-0.9-0.4-1.9-0.5-3.2-0.5c-0.9,0-1.9,0-2.9,0.2c-1,0.1-1.8,0.2-2.2,0.3v25.3h-7.2L2475.7,372.2L2475.7,372.2z"/>
		<path class="st1" d="M2509.1,387c0-2.8,0.4-5.2,1.2-7.2c0.8-2.1,1.9-3.8,3.2-5.2c1.4-1.4,2.9-2.4,4.7-3.1c1.8-0.7,3.6-1.1,5.4-1.1
			c4.3,0,7.7,1.4,10.1,4c2.4,2.7,3.7,6.7,3.7,12c0,0.4,0,0.9-0.1,1.4c0,0.5-0.1,0.9-0.1,1.3h-20.7c0.2,2.5,1.1,4.5,2.7,5.9
			c1.6,1.4,3.8,2,6.8,2c1.8,0,3.4-0.1,4.9-0.5c1.4-0.3,2.6-0.6,3.4-1l0.9,6c-0.4,0.2-0.9,0.4-1.7,0.6c-0.7,0.2-1.5,0.4-2.4,0.6
			c-0.9,0.2-1.9,0.3-2.9,0.4s-2.1,0.2-3.2,0.2c-2.8,0-5.1-0.4-7.2-1.2c-2.1-0.8-3.7-1.9-5.1-3.4c-1.3-1.5-2.3-3.2-2.9-5.2
			C2509.4,391.6,2509.1,389.4,2509.1,387z M2530.1,383.8c0-1-0.1-2-0.4-2.9c-0.3-0.9-0.7-1.7-1.2-2.3c-0.6-0.7-1.2-1.2-2-1.6
			c-0.8-0.4-1.7-0.6-2.8-0.6s-2.1,0.2-2.9,0.7c-0.9,0.4-1.6,0.9-2.2,1.6c-0.6,0.7-1.1,1.5-1.3,2.4c-0.3,0.9-0.6,1.8-0.7,2.7
			L2530.1,383.8L2530.1,383.8z"/>
	</g>
	<g>
		<path class="st1" d="M2433.4,1707.1c-1.3,1.4-2.9,3.3-4.8,5.6c-1.9,2.3-3.8,4.8-5.8,7.5s-3.9,5.5-5.9,8.3s-3.7,5.6-5.2,8.2h22.3
			v6.4h-31.4v-4.8c0.8-1.5,1.8-3.1,2.8-4.8s2.2-3.6,3.4-5.3c1.2-1.8,2.4-3.7,3.8-5.6s2.6-3.7,3.8-5.4c1.3-1.8,2.6-3.4,3.8-5
			s2.4-3,3.4-4.2h-20v-6.4h29.8L2433.4,1707.1L2433.4,1707.1z"/>
		<path class="st1" d="M2468.2,1727.4c0,2.5-0.4,4.8-1.1,6.8c-0.7,2.1-1.8,3.8-3.1,5.2c-1.3,1.4-2.9,2.6-4.8,3.3
			c-1.8,0.8-3.9,1.2-6.1,1.2s-4.3-0.4-6.1-1.2c-1.8-0.8-3.4-1.9-4.8-3.3c-1.3-1.4-2.3-3.2-3.1-5.2c-0.8-2.1-1.1-4.3-1.1-6.8
			s0.4-4.8,1.1-6.8s1.8-3.8,3.1-5.2c1.4-1.4,2.9-2.6,4.8-3.3c1.9-0.8,3.9-1.2,6.1-1.2s4.2,0.4,6.1,1.2c1.8,0.8,3.4,1.9,4.8,3.3
			s2.3,3.2,3.1,5.2C2467.8,1722.6,2468.2,1724.9,2468.2,1727.4z M2460.8,1727.4c0-3.1-0.7-5.6-2-7.4c-1.4-1.8-3.2-2.8-5.6-2.8
			c-2.4,0-4.2,0.9-5.6,2.8c-1.4,1.8-2,4.3-2,7.4c0,3.2,0.6,5.7,2,7.5c1.3,1.8,3.2,2.8,5.6,2.8c2.4,0,4.2-0.9,5.6-2.8
			C2460.1,1733,2460.8,1730.5,2460.8,1727.4z"/>
		<path class="st1" d="M2475.7,1712.7c1.4-0.4,3.2-0.8,5.4-1.2s4.7-0.6,7.4-0.6c2.6,0,4.7,0.3,6.4,1.1c1.7,0.7,3.1,1.7,4.1,2.9
			s1.8,2.8,2.1,4.6c0.4,1.8,0.7,3.8,0.7,5.8v17.7h-7.2v-16.5c0-1.7-0.1-3.1-0.4-4.3c-0.2-1.2-0.6-2.2-1.1-2.9s-1.2-1.3-2.1-1.6
			c-0.9-0.3-1.9-0.5-3.2-0.5c-0.9,0-1.9,0.1-2.9,0.2c-1,0.1-1.8,0.2-2.2,0.3v25.3h-7.2L2475.7,1712.7L2475.7,1712.7z"/>
		<path class="st1" d="M2509.1,1727.5c0-2.8,0.4-5.2,1.2-7.2c0.8-2.1,1.9-3.8,3.2-5.2c1.4-1.4,2.9-2.4,4.7-3.1
			c1.8-0.7,3.6-1.1,5.4-1.1c4.3,0,7.7,1.3,10.1,4c2.4,2.7,3.7,6.7,3.7,12c0,0.4,0,0.8-0.1,1.3c0,0.5-0.1,0.9-0.1,1.3h-20.7
			c0.2,2.5,1.1,4.4,2.7,5.8c1.6,1.4,3.8,2.1,6.8,2.1c1.8,0,3.4-0.2,4.9-0.5c1.4-0.3,2.6-0.7,3.4-1l0.9,5.9c-0.4,0.2-0.9,0.4-1.7,0.7
			c-0.7,0.2-1.5,0.4-2.4,0.6c-0.9,0.2-1.9,0.3-2.9,0.4s-2.1,0.2-3.2,0.2c-2.8,0-5.1-0.4-7.2-1.2c-2.1-0.8-3.7-1.9-5.1-3.4
			c-1.3-1.4-2.3-3.2-2.9-5.2C2509.4,1732.1,2509.1,1729.9,2509.1,1727.5z M2530.1,1724.3c0-1-0.1-1.9-0.4-2.8
			c-0.3-0.9-0.7-1.7-1.2-2.3s-1.2-1.2-2-1.6c-0.8-0.4-1.7-0.6-2.8-0.6s-2.1,0.2-2.9,0.7c-0.9,0.4-1.6,0.9-2.2,1.7
			c-0.6,0.7-1.1,1.4-1.3,2.3c-0.3,0.9-0.6,1.8-0.7,2.7L2530.1,1724.3L2530.1,1724.3z"/>
	</g>
</g>
</svg>
