<?xml version="1.0" encoding="utf-8"?>
<!-- Generator: Adobe Illustrator 22.1.0, SVG Export Plug-In . SVG Version: 6.00 Build 0)  -->
<svg version="1.1" xmlns="http://www.w3.org/2000/svg" xmlns:xlink="http://www.w3.org/1999/xlink" x="0px" y="0px"
	 viewBox="0 0 3840 2160" style="enable-background:new 0 0 3840 2160;" xml:space="preserve">
<style type="text/css">
	.st0{opacity:0.2;}
	.st1{fill:#FFFFFF;}
	.st2{fill:#0BA833;}
	.st3{fill:#CCCCCC;}
	.st4{opacity:0.1;}
	.st5{fill:#14932F;}
	.st6{fill:none;stroke:#0BA833;stroke-width:4;stroke-miterlimit:10;}
	.st7{fill:#3232CC;}
	.st8{fill:#6FD89E;}
	.st9{fill-rule:evenodd;clip-rule:evenodd;fill:#3232CC;}
	.st10{fill:none;stroke:#000000;stroke-width:2;stroke-miterlimit:10;}
	.st11{font-family:sans-serif;}
	.st12{font-size:72px;}
</style>
<g id="Layer_1">
	<g class="st0">
		<polygon class="st1" points="1338.6,1578.8 1538.7,1356.1 1540.5,1354.1 1543.1,1354.1 2138.6,1354.1 2141.3,1354.1 
			2143.1,1356.1 2343.1,1578.8 2358.4,1578.8 2358.4,1577.8 2113.2,1304.7 1568.6,1304.7 1324.2,1576.8 1324.2,1578.8 		"/>
		<path class="st1" d="M1736.6,1517.8c-12,3.2-23.6,7-34.7,11.3c2.8-26.1,14.6-51.6,34.7-74.4c12.1-13.8,27.1-26.4,44.4-37.4h-212.4
			l-145.2,161.6h206.1c7.3-6.3,15.3-12.3,24-17.9c50.2-32.8,116.9-50.8,187.8-50.8c33.7,0,67.1,4.1,98.2,12.1
			c1.6,7.8,2.1,15.6,1.7,23.5c-30.9-9.5-65.2-14.4-99.9-14.4c-66.3,0-126.4,18.3-169,47.6h35.6c-1.3-3.8-2.5-7.6-3.4-11.4
			c9.6-4.8,19.7-9.2,30.3-12.9c1.2,8.2,3.4,16.4,6.6,24.3h43.2c6.7-16.6,30.1-29,57.8-29c27.7,0,51.1,12.3,57.8,29h42.6
			c23.7-59.7-10.5-124.5-89.1-161.6h-22.3C1780.4,1441.2,1746.2,1477.7,1736.6,1517.8z"/>
		<path class="st1" d="M1842.3,1571c-9.4,0-17.7,3.1-22.6,7.8h45.2C1860,1574.1,1851.7,1571,1842.3,1571z"/>
		<path class="st1" d="M1976.1,1578.8h35.3c-7-4.8-14.5-9.4-22.5-13.6c1.8-8.3,2.6-16.7,2.6-25.1c24.2,10.8,45.2,23.8,62.4,38.7
			h204.4l-145.2-161.6h-209.5C1968.9,1459.3,1996.2,1520.8,1976.1,1578.8z"/>
		<path class="st1" d="M1565.9,1411.2h225c13.3-7.7,27.8-14.6,43.3-20.5l8.2-3.1l8.2,3.1c15.7,6,30.1,12.8,43.2,20.5h222
			l150.5,167.6h68.7l-196.4-218.7h-595.5l-196.4,218.7h68.7L1565.9,1411.2z"/>
		<path class="st1" d="M1853.6,1417.2c-2.2-1-4.3-2-6.6-3h-9.2c-2.2,1-4.4,2-6.6,3H1853.6z"/>
		<path class="st1" d="M2113.2,1417.2l145.2,161.6h4l-147.8-164.6h-215.6c1.6,1,3.2,2,4.8,3H2113.2z"/>
		<path class="st1" d="M1568.6,1417.2H1781c1.6-1,3.2-2,4.8-3h-218.6l-147.8,164.6h4L1568.6,1417.2z"/>
		<polygon class="st1" points="2140,1357.1 2339.1,1578.8 2343.1,1578.8 2143.1,1356.1 2141.3,1354.1 2138.6,1354.1 1543.1,1354.1 
			1540.5,1354.1 1538.7,1356.1 1338.6,1578.8 1342.7,1578.8 1541.8,1357.1 		"/>
		<polygon class="st1" points="1342.7,1578.8 1342.7,1578.8 1541.8,1357.1 		"/>
		<polygon class="st1" points="2339.1,1578.8 2339.1,1578.8 2140,1357.1 		"/>
		<path class="st1" d="M1842.4,1412.3c-1.5,0.6-3.1,1.3-4.6,2h9.2C1845.5,1413.6,1844,1412.9,1842.4,1412.3z"/>
		<path class="st1" d="M1567.2,1414.2h218.6c1.7-1,3.3-2,5.1-3h-225l-150.5,167.6h4L1567.2,1414.2z"/>
		<path class="st1" d="M1893.9,1411.2c1.7,1,3.4,2,5,3h215.6l147.8,164.6h4l-150.5-167.6H1893.9z"/>
		<polygon class="st1" points="2138.6,1360.1 2335.1,1578.8 2339.1,1578.8 2140,1357.1 1541.8,1357.1 1342.7,1578.8 1346.7,1578.8 
			1543.1,1360.1 		"/>
		<polygon class="st1" points="1565.9,1298.7 2115.9,1298.7 2358.4,1568.8 2358.4,1493.1 2138.6,1248.4 1543.1,1248.4 
			1324.2,1492.1 1324.2,1567.8 		"/>
		<polygon class="st2" points="1568.6,1304.7 2113.2,1304.7 2358.4,1577.8 2358.4,1573.3 2114.5,1301.7 1567.2,1301.7 
			1324.2,1572.3 1324.2,1576.8 		"/>
		<polygon class="st2" points="1567.2,1301.7 2114.5,1301.7 2358.4,1573.3 2358.4,1568.8 2115.9,1298.7 1565.9,1298.7 
			1324.2,1567.8 1324.2,1572.3 		"/>
		<polygon class="st2" points="1538.7,1243.6 1540.5,1241.6 1543.1,1241.6 2138.6,1241.6 2141.3,1241.6 2143.1,1243.6 
			2358.4,1483.3 2358.4,1475.1 2147.6,1240.4 2144,1236.4 2138.6,1236.4 1543.1,1236.4 1537.8,1236.4 1534.2,1240.4 1324.2,1474.1 
			1324.2,1482.4 		"/>
		<polygon class="st2" points="1543.1,1248.4 2138.6,1248.4 2358.4,1493.1 2358.4,1492.3 2138.6,1247.6 1543.1,1247.6 
			1324.2,1491.4 1324.2,1492.1 		"/>
		<polygon class="st2" points="2141.3,1241.6 2138.6,1241.6 1543.1,1241.6 1540.5,1241.6 1538.7,1243.6 1324.2,1482.4 
			1324.2,1486.9 1541.8,1244.6 2140,1244.6 2358.4,1487.8 2358.4,1483.3 2143.1,1243.6 		"/>
		<polygon class="st2" points="2358.4,1487.8 2140,1244.6 2358.4,1487.8 		"/>
		<polygon class="st2" points="1541.8,1244.6 1324.2,1486.9 1324.2,1486.9 		"/>
		<polygon class="st2" points="1324.2,1491.4 1543.1,1247.6 2138.6,1247.6 2358.4,1492.3 2358.4,1487.8 2140,1244.6 1541.8,1244.6 
			1324.2,1486.9 		"/>
		<path class="st2" d="M1841.3,1531.2c34.7,0,68.9,5,99.9,14.4c0.4-7.8-0.2-15.7-1.7-23.5c-31-7.9-64.4-12.1-98.2-12.1
			c-70.9,0-137.6,18-187.8,50.8c-8.7,5.7-16.7,11.7-24,17.9h42.8C1714.9,1549.5,1774.9,1531.2,1841.3,1531.2z"/>
		<path class="st2" d="M1991.6,1540.1c0.1,8.4-0.8,16.8-2.6,25.1c8,4.2,15.5,8.8,22.5,13.6h42.5
			C2036.8,1564,2015.8,1550.9,1991.6,1540.1z"/>
		<path class="st2" d="M1734.7,1554.5c-10.6,3.7-20.7,8.1-30.3,12.9c0.9,3.8,2.1,7.7,3.4,11.4h33.5
			C1738.1,1570.8,1735.9,1562.7,1734.7,1554.5z"/>
		<path class="st2" d="M1736.6,1454.7c-20.1,22.8-31.9,48.3-34.7,74.4c11.1-4.3,22.7-8.1,34.7-11.3c9.6-40.1,43.8-76.6,94.7-100.6
			H1781C1763.7,1428.3,1748.7,1440.9,1736.6,1454.7z"/>
		<path class="st2" d="M1942.7,1578.8h33.5c20-58-7.3-119.5-72.5-161.6h-50.1C1932.2,1454.3,1966.4,1519.1,1942.7,1578.8z"/>
		<path class="st2" d="M1850.7,1390.8l-8.2-3.1l-8.2,3.1c-15.5,5.9-30,12.8-43.3,20.5h103
			C1880.8,1403.6,1866.4,1396.7,1850.7,1390.8z"/>
		<path class="st2" d="M1853.6,1417.2h50.1c-1.6-1-3.2-2-4.8-3H1847C1849.2,1415.2,1851.4,1416.2,1853.6,1417.2z"/>
		<path class="st2" d="M1831.2,1417.2c2.2-1,4.4-2,6.6-3h-52c-1.6,1-3.2,2-4.8,3H1831.2z"/>
		<path class="st2" d="M1837.8,1414.2c1.5-0.7,3-1.3,4.6-2c1.5,0.6,3.1,1.3,4.6,2h51.9c-1.7-1-3.3-2-5-3h-103c-1.7,1-3.4,2-5.1,3
			H1837.8z"/>
		<path class="st2" d="M1842.3,1571c9.4,0,17.7,3.1,22.6,7.8h35.2c-6.7-16.6-30.1-29-57.8-29c-27.7,0-51.1,12.3-57.8,29h35.2
			C1824.5,1574.1,1832.9,1571,1842.3,1571z"/>
	</g>
	<g>
		<g>
			<g>
				<rect x="1236.4" y="754.6" class="st3" width="6" height="4.5"/>
			</g>
			<g>
				<path class="st3" d="M1242.4,1582.6h-6v-9h6V1582.6z M1242.4,1564.7h-6v-9h6V1564.7z M1242.4,1546.8h-6v-9h6V1546.8z
					 M1242.4,1528.9h-6v-9h6V1528.9z M1242.4,1511h-6v-9h6V1511z M1242.4,1493.1h-6v-9h6V1493.1z M1242.4,1475.2h-6v-9h6V1475.2z
					 M1242.4,1457.3h-6v-9h6V1457.3z M1242.4,1439.4h-6v-9h6V1439.4z M1242.4,1421.5h-6v-9h6V1421.5z M1242.4,1403.6h-6v-9h6V1403.6
					z M1242.4,1385.7h-6v-9h6V1385.7z M1242.4,1367.8h-6v-9h6V1367.8z M1242.4,1349.9h-6v-9h6V1349.9z M1242.4,1332h-6v-9h6V1332z
					 M1242.4,1314.1h-6v-9h6V1314.1z M1242.4,1296.2h-6v-9h6V1296.2z M1242.4,1278.2h-6v-9h6V1278.2z M1242.4,1260.3h-6v-9h6V1260.3
					z M1242.4,1242.4h-6v-9h6V1242.4z M1242.4,1224.5h-6v-9h6V1224.5z M1242.4,1206.6h-6v-9h6V1206.6z M1242.4,1188.7h-6v-9h6
					V1188.7z M1242.4,1170.8h-6v-9h6V1170.8z M1242.4,1152.9h-6v-9h6V1152.9z M1242.4,1135h-6v-9h6V1135z M1242.4,1117.1h-6v-9h6
					V1117.1z M1242.4,1099.2h-6v-9h6V1099.2z M1242.4,1081.3h-6v-9h6V1081.3z M1242.4,1063.4h-6v-9h6V1063.4z M1242.4,1045.5h-6v-9
					h6V1045.5z M1242.4,1027.6h-6v-9h6V1027.6z M1242.4,1009.7h-6v-9h6V1009.7z M1242.4,991.8h-6v-9h6V991.8z M1242.4,973.9h-6v-9h6
					V973.9z M1242.4,956h-6v-9h6V956z M1242.4,938.1h-6v-9h6V938.1z M1242.4,920.2h-6v-9h6V920.2z M1242.4,902.3h-6v-9h6V902.3z
					 M1242.4,884.4h-6v-9h6V884.4z M1242.4,866.5h-6v-9h6V866.5z M1242.4,848.6h-6v-9h6V848.6z M1242.4,830.7h-6v-9h6V830.7z
					 M1242.4,812.8h-6v-9h6V812.8z M1242.4,794.9h-6v-9h6V794.9z M1242.4,777h-6v-9h6V777z"/>
			</g>
			<g>
				<rect x="1236.4" y="1591.6" class="st3" width="6" height="4.5"/>
			</g>
		</g>
		<g>
			<g>
				<rect x="2440.9" y="754.6" class="st3" width="6" height="4.5"/>
			</g>
			<g>
				<path class="st3" d="M2446.9,1582.6h-6v-9h6V1582.6z M2446.9,1564.7h-6v-9h6V1564.7z M2446.9,1546.8h-6v-9h6V1546.8z
					 M2446.9,1528.9h-6v-9h6V1528.9z M2446.9,1511h-6v-9h6V1511z M2446.9,1493.1h-6v-9h6V1493.1z M2446.9,1475.2h-6v-9h6V1475.2z
					 M2446.9,1457.3h-6v-9h6V1457.3z M2446.9,1439.4h-6v-9h6V1439.4z M2446.9,1421.5h-6v-9h6V1421.5z M2446.9,1403.6h-6v-9h6V1403.6
					z M2446.9,1385.7h-6v-9h6V1385.7z M2446.9,1367.8h-6v-9h6V1367.8z M2446.9,1349.9h-6v-9h6V1349.9z M2446.9,1332h-6v-9h6V1332z
					 M2446.9,1314.1h-6v-9h6V1314.1z M2446.9,1296.2h-6v-9h6V1296.2z M2446.9,1278.2h-6v-9h6V1278.2z M2446.9,1260.3h-6v-9h6V1260.3
					z M2446.9,1242.4h-6v-9h6V1242.4z M2446.9,1224.5h-6v-9h6V1224.5z M2446.9,1206.6h-6v-9h6V1206.6z M2446.9,1188.7h-6v-9h6
					V1188.7z M2446.9,1170.8h-6v-9h6V1170.8z M2446.9,1152.9h-6v-9h6V1152.9z M2446.9,1135h-6v-9h6V1135z M2446.9,1117.1h-6v-9h6
					V1117.1z M2446.9,1099.2h-6v-9h6V1099.2z M2446.9,1081.3h-6v-9h6V1081.3z M2446.9,1063.4h-6v-9h6V1063.4z M2446.9,1045.5h-6v-9
					h6V1045.5z M2446.9,1027.6h-6v-9h6V1027.6z M2446.9,1009.7h-6v-9h6V1009.7z M2446.9,991.8h-6v-9h6V991.8z M2446.9,973.9h-6v-9h6
					V973.9z M2446.9,956h-6v-9h6V956z M2446.9,938.1h-6v-9h6V938.1z M2446.9,920.2h-6v-9h6V920.2z M2446.9,902.3h-6v-9h6V902.3z
					 M2446.9,884.4h-6v-9h6V884.4z M2446.9,866.5h-6v-9h6V866.5z M2446.9,848.6h-6v-9h6V848.6z M2446.9,830.7h-6v-9h6V830.7z
					 M2446.9,812.8h-6v-9h6V812.8z M2446.9,794.9h-6v-9h6V794.9z M2446.9,777h-6v-9h6V777z"/>
			</g>
			<g>
				<rect x="2440.9" y="1591.6" class="st3" width="6" height="4.5"/>
			</g>
		</g>
	</g>
	<g class="st4">
		<g>
			<rect x="1323.4" y="774.8" class="st2" width="1034.2" height="804"/>
		</g>
	</g>
	<g>
		<path class="st5" d="M1790.7,1207.2c-0.8-2.5-1.7-4.9-2.6-7.3c-0.9-2.4-1.8-4.9-2.6-7.4h-26.3c-0.8,2.5-1.7,5-2.6,7.4
			s-1.7,4.8-2.6,7.2h-11.8c2.3-6.7,4.6-12.8,6.7-18.4c2.1-5.6,4.2-11,6.2-16s4-9.8,6-14.4c2-4.6,4-9.1,6.1-13.5h10.8
			c2.1,4.4,4.1,8.9,6.1,13.5c2,4.6,4,9.4,6,14.4c2,5,4.1,10.4,6.2,16c2.1,5.6,4.4,11.8,6.7,18.4H1790.7z M1772.3,1156.9
			c-1.4,3.2-3,7.1-4.7,11.6c-1.8,4.6-3.6,9.5-5.5,14.8h20.5c-1.9-5.3-3.8-10.3-5.6-14.9C1775.2,1163.8,1773.6,1159.9,1772.3,1156.9z
			"/>
		<path class="st5" d="M1829.6,1207.9c-3.3,0-6.6-0.1-10-0.3c-3.4-0.2-6.3-0.6-8.8-1.3v-60.6c1.3-0.2,2.7-0.5,4.2-0.7
			c1.5-0.2,3-0.4,4.6-0.5c1.6-0.1,3.1-0.2,4.6-0.3c1.5-0.1,3-0.1,4.4-0.1c3.8,0,7.3,0.3,10.5,0.9c3.2,0.6,6,1.5,8.4,2.8
			c2.4,1.3,4.2,3.1,5.5,5.2c1.3,2.2,2,4.8,2,8c0,2.9-0.7,5.5-2.1,7.6c-1.4,2.1-3.4,3.8-5.9,5c3.8,1.3,6.6,3.1,8.4,5.6
			c1.8,2.5,2.7,5.6,2.7,9.4c0,6.4-2.3,11.2-7,14.4C1846.4,1206.3,1839.2,1207.9,1829.6,1207.9z M1821.9,1170.2h8
			c4.3,0,7.7-0.6,10.2-1.8c2.5-1.2,3.7-3.4,3.7-6.6c0-3-1.3-5.1-3.8-6.4c-2.6-1.3-5.9-1.9-9.9-1.9c-1.7,0-3.3,0-4.6,0.1
			c-1.4,0.1-2.5,0.2-3.5,0.3V1170.2z M1821.9,1179.1v19c1.3,0.1,2.6,0.2,4,0.3c1.4,0.1,2.8,0.1,4,0.1c2.3,0,4.5-0.1,6.5-0.5
			c2-0.3,3.7-0.8,5.2-1.6c1.5-0.8,2.6-1.8,3.5-3c0.9-1.3,1.3-2.9,1.3-4.9c0-3.5-1.3-6-3.9-7.4c-2.6-1.4-6.2-2.1-10.7-2.1H1821.9z"/>
		<path class="st5" d="M1897.6,1208.5c-4.7,0-8.9-0.7-12.6-2.2c-3.7-1.4-6.9-3.6-9.5-6.3c-2.6-2.8-4.6-6.2-5.9-10.2
			c-1.4-4-2.1-8.6-2.1-13.9s0.8-9.8,2.4-13.9c1.6-4,3.8-7.4,6.5-10.2c2.8-2.8,6-4.9,9.7-6.3c3.7-1.4,7.7-2.2,12-2.2
			c2.6,0,4.9,0.2,7,0.6c2.1,0.4,3.9,0.8,5.5,1.3c1.6,0.5,2.8,1,3.9,1.5c1,0.5,1.7,0.9,2.2,1.2l-3.3,9.3c-1.4-0.9-3.5-1.8-6.2-2.6
			c-2.7-0.8-5.6-1.2-8.7-1.2c-2.7,0-5.2,0.5-7.6,1.4c-2.3,0.9-4.4,2.3-6.1,4.2c-1.7,1.9-3,4.2-4,7c-1,2.8-1.4,6.1-1.4,9.8
			c0,3.3,0.4,6.3,1.1,9.1c0.7,2.8,1.9,5.1,3.5,7.2c1.6,2,3.5,3.6,5.9,4.7c2.4,1.1,5.3,1.7,8.6,1.7c4,0,7.3-0.4,9.8-1.2
			c2.5-0.8,4.5-1.6,5.9-2.3l3.1,9.3c-0.7,0.5-1.7,1-2.9,1.4c-1.2,0.5-2.7,0.9-4.4,1.4c-1.7,0.4-3.6,0.8-5.7,1.1
			C1902.3,1208.4,1900,1208.5,1897.6,1208.5z"/>
		<path class="st5" d="M1927.3,1144.8h11.3v62.4h-11.3V1144.8z"/>
	</g>
	<g>
		<path class="st1" d="M1842.3,1571c-9.4,0-17.7,3.1-22.6,7.8h45.2C1860,1574.1,1851.7,1571,1842.3,1571z"/>
		<path class="st2" d="M1991.6,1540.1c0.1,8.4-0.8,16.8-2.6,25.1c8,4.2,15.5,8.8,22.5,13.6h42.5
			C2036.8,1564,2015.8,1550.9,1991.6,1540.1z"/>
		<polygon class="st1" points="1538.7,2027.1 1245.4,1700.6 1245.4,1770.8 1539.3,2098 1539.3,2027.8 		"/>
		<polygon class="st1" points="2142.5,2027.8 2142.5,2098 2436.4,1770.8 2436.4,1700.6 2143.1,2027.1 		"/>
		<rect x="1545.3" y="2029.1" class="st1" width="591.2" height="73.2"/>
		<polygon class="st2" points="2142.5,2098.8 2436.4,1771.5 2436.4,1770.8 2142.5,2098 		"/>
		<rect x="1545.3" y="2102.3" class="st2" width="591.2" height="0.8"/>
		<polygon class="st2" points="1245.4,1770.8 1245.4,1700.6 1245.4,1700.6 1245.4,1771.5 1539.3,2098.8 1539.3,2098 		"/>
		<polygon class="st1" points="2141.4,1995.8 2138.7,1995.8 1543.2,1995.8 1540.5,1995.8 1538.7,1993.8 1256.7,1679.8 1245.7,1692 
			1543.2,2023.1 2138.7,2023.1 2436.1,1692 2425.2,1679.8 2143.1,1993.8 		"/>
		<rect x="1545.3" y="2026.1" class="st2" width="591.2" height="3"/>
		<polygon class="st2" points="1538.7,2027.1 1539.3,2027.8 1539.3,2025.6 1541.4,2025.6 1245.4,1696.1 1245.4,1700.6 		"/>
		<polygon class="st2" points="2142.5,2025.6 2142.5,2027.8 2143.1,2027.1 2436.4,1700.6 2436.4,1696.1 2140.4,2025.6 		"/>
		<rect x="1245.4" y="1696.1" class="st2" width="0" height="4.5"/>
		<polygon class="st2" points="2138.7,2023.1 1543.2,2023.1 1245.7,1692 1245.4,1692.3 1245.4,1696.1 1541.4,2025.6 1545.3,2025.6 
			1545.3,2026.1 2136.5,2026.1 2136.5,2025.6 2140.4,2025.6 2436.4,1696.1 2436.4,1692.3 2436.1,1692 		"/>
		
			<rect x="1245.4" y="1692.3" transform="matrix(0.7071 -0.7071 0.7071 0.7071 -833.2197 1376.8621)" class="st2" width="0" height="3.7"/>
		<polygon class="st2" points="1543.2,2029.1 1540.5,2029.1 1539.3,2027.8 1539.3,2098 1543.2,2102.3 1545.3,2102.3 1545.3,2029.1 
					"/>
		<polygon class="st2" points="1543.2,2102.3 1539.3,2098 1539.3,2098.8 1543.2,2103 1545.3,2103 1545.3,2102.3 		"/>
		<polygon class="st2" points="1539.3,2027.8 1540.5,2029.1 1543.2,2029.1 1545.3,2029.1 1545.3,2026.1 1541.8,2026.1 
			1541.4,2025.6 1539.3,2025.6 		"/>
		<polygon class="st2" points="1545.3,2026.1 1545.3,2025.6 1541.4,2025.6 1541.8,2026.1 		"/>
		<polygon class="st2" points="2138.7,2029.1 2136.5,2029.1 2136.5,2102.3 2138.7,2102.3 2142.5,2098 2142.5,2027.8 2141.4,2029.1 
					"/>
		<polygon class="st2" points="2138.7,2102.3 2136.5,2102.3 2136.5,2103 2138.7,2103 2142.5,2098.8 2142.5,2098 		"/>
		<polygon class="st2" points="2138.7,2029.1 2141.4,2029.1 2142.5,2027.8 2142.5,2025.6 2140.4,2025.6 2140,2026.1 2136.5,2026.1 
			2136.5,2029.1 		"/>
		<polygon class="st2" points="2140.4,2025.6 2136.5,2025.6 2136.5,2026.1 2140,2026.1 		"/>
		<polygon class="st1" points="1323.8,1578.8 1323.8,1577.3 1322.2,1579.1 1330.3,1588.1 1338.7,1578.8 		"/>
		<polygon class="st1" points="1245.4,1588.1 1245.4,1658.3 1256.3,1670.5 1287.9,1635.3 		"/>
		<polygon class="st1" points="2343.2,1578.8 2351.6,1588.1 2359.7,1579.1 2358,1577.3 2358,1578.8 		"/>
		<polygon class="st1" points="2425.5,1670.5 2436.4,1658.3 2436.4,1588.1 2394,1635.3 		"/>
		<polygon class="st1" points="2142.5,1915.3 2142.5,1933.4 2359.7,1691.6 2351.6,1682.6 2143.1,1914.6 		"/>
		<path class="st1" d="M2074.4,1675.4c-2.9-36.7-25.4-70.7-62.9-96.6h-35.3c-5.8,16.7-15.5,33.1-29.3,48.7
			c-16.5,18.6-38.2,35-63.7,48.4c-11.2-3-22.1-6.5-32.4-10.6c27.6-12.7,50.9-29.2,67.9-48.4c10.9-12.2,18.9-25.1,24-38.1h-42.6
			c1.3,3.1,1.9,6.4,1.9,9.8c0,21.4-26.8,38.8-59.7,38.8c-32.9,0-59.7-17.4-59.7-38.8c0-3.4,0.7-6.7,1.9-9.8h-43.2
			c5.3,13.1,13.2,25.7,23.7,37.4C1827.4,1686.4,1964.5,1712.1,2074.4,1675.4z"/>
		<path class="st1" d="M1815.1,1588.6c0,9.7,12.2,17.6,27.2,17.6c15,0,27.2-7.9,27.2-17.6c0-3.6-1.7-7-4.6-9.8h-45.2
			C1816.8,1581.6,1815.1,1585,1815.1,1588.6z"/>
		<path class="st1" d="M2107.3,1681.5l0.1,6.2l-8.3,3.1c-40.8,15-85.9,22.7-131.4,22.7c-23.4,0-46.9-2-70-6.1
			c-68.2-12-125.3-40.7-160.8-80.6c-13.3-15-23.1-31.2-29-48h-35.6c-37.5,25.8-61.5,60.1-64.2,98c59.9,20,130.6,21.9,193,6
			c10.3,5.1,21.1,9.7,32.4,13.8c-35.8,11.5-75.3,17.7-115.2,18.1c-1.3,0-2.5,0-3.8,0c-45.8,0-91-7.8-130.9-22.5l-8.3-3.1l0.1-6.2
			c0.4-38.1,19.4-74.3,54.2-104.1h-206.1l-50.8,56.5l195.9,218.1h544.6l195.9-218.1l-50.8-56.5H2054
			C2087.6,1607.9,2106.7,1643.6,2107.3,1681.5z"/>
		<polygon class="st1" points="1538.7,1914.6 1330.3,1682.6 1322.2,1691.6 1539.3,1933.4 1539.3,1915.3 		"/>
		<polygon class="st1" points="1545.3,1916.6 1545.3,1940.1 1568.6,1966 2113.2,1966 2136.5,1940.1 2136.5,1916.6 		"/>
		<polygon class="st1" points="1565.9,1972 1545.3,1949 1545.3,1989.8 2136.5,1989.8 2136.5,1949 2115.9,1972 		"/>
		<polygon class="st1" points="2266.4,1578.8 2313.2,1630.9 2347.5,1592.6 2335.1,1578.8 		"/>
		<polygon class="st1" points="1415.4,1578.8 1346.7,1578.8 1334.3,1592.6 1368.7,1630.9 		"/>
		<polygon class="st1" points="1539.3,1942.4 1314.1,1691.6 1326.2,1678.1 1291.9,1639.8 1260.4,1674.9 1539.3,1985.5 		"/>
		<polygon class="st1" points="2355.6,1678.1 2367.7,1691.6 2142.5,1942.4 2142.5,1985.5 2421.5,1674.9 2389.9,1639.8 		"/>
		<polygon class="st1" points="1322.2,1691.6 1330.3,1682.6 1328.3,1680.3 1318.1,1691.6 1539.3,1937.9 1539.3,1933.4 		"/>
		<polygon class="st1" points="2113.2,1966 1568.6,1966 1545.3,1940.1 1545.3,1944.5 1567.3,1969 2114.6,1969 2136.5,1944.5 
			2136.5,1940.1 		"/>
		<polygon class="st1" points="2359.7,1691.6 2142.5,1933.4 2142.5,1937.9 2363.7,1691.6 2353.6,1680.3 2351.6,1682.6 		"/>
		<polygon class="st1" points="1423.5,1578.8 1419.4,1578.8 1370.7,1633.1 1372.7,1635.3 		"/>
		<polygon class="st1" points="2309.2,1635.3 2311.2,1633.1 2262.4,1578.8 2258.4,1578.8 		"/>
		<polygon class="st1" points="1287.9,1635.3 1256.3,1670.5 1258.4,1672.7 1289.9,1637.6 		"/>
		<polygon class="st1" points="1338.7,1578.8 1330.3,1588.1 1332.3,1590.4 1342.7,1578.8 		"/>
		<polygon class="st1" points="2423.5,1672.7 2425.5,1670.5 2394,1635.3 2392,1637.6 		"/>
		<polygon class="st1" points="2339.1,1578.8 2349.5,1590.4 2351.6,1588.1 2343.2,1578.8 		"/>
		<polygon class="st1" points="2339.1,1578.8 2349.5,1590.4 2349.5,1590.4 2339.1,1578.8 		"/>
		<polygon class="st1" points="2392,1637.6 2423.5,1672.7 2423.5,1672.7 2392,1637.6 		"/>
		<polygon class="st1" points="1342.7,1578.8 1332.3,1590.4 1332.3,1590.4 1342.7,1578.8 		"/>
		<polygon class="st1" points="1289.9,1637.6 1258.4,1672.7 1258.4,1672.7 1289.9,1637.6 		"/>
		<polygon class="st1" points="1419.4,1578.8 1415.4,1578.8 1368.7,1630.9 1370.7,1633.1 		"/>
		<polygon class="st1" points="1318.1,1691.6 1328.3,1680.3 1326.2,1678.1 1314.1,1691.6 1539.3,1942.4 1539.3,1937.9 		"/>
		<polygon class="st1" points="2363.7,1691.6 2142.5,1937.9 2142.5,1942.4 2367.7,1691.6 2355.6,1678.1 2353.6,1680.3 		"/>
		<polygon class="st1" points="1567.3,1969 1545.3,1944.5 1545.3,1949 1565.9,1972 2115.9,1972 2136.5,1949 2136.5,1944.5 
			2114.6,1969 		"/>
		<polygon class="st1" points="2311.2,1633.1 2313.2,1630.9 2266.4,1578.8 2262.4,1578.8 		"/>
		<polygon class="st1" points="1289.9,1637.6 1258.4,1672.7 1260.4,1674.9 1291.9,1639.8 		"/>
		<polygon class="st1" points="1346.7,1578.8 1342.7,1578.8 1332.3,1590.4 1334.3,1592.6 		"/>
		<polygon class="st1" points="2389.9,1639.8 2421.5,1674.9 2423.5,1672.7 2392,1637.6 		"/>
		<polygon class="st1" points="2335.1,1578.8 2347.5,1592.6 2349.5,1590.4 2339.1,1578.8 		"/>
		<polygon class="st2" points="2142.5,1992.3 2140.4,1992.3 2140,1992.8 1541.8,1992.8 1541.4,1992.3 1539.3,1992.3 1539.3,1990 
			1258.7,1677.6 1256.7,1679.8 1538.7,1993.8 1540.5,1995.8 1543.2,1995.8 2138.7,1995.8 2141.4,1995.8 2143.1,1993.8 
			2425.2,1679.8 2423.2,1677.6 2142.5,1990 		"/>
		<polygon class="st2" points="1245.4,1658.3 1245.4,1588.1 1245.4,1588.1 1245.4,1659 1256,1670.8 1256.3,1670.5 		"/>
		<polygon class="st2" points="2425.8,1670.8 2436.4,1659 2436.4,1658.3 2425.5,1670.5 		"/>
		<polygon class="st2" points="2142.5,1990 2423.2,1677.6 2421.5,1675.7 2421.8,1675.3 2421.5,1674.9 2142.5,1985.5 		"/>
		<polygon class="st2" points="1539.3,1985.5 1260.4,1674.9 1260,1675.3 1260.4,1675.7 1258.7,1677.6 1539.3,1990 		"/>
		<polygon class="st2" points="2136.5,1989.8 1545.3,1989.8 1545.3,1992.3 1541.4,1992.3 1541.8,1992.8 2140,1992.8 2140.4,1992.3 
			2136.5,1992.3 		"/>
		<polygon class="st2" points="1256.3,1670.5 1256,1670.8 1258,1673.1 1258.4,1672.7 		"/>
		<polygon class="st2" points="2423.5,1672.7 2423.8,1673.1 2425.8,1670.8 2425.5,1670.5 		"/>
		<polygon class="st2" points="1258.4,1672.7 1258,1673.1 1258,1673.1 1258.4,1672.7 		"/>
		<polygon class="st2" points="2423.5,1672.7 2423.8,1673.1 2423.8,1673.1 2423.5,1672.7 		"/>
		<polygon class="st2" points="2421.5,1674.9 2421.8,1675.3 2423.8,1673.1 2423.5,1672.7 		"/>
		<polygon class="st2" points="1260.4,1674.9 1258.4,1672.7 1258,1673.1 1260,1675.3 		"/>
		<polygon class="st1" points="1326.2,1592.6 1314.1,1579.1 1323.8,1568.3 1323.8,1492.6 1245.7,1579.5 1291.9,1630.9 		"/>
		<polygon class="st1" points="2367.7,1579.1 2355.6,1592.6 2389.9,1630.9 2436.1,1579.5 2358,1492.6 2358,1568.3 		"/>
		<polygon class="st1" points="2115.9,1859.5 1565.9,1859.5 1368.7,1639.8 1334.3,1678.1 1543.2,1910.6 2138.7,1910.6 
			2347.5,1678.1 2313.2,1639.8 		"/>
		<polygon class="st1" points="1330.3,1597.1 1295.9,1635.3 1330.3,1673.6 1364.6,1635.3 		"/>
		<polygon class="st1" points="2351.6,1673.6 2385.9,1635.3 2351.6,1597.1 2317.2,1635.3 		"/>
		<polygon class="st1" points="1366.6,1637.6 1332.3,1675.8 1334.3,1678.1 1368.7,1639.8 		"/>
		<polygon class="st1" points="2313.2,1639.8 2347.5,1678.1 2349.5,1675.8 2315.2,1637.6 		"/>
		<polygon class="st1" points="1328.3,1594.9 1326.2,1592.6 1291.9,1630.9 1293.9,1633.1 		"/>
		<polygon class="st1" points="2353.6,1594.9 2387.9,1633.1 2389.9,1630.9 2355.6,1592.6 		"/>
		<polygon class="st1" points="2387.9,1633.1 2387.9,1633.1 2353.6,1594.9 2353.6,1594.9 		"/>
		<polygon class="st1" points="1328.3,1594.9 1328.3,1594.9 1293.9,1633.1 1293.9,1633.1 		"/>
		<polygon class="st1" points="1364.6,1635.3 1330.3,1673.6 1332.3,1675.8 1366.6,1637.6 		"/>
		<polygon class="st1" points="2315.2,1637.6 2349.5,1675.8 2351.6,1673.6 2317.2,1635.3 		"/>
		<polygon class="st1" points="1330.3,1597.1 1328.3,1594.9 1293.9,1633.1 1295.9,1635.3 		"/>
		<polygon class="st1" points="2385.9,1635.3 2387.9,1633.1 2353.6,1594.9 2351.6,1597.1 		"/>
		<polygon class="st2" points="2394,1635.3 2436.4,1588.1 2436.4,1583.6 2392,1633.1 		"/>
		<polygon class="st2" points="2359.7,1579.1 2351.6,1588.1 2353.6,1590.4 2363.7,1579.1 2358,1572.8 2358,1577.3 		"/>
		<polygon class="st2" points="1289.9,1633.1 1245.4,1583.6 1245.4,1588.1 1287.9,1635.3 		"/>
		<polygon class="st2" points="1322.2,1579.1 1323.8,1577.3 1323.8,1572.8 1318.1,1579.1 1328.3,1590.4 1330.3,1588.1 		"/>
		<polygon class="st2" points="2113.2,1853.5 1568.6,1853.5 1372.7,1635.3 1370.7,1637.6 1567.3,1856.5 2114.6,1856.5 
			2311.2,1637.6 2309.2,1635.3 		"/>
		<rect x="1545.3" y="1913.6" class="st2" width="591.2" height="3"/>
		<polygon class="st2" points="1539.3,1915.3 1539.3,1913.1 1541.4,1913.1 1332.3,1680.3 1330.3,1682.6 1538.7,1914.6 		"/>
		<polygon class="st2" points="2142.5,1913.1 2142.5,1915.3 2143.1,1914.6 2351.6,1682.6 2349.5,1680.3 2140.4,1913.1 		"/>
		<polygon class="st2" points="1293.9,1637.6 1291.9,1639.8 1326.2,1678.1 1328.3,1675.8 		"/>
		<polygon class="st2" points="2315.2,1633.1 2349.5,1594.9 2347.5,1592.6 2313.2,1630.9 		"/>
		<polygon class="st2" points="2353.6,1675.8 2355.6,1678.1 2389.9,1639.8 2387.9,1637.6 		"/>
		<polygon class="st2" points="1368.7,1630.9 1334.3,1592.6 1332.3,1594.9 1366.6,1633.1 		"/>
		<polygon class="st2" points="1332.3,1680.3 1330.3,1678.1 1328.3,1680.3 1330.3,1682.6 		"/>
		<polygon class="st2" points="2311.2,1637.6 2313.2,1635.3 2311.2,1633.1 2309.2,1635.3 		"/>
		<polygon class="st2" points="1370.7,1633.1 1368.7,1635.3 1370.7,1637.6 1372.7,1635.3 		"/>
		<polygon class="st2" points="2351.6,1682.6 2353.6,1680.3 2351.6,1678.1 2349.5,1680.3 		"/>
		<polygon class="st2" points="1330.3,1588.1 1328.3,1590.4 1330.3,1592.6 1332.3,1590.4 		"/>
		<polygon class="st2" points="2392,1637.6 2394,1635.3 2392,1633.1 2389.9,1635.3 		"/>
		<polygon class="st2" points="2349.5,1590.4 2351.6,1592.6 2353.6,1590.4 2351.6,1588.1 		"/>
		<polygon class="st2" points="1289.9,1637.6 1291.9,1635.3 1289.9,1633.1 1287.9,1635.3 		"/>
		<polygon class="st2" points="1332.3,1590.4 1332.3,1590.4 1330.3,1592.6 1330.3,1592.6 		"/>
		<polygon class="st2" points="1291.9,1635.3 1289.9,1637.6 1289.9,1637.6 1291.9,1635.3 		"/>
		<polygon class="st2" points="2349.5,1590.4 2351.6,1592.6 2351.6,1592.6 2349.5,1590.4 		"/>
		<polygon class="st2" points="2392,1637.6 2392,1637.6 2389.9,1635.3 2389.9,1635.3 		"/>
		<polygon class="st2" points="2313.2,1635.3 2315.2,1633.1 2313.2,1630.9 2311.2,1633.1 		"/>
		<polygon class="st2" points="1330.3,1678.1 1328.3,1675.8 1326.2,1678.1 1328.3,1680.3 		"/>
		<polygon class="st2" points="2351.6,1678.1 2353.6,1680.3 2355.6,1678.1 2353.6,1675.8 		"/>
		<polygon class="st2" points="1370.7,1633.1 1368.7,1630.9 1366.6,1633.1 1368.7,1635.3 		"/>
		<polygon class="st2" points="1334.3,1592.6 1332.3,1590.4 1330.3,1592.6 1332.3,1594.9 		"/>
		<polygon class="st2" points="2387.9,1637.6 2389.9,1639.8 2392,1637.6 2389.9,1635.3 		"/>
		<polygon class="st2" points="2347.5,1592.6 2349.5,1594.9 2351.6,1592.6 2349.5,1590.4 		"/>
		<polygon class="st2" points="1291.9,1635.3 1289.9,1637.6 1291.9,1639.8 1293.9,1637.6 		"/>
		<rect x="1245.4" y="1583.6" class="st2" width="0" height="4.5"/>
		<polygon class="st2" points="1289.9,1633.1 1291.9,1630.9 1245.7,1579.5 1245.4,1579.8 1245.4,1583.6 		"/>
		<polygon class="st2" points="1318.1,1579.1 1323.8,1572.8 1323.8,1568.3 1314.1,1579.1 1326.2,1592.6 1328.3,1590.4 		"/>
		<polygon class="st2" points="2389.9,1630.9 2392,1633.1 2436.4,1583.6 2436.4,1579.8 2436.1,1579.5 		"/>
		<polygon class="st2" points="2363.7,1579.1 2353.6,1590.4 2355.6,1592.6 2367.7,1579.1 2358,1568.3 2358,1572.8 		"/>
		<polygon class="st2" points="2114.6,1856.5 1567.3,1856.5 1370.7,1637.6 1368.7,1639.8 1565.9,1859.5 2115.9,1859.5 
			2313.2,1639.8 2311.2,1637.6 		"/>
		<polygon class="st2" points="1543.2,1910.6 1334.3,1678.1 1332.3,1680.3 1541.4,1913.1 1545.3,1913.1 1545.3,1913.6 
			2136.5,1913.6 2136.5,1913.1 2140.4,1913.1 2349.5,1680.3 2347.5,1678.1 2138.7,1910.6 		"/>
		<polygon class="st2" points="2317.2,1635.3 2351.6,1597.1 2349.5,1594.9 2315.2,1633.1 		"/>
		<polygon class="st2" points="1366.6,1633.1 1332.3,1594.9 1330.3,1597.1 1364.6,1635.3 		"/>
		<polygon class="st2" points="1295.9,1635.3 1293.9,1637.6 1328.3,1675.8 1330.3,1673.6 		"/>
		<polygon class="st2" points="2351.6,1673.6 2353.6,1675.8 2387.9,1637.6 2385.9,1635.3 		"/>
		<polygon class="st2" points="1334.3,1678.1 1332.3,1675.8 1330.3,1678.1 1332.3,1680.3 		"/>
		<polygon class="st2" points="1368.7,1635.3 1366.6,1637.6 1368.7,1639.8 1370.7,1637.6 		"/>
		<polygon class="st2" points="2347.5,1678.1 2349.5,1680.3 2351.6,1678.1 2349.5,1675.8 		"/>
		<polygon class="st2" points="2311.2,1637.6 2313.2,1639.8 2315.2,1637.6 2313.2,1635.3 		"/>
		<polygon class="st2" points="1330.3,1592.6 1328.3,1590.4 1326.2,1592.6 1328.3,1594.9 		"/>
		<polygon class="st2" points="1293.9,1633.1 1291.9,1630.9 1289.9,1633.1 1291.9,1635.3 		"/>
		<polygon class="st2" points="2351.6,1592.6 2353.6,1594.9 2355.6,1592.6 2353.6,1590.4 		"/>
		<polygon class="st2" points="2389.9,1635.3 2392,1633.1 2389.9,1630.9 2387.9,1633.1 		"/>
		<polygon class="st2" points="1330.3,1592.6 1330.3,1592.6 1328.3,1594.9 1328.3,1594.9 		"/>
		<polygon class="st2" points="2351.6,1592.6 2353.6,1594.9 2353.6,1594.9 2351.6,1592.6 		"/>
		<polygon class="st2" points="2389.9,1635.3 2389.9,1635.3 2387.9,1633.1 2387.9,1633.1 		"/>
		<polygon class="st2" points="1293.9,1633.1 1293.9,1633.1 1291.9,1635.3 1291.9,1635.3 		"/>
		<polygon class="st2" points="2315.2,1637.6 2317.2,1635.3 2315.2,1633.1 2313.2,1635.3 		"/>
		<polygon class="st2" points="2349.5,1675.8 2351.6,1678.1 2353.6,1675.8 2351.6,1673.6 		"/>
		<polygon class="st2" points="1366.6,1633.1 1364.6,1635.3 1366.6,1637.6 1368.7,1635.3 		"/>
		<polygon class="st2" points="1330.3,1673.6 1328.3,1675.8 1330.3,1678.1 1332.3,1675.8 		"/>
		<polygon class="st2" points="1293.9,1633.1 1291.9,1635.3 1293.9,1637.6 1295.9,1635.3 		"/>
		<polygon class="st2" points="2387.9,1637.6 2389.9,1635.3 2387.9,1633.1 2385.9,1635.3 		"/>
		<polygon class="st2" points="2351.6,1597.1 2353.6,1594.9 2351.6,1592.6 2349.5,1594.9 		"/>
		<polygon class="st2" points="1332.3,1594.9 1330.3,1592.6 1328.3,1594.9 1330.3,1597.1 		"/>
		
			<rect x="1245.4" y="1579.8" transform="matrix(0.7071 -0.7071 0.7071 0.7071 -753.6702 1343.9116)" class="st2" width="0" height="3.7"/>
		<polygon class="st2" points="1543.2,1916.6 1540.5,1916.6 1539.3,1915.3 1539.3,1933.4 1545.3,1940.1 1545.3,1916.6 		"/>
		<polygon class="st2" points="1545.3,1989.8 1545.3,1949 1539.3,1942.4 1539.3,1985.5 1543.2,1989.8 		"/>
		<polygon class="st2" points="1539.3,1933.4 1539.3,1937.9 1545.3,1944.5 1545.3,1940.1 		"/>
		<polygon class="st2" points="1545.3,1944.5 1539.3,1937.9 1539.3,1942.4 1545.3,1949 		"/>
		<polygon class="st2" points="1539.3,1992.3 1541.4,1992.3 1539.3,1990 		"/>
		<polygon class="st2" points="1545.3,1989.8 1543.2,1989.8 1539.3,1985.5 1539.3,1990 1541.4,1992.3 1545.3,1992.3 		"/>
		<polygon class="st2" points="1539.3,1915.3 1540.5,1916.6 1543.2,1916.6 1545.3,1916.6 1545.3,1913.6 1541.8,1913.6 
			1541.4,1913.1 1539.3,1913.1 		"/>
		<polygon class="st2" points="1545.3,1913.6 1545.3,1913.1 1541.4,1913.1 1541.8,1913.6 		"/>
		<polygon class="st2" points="2141.4,1916.6 2138.7,1916.6 2136.5,1916.6 2136.5,1940.1 2142.5,1933.4 2142.5,1915.3 		"/>
		<polygon class="st2" points="2136.5,1989.8 2138.7,1989.8 2142.5,1985.5 2142.5,1942.4 2136.5,1949 		"/>
		<polygon class="st2" points="2136.5,1940.1 2136.5,1944.5 2142.5,1937.9 2142.5,1933.4 		"/>
		<polygon class="st2" points="2136.5,1944.5 2136.5,1949 2142.5,1942.4 2142.5,1937.9 		"/>
		<polygon class="st2" points="2142.5,1992.3 2142.5,1990 2140.4,1992.3 		"/>
		<polygon class="st2" points="2136.5,1989.8 2136.5,1992.3 2140.4,1992.3 2142.5,1990 2142.5,1985.5 2138.7,1989.8 		"/>
		<polygon class="st2" points="2138.7,1916.6 2141.4,1916.6 2142.5,1915.3 2142.5,1913.1 2140.4,1913.1 2140,1913.6 2136.5,1913.6 
			2136.5,1916.6 		"/>
		<polygon class="st2" points="2140.4,1913.1 2136.5,1913.1 2136.5,1913.6 2140,1913.6 		"/>
		<polygon class="st2" points="1233.4,1575.2 1233.4,1579.8 1233.4,1659 1233.4,1663.6 1236.5,1667.1 1244.2,1675.7 1236.5,1684.3 
			1233.4,1687.7 1233.4,1692.3 1233.4,1771.5 1233.4,1776.1 1236.5,1779.6 1534.2,2111 1537.8,2115 1543.2,2115 2138.7,2115 
			2144,2115 2147.6,2111 2445.4,1779.6 2448.4,1776.1 2448.4,1771.5 2448.4,1692.3 2448.4,1687.7 2445.4,1684.3 2437.6,1675.7 
			2445.4,1667.1 2448.4,1663.6 2448.4,1659 2448.4,1579.8 2448.4,1575.2 2445.4,1571.8 2358,1474.6 2358,1482.9 2440.9,1575.1 
			2444.5,1579.1 2442.4,1581.4 2442.4,1658.3 2442.4,1660.6 2440.9,1662.3 2429.5,1674.9 2440.9,1687.6 2444.5,1691.6 
			2442.4,1693.9 2442.4,1770.8 2442.4,1773.1 2440.9,1774.8 2143.1,2106.3 2141.4,2108.3 2138.7,2108.3 1543.2,2108.3 
			1540.5,2108.3 1538.7,2106.3 1240.9,1774.8 1239.4,1773.1 1239.4,1770.8 1239.4,1693.9 1237.3,1691.6 1240.9,1687.6 
			1252.3,1674.9 1240.9,1662.3 1239.4,1660.6 1239.4,1658.3 1239.4,1581.4 1237.3,1579.1 1240.9,1575.1 1323.8,1482.9 
			1323.8,1474.6 1236.5,1571.8 		"/>
		<polygon class="st2" points="2439.4,1697.2 2439.4,1771.9 2142.5,2102.5 2142.5,2104.8 2140.4,2104.8 2140,2105.3 1541.8,2105.3 
			1541.4,2104.8 1539.3,2104.8 1539.3,2102.5 1242.4,1771.9 1242.4,1697.2 1240.9,1695.6 1239.4,1693.9 1239.4,1770.8 
			1239.4,1773.1 1240.9,1774.8 1538.7,2106.3 1540.5,2108.3 1543.2,2108.3 2138.7,2108.3 2141.4,2108.3 2143.1,2106.3 
			2440.9,1774.8 2442.4,1773.1 2442.4,1770.8 2442.4,1693.9 2440.9,1695.6 		"/>
		<polygon class="st2" points="2436.4,1770.8 2436.4,1771.5 2142.5,2098.8 2142.5,2102.5 2439.4,1771.9 2439.4,1697.2 
			2436.4,1700.6 		"/>
		<polygon class="st2" points="1245.4,1771.5 1245.4,1700.6 1242.4,1697.2 1242.4,1771.9 1539.3,2102.5 1539.3,2098.8 		"/>
		<polygon class="st2" points="2136.5,2103 1545.3,2103 1545.3,2104.8 1541.4,2104.8 1541.8,2105.3 2140,2105.3 2140.4,2104.8 
			2136.5,2104.8 		"/>
		<polygon class="st2" points="2436.1,1692 2436.4,1691.6 2425.5,1679.4 2425.2,1679.8 		"/>
		<polygon class="st2" points="1256.7,1679.8 1256.3,1679.4 1245.4,1691.6 1245.7,1692 		"/>
		<polygon class="st2" points="1239.4,1689.3 1240.9,1687.6 1237.3,1691.6 1239.4,1693.9 1239.4,1691.6 		"/>
		<polygon class="st2" points="2442.4,1691.6 2442.4,1693.9 2444.5,1691.6 2440.9,1687.6 2442.4,1689.3 		"/>
		<polygon class="st2" points="1242.4,1697.2 1242.4,1692.7 1241.4,1691.6 1242.4,1690.4 1242.4,1690.4 1254.3,1677.2 
			1252.3,1674.9 1240.9,1687.6 1239.4,1689.3 1239.4,1691.6 1239.4,1693.9 1240.9,1695.6 		"/>
		<polygon class="st2" points="2439.4,1690.4 2439.4,1690.4 2440.5,1691.6 2439.4,1692.7 2439.4,1697.2 2440.9,1695.6 
			2442.4,1693.9 2442.4,1691.6 2442.4,1689.3 2440.9,1687.6 2429.5,1674.9 2427.5,1677.2 		"/>
		<polygon class="st2" points="1245.4,1696.1 1242.4,1692.7 1242.4,1697.2 1245.4,1700.6 		"/>
		<polygon class="st2" points="2439.4,1690.4 2439.4,1690.4 2427.5,1677.2 2427.5,1677.2 		"/>
		<polygon class="st2" points="1254.3,1677.2 1242.4,1690.4 1242.4,1690.4 1254.3,1677.2 		"/>
		<polygon class="st2" points="2436.4,1700.6 2439.4,1697.2 2439.4,1692.7 2436.4,1696.1 		"/>
		<polygon class="st2" points="2436.4,1692.3 2436.4,1691.6 2436.1,1692 		"/>
		<polygon class="st2" points="1245.4,1691.6 1245.4,1692.3 1245.7,1692 		"/>
		<polygon class="st2" points="2440.5,1691.6 2439.4,1690.4 2439.4,1692.7 		"/>
		<polygon class="st2" points="1241.4,1691.6 1242.4,1692.7 1242.4,1690.4 		"/>
		<polygon class="st2" points="1245.4,1692.3 1245.4,1692.3 1245.4,1691.6 1256.3,1679.4 1254.3,1677.2 1242.4,1690.4 
			1242.4,1692.7 1245.4,1696.1 		"/>
		<polygon class="st2" points="2425.5,1679.4 2436.4,1691.6 2436.4,1692.3 2436.4,1696.1 2439.4,1692.7 2439.4,1690.4 
			2427.5,1677.2 		"/>
		<polygon class="st2" points="1539.3,2104.8 1541.4,2104.8 1539.3,2102.5 		"/>
		<polygon class="st2" points="1545.3,2103 1543.2,2103 1539.3,2098.8 1539.3,2102.5 1541.4,2104.8 1545.3,2104.8 		"/>
		<polygon class="st2" points="2142.5,2104.8 2142.5,2102.5 2140.4,2104.8 		"/>
		<polygon class="st2" points="2138.7,2103 2136.5,2103 2136.5,2104.8 2140.4,2104.8 2142.5,2102.5 2142.5,2098.8 		"/>
		<polygon class="st2" points="2439.4,1584.7 2439.4,1659.4 2427.5,1672.7 2429.5,1674.9 2440.9,1662.3 2442.4,1660.6 
			2442.4,1658.3 2442.4,1581.4 2440.9,1583.1 		"/>
		<polygon class="st2" points="1242.4,1659.4 1242.4,1584.7 1240.9,1583.1 1239.4,1581.4 1239.4,1658.3 1239.4,1660.6 
			1240.9,1662.3 1252.3,1674.9 1254.3,1672.7 		"/>
		<polygon class="st2" points="1258.7,1677.6 1258.4,1677.2 1256.3,1679.4 1256.7,1679.8 		"/>
		<polygon class="st2" points="2423.2,1677.6 2425.2,1679.8 2425.5,1679.4 2423.5,1677.2 		"/>
		<polygon class="st2" points="1256.3,1674.9 1254.3,1672.7 1252.3,1674.9 1254.3,1677.2 		"/>
		<polygon class="st2" points="2425.5,1674.9 2427.5,1677.2 2429.5,1674.9 2427.5,1672.7 		"/>
		<polygon class="st2" points="1256.3,1674.9 1256.3,1674.9 1254.3,1677.2 1254.3,1677.2 		"/>
		<polygon class="st2" points="2427.5,1677.2 2427.5,1677.2 2425.5,1674.9 2425.5,1674.9 		"/>
		<polygon class="st2" points="1256.3,1674.9 1254.3,1677.2 1256.3,1679.4 1258.4,1677.2 		"/>
		<polygon class="st2" points="2425.5,1679.4 2427.5,1677.2 2425.5,1674.9 2423.5,1677.2 		"/>
		<polygon class="st2" points="2436.4,1658.3 2436.4,1659 2425.8,1670.8 2427.5,1672.7 2439.4,1659.4 2439.4,1584.7 2436.4,1588.1 
					"/>
		<polygon class="st2" points="1245.4,1659 1245.4,1588.1 1242.4,1584.7 1242.4,1659.4 1254.3,1672.7 1256,1670.8 		"/>
		<polygon class="st2" points="1260,1675.3 1258.4,1677.2 1258.7,1677.6 1260.4,1675.7 		"/>
		<polygon class="st2" points="2423.2,1677.6 2423.5,1677.2 2421.8,1675.3 2421.5,1675.7 		"/>
		<polygon class="st2" points="1256,1670.8 1254.3,1672.7 1256.3,1674.9 1258,1673.1 		"/>
		<polygon class="st2" points="2423.8,1673.1 2425.5,1674.9 2427.5,1672.7 2425.8,1670.8 		"/>
		<polygon class="st2" points="2423.8,1673.1 2425.5,1674.9 2425.5,1674.9 2423.8,1673.1 		"/>
		<polygon class="st2" points="1258,1673.1 1258,1673.1 1256.3,1674.9 1256.3,1674.9 		"/>
		<polygon class="st2" points="1260,1675.3 1258,1673.1 1256.3,1674.9 1258.4,1677.2 		"/>
		<polygon class="st2" points="2423.5,1677.2 2425.5,1674.9 2423.8,1673.1 2421.8,1675.3 		"/>
		<polygon class="st2" points="1245.7,1579.5 1323.8,1492.6 1323.8,1491.8 1245.4,1579.1 		"/>
		<polygon class="st2" points="2436.1,1579.5 2436.4,1579.1 2358,1491.8 2358,1492.6 		"/>
		<polygon class="st2" points="2442.4,1579.1 2442.4,1581.4 2444.5,1579.1 2440.9,1575.1 2442.4,1576.8 		"/>
		<polygon class="st2" points="1239.4,1576.8 1240.9,1575.1 1237.3,1579.1 1239.4,1581.4 1239.4,1579.1 		"/>
		<polygon class="st2" points="2439.4,1577.9 2439.4,1577.9 2440.5,1579.1 2439.4,1580.2 2439.4,1584.7 2440.9,1583.1 
			2442.4,1581.4 2442.4,1579.1 2442.4,1576.8 2440.9,1575.1 2358,1482.9 2358,1487.3 		"/>
		<polygon class="st2" points="1242.4,1584.7 1242.4,1580.2 1241.4,1579.1 1242.4,1577.9 1242.4,1577.9 1323.8,1487.3 
			1323.8,1482.9 1240.9,1575.1 1239.4,1576.8 1239.4,1579.1 1239.4,1581.4 1240.9,1583.1 		"/>
		<polygon class="st2" points="1245.4,1583.6 1242.4,1580.2 1242.4,1584.7 1245.4,1588.1 		"/>
		<polygon class="st2" points="1242.4,1577.9 1323.8,1487.3 1323.8,1487.3 1242.4,1577.9 		"/>
		<polygon class="st2" points="2439.4,1577.9 2439.4,1577.9 2358,1487.3 2358,1487.3 		"/>
		<polygon class="st2" points="2436.4,1588.1 2439.4,1584.7 2439.4,1580.2 2436.4,1583.6 		"/>
		<polygon class="st2" points="2436.4,1579.8 2436.4,1579.1 2436.1,1579.5 		"/>
		<polygon class="st2" points="1245.4,1579.1 1245.4,1579.8 1245.7,1579.5 		"/>
		<polygon class="st2" points="2440.5,1579.1 2439.4,1577.9 2439.4,1580.2 		"/>
		<polygon class="st2" points="1241.4,1579.1 1242.4,1580.2 1242.4,1577.9 		"/>
		<polygon class="st2" points="2358,1491.8 2436.4,1579.1 2436.4,1579.8 2436.4,1583.6 2439.4,1580.2 2439.4,1577.9 2358,1487.3 		
			"/>
		<polygon class="st2" points="1245.4,1579.8 1245.4,1579.8 1245.4,1579.1 1323.8,1491.8 1323.8,1487.3 1242.4,1577.9 
			1242.4,1580.2 1245.4,1583.6 		"/>
		<path class="st2" d="M1575.3,1682.9l-0.1,6.2l8.3,3.1c40,14.7,85.1,22.5,130.9,22.5c1.3,0,2.5,0,3.8,0
			c39.9-0.4,79.4-6.6,115.2-18.1c-11.3-4.1-22.1-8.7-32.4-13.8c-62.4,15.9-133.1,14-193-6c2.7-37.8,26.7-72.2,64.2-98h-42.8
			C1594.7,1608.6,1575.7,1644.8,1575.3,1682.9z"/>
		<path class="st2" d="M1897.6,1707.4c23.1,4.1,46.6,6.1,70,6.1c45.6,0,90.6-7.7,131.4-22.7l8.3-3.1l-0.1-6.2
			c-0.6-37.9-19.7-73.6-53.3-102.7h-42.5c37.5,25.9,60.1,59.9,62.9,96.6c-109.9,36.7-247,11-309.4-59.2
			c-10.5-11.8-18.4-24.4-23.7-37.4h-33.5c5.9,16.8,15.6,33,29,48C1772.3,1666.7,1829.4,1695.3,1897.6,1707.4z"/>
		<path class="st2" d="M1850.8,1665.3c10.3,4.1,21.1,7.6,32.4,10.6c25.5-13.4,47.2-29.8,63.7-48.4c13.9-15.6,23.6-32,29.3-48.7
			h-33.5c-5.2,13.1-13.2,25.9-24,38.1C1901.6,1636.1,1878.4,1652.6,1850.8,1665.3z"/>
		<path class="st2" d="M1842.3,1627.4c32.9,0,59.7-17.4,59.7-38.8c0-3.4-0.7-6.7-1.9-9.8h-35.2c2.9,2.8,4.6,6.2,4.6,9.8
			c0,9.7-12.2,17.6-27.2,17.6c-15,0-27.2-7.9-27.2-17.6c0-3.6,1.7-7,4.6-9.8h-35.2c-1.3,3.1-1.9,6.4-1.9,9.8
			C1782.6,1610,1809.4,1627.4,1842.3,1627.4z"/>
	</g>
	<g>
		<rect x="1321.9" y="774.8" class="st2" width="3" height="804"/>
	</g>
	<line class="st6" x1="2357.7" y1="774.8" x2="2357.7" y2="1578.8"/>
	<g>
		<g>
			<g>
				<line class="st1" x1="1837.1" y1="1063.8" x2="1837.1" y2="1063.8"/>
				<path class="st7" d="M1837.1,1063.8"/>
			</g>
			<g>
				<g>
					<line class="st8" x1="1837.1" y1="1063.8" x2="1837.1" y2="1063.8"/>
					<path class="st7" d="M1837.1,1063.8"/>
				</g>
			</g>
			<g>
				<g>
					<g>
						<g>
							<g>
								<g>
									<polygon class="st1" points="2435.7,766.6 2136.2,433.3 2136.2,351.8 2435.7,18.4 3033.9,18.4 3333.3,351.8 3333.3,433.3 
										3033.9,766.6 									"/>
								</g>
							</g>
							<g>
								<g>
									<path class="st7" d="M3032.5,21.4l297.8,331.5v79.2l-297.8,331.5H2437l-297.8-331.5v-79.2L2437,21.4H3032.5 M3035.2,15.4
										h-2.7H2437h-2.7l-1.8,2l-297.8,331.5l-1.5,1.7v2.3v79.2v2.3l1.5,1.7l297.8,331.5l1.8,2h2.7h595.5h2.7l1.8-2l297.8-331.5
										l1.5-1.7v-2.3v-79.2v-2.3l-1.5-1.7L3037,17.4L3035.2,15.4L3035.2,15.4z"/>
								</g>
							</g>
						</g>
						<g>
							<line class="st1" x1="2734.8" y1="392.5" x2="2734.8" y2="392.5"/>
							<path class="st7" d="M2734.8,392.5"/>
						</g>
						<g>
							<g>
								<line class="st8" x1="2734.8" y1="392.5" x2="2734.8" y2="392.5"/>
								<path class="st7" d="M2734.8,392.5"/>
							</g>
						</g>
						<g>
							<g>
								<path class="st1" d="M2435.7,687.4l-300.4-334.5l300.4-334.5h598.2l300.4,334.5l-300.4,334.5H2435.7z M3008.4,630.3
									l249.2-277.4L3008.4,75.5h-547.3L2212,352.9l249.2,277.4H3008.4z"/>
							</g>
							<g>
								<path class="st7" d="M3032.5,21.4l297.8,331.5l-297.8,331.5H2437l-297.8-331.5L2437,21.4H3032.5 M2459.8,633.3h549.9
									l251.9-280.4L3009.7,72.5h-549.9l-251.9,280.4L2459.8,633.3 M3035.2,15.4h-2.7H2437h-2.7l-1.8,2l-297.8,331.5l-3.6,4l3.6,4
									l297.8,331.5l1.8,2h2.7h595.5h2.7l1.8-2l297.8-331.5l3.6-4l-3.6-4L3037,17.4L3035.2,15.4L3035.2,15.4z M2462.5,78.5h544.6
									l246.5,274.4l-246.5,274.4h-544.6L2216,352.9L2462.5,78.5L2462.5,78.5z"/>
							</g>
						</g>
						<g>
							<g>
								<rect x="2433.2" y="686.9" class="st7" width="6" height="79.2"/>
							</g>
							<g>
								<rect x="3030.3" y="686.9" class="st7" width="6" height="79.2"/>
							</g>
						</g>
					</g>
					<g>
						<g>
							<g>
								<g>
									<polygon class="st1" points="641.7,766.6 342.2,433.3 342.2,351.8 641.7,18.4 1239.9,18.4 1539.3,351.8 1539.3,433.3 
										1239.9,766.6 									"/>
								</g>
							</g>
							<g>
								<g>
									<path class="st7" d="M1238.5,21.4l297.8,331.5v79.2l-297.8,331.5H643h0L345.2,432.1v-79.2L643,21.4H1238.5 M1241.2,15.4
										h-2.7H643h-2.7l-1.8,2L340.8,348.9l-1.5,1.7v2.3v79.2v2.3l1.5,1.7l297.8,331.5l1.8,2h2.7h595.5h2.7l1.8-2l297.8-331.5
										l1.5-1.7v-2.3v-79.2v-2.3l-1.5-1.7L1243,17.4L1241.2,15.4L1241.2,15.4z"/>
								</g>
							</g>
						</g>
						<g>
							<line class="st1" x1="940.8" y1="392.5" x2="940.8" y2="392.5"/>
							<path class="st7" d="M940.8,392.5"/>
						</g>
						<g>
							<g>
								<line class="st8" x1="940.8" y1="392.5" x2="940.8" y2="392.5"/>
								<path class="st7" d="M940.8,392.5"/>
							</g>
						</g>
						<g>
							<g>
								<path class="st1" d="M641.7,687.4L341.2,352.9L641.7,18.4h598.2l300.5,334.5l-300.5,334.5H641.7z M1214.4,630.3l249.2-277.4
									L1214.4,75.5H667.1L418,352.9l249.2,277.4H1214.4z"/>
							</g>
							<g>
								<path class="st7" d="M1238.5,21.4l297.8,331.5l-297.8,331.5H643L345.2,352.9L643,21.4H1238.5 M665.8,633.3h549.9
									l251.9-280.4L1215.7,72.5H665.8L413.9,352.9L665.8,633.3 M1241.2,15.4h-2.7H643h-2.7l-1.8,2L340.8,348.9l-3.6,4l3.6,4
									l297.8,331.5l1.8,2h2.7h595.5h2.7l1.8-2l297.8-331.5l3.6-4l-3.6-4L1243,17.4L1241.2,15.4L1241.2,15.4z M668.5,78.5h544.6
									l246.5,274.4l-246.5,274.4H668.5L422,352.9L668.5,78.5L668.5,78.5z"/>
							</g>
						</g>
						<g>
							<g>
								<rect x="639.2" y="686.9" class="st7" width="6" height="79.2"/>
							</g>
							<g>
								<rect x="1236.3" y="686.9" class="st7" width="6" height="79.2"/>
							</g>
						</g>
					</g>
					<g>
						<g>
							<g>
								<g>
									<polygon class="st1" points="1541.8,1100.3 1242.3,767 1242.3,685.5 1541.8,352.2 2139.9,352.2 2439.4,685.5 2439.4,767 
										2139.9,1100.3 									"/>
								</g>
							</g>
							<g>
								<g>
									<path class="st7" d="M2138.6,355.2l297.8,331.5v79.2l-297.8,331.5h-595.5l-297.8-331.5v-79.2l297.8-331.5H2138.6
										 M2141.3,349.2h-2.7h-595.5h-2.7l-1.8,2l-297.8,331.5l-1.5,1.7v2.3v79.2v2.3l1.5,1.7l297.8,331.5l1.8,2h2.7h595.5h2.7
										l1.8-2l297.8-331.5l1.5-1.7v-2.3v-79.2v-2.3l-1.5-1.7l-297.8-331.5L2141.3,349.2L2141.3,349.2z"/>
								</g>
							</g>
						</g>
						<g>
							<g>
								<path class="st1" d="M1541.8,1021.1l-300.5-334.5l300.5-334.5h598.2l300.4,334.5l-300.4,334.5H1541.8z M2114.5,964
									l249.2-277.4l-249.2-277.4h-547.3l-249.2,277.4L1567.2,964H2114.5z"/>
							</g>
							<g>
								<path class="st7" d="M2138.6,355.2l297.8,331.5l-297.8,331.5h-595.5l-297.8-331.5l297.8-331.5H2138.6 M1565.9,967h549.9
									l251.9-280.4l-251.9-280.4h-549.9L1314,686.7L1565.9,967 M2141.3,349.2h-2.7h-595.5h-2.7l-1.8,2l-297.8,331.5l-3.6,4l3.6,4
									l297.8,331.5l1.8,2h2.7h595.5h2.7l1.8-2l297.8-331.5l3.6-4l-3.6-4l-297.8-331.5L2141.3,349.2L2141.3,349.2z M1568.6,412.3
									h544.6l246.5,274.4L2113.1,961h-544.6l-246.5-274.4L1568.6,412.3L1568.6,412.3z"/>
							</g>
						</g>
					</g>
					<g>
						<g>
							<g>
								<g>
									<polygon class="st1" points="641.7,1433.3 342.2,1100 342.2,1018.5 641.7,685.2 1239.9,685.2 1539.3,1018.5 1539.3,1100 
										1239.9,1433.3 									"/>
								</g>
							</g>
							<g>
								<g>
									<path class="st7" d="M1238.5,688.2l297.8,331.5v79.2l-297.8,331.5H643h0l-297.8-331.5v-79.2L643,688.2H1238.5
										 M1241.2,682.2h-2.7H643h-2.7l-1.8,2l-297.8,331.5l-1.5,1.7v2.3v79.2v2.3l1.5,1.7l297.8,331.5l1.8,2h2.7h595.5h2.7l1.8-2
										l297.8-331.5l1.5-1.7v-2.3v-79.2v-2.3l-1.5-1.7L1243,684.2L1241.2,682.2L1241.2,682.2z"/>
								</g>
							</g>
						</g>
						<g>
							<line class="st1" x1="940.8" y1="1059.3" x2="940.8" y2="1059.3"/>
							<path class="st7" d="M940.8,1059.3"/>
						</g>
						<g>
							<g>
								<line class="st8" x1="940.8" y1="1059.3" x2="940.8" y2="1059.3"/>
								<path class="st7" d="M940.8,1059.3"/>
							</g>
						</g>
						<g>
							<g>
								<path class="st1" d="M641.7,1354.1l-300.5-334.5l300.5-334.5h598.2l300.5,334.5l-300.5,334.5H641.7z M1214.4,1297
									l249.2-277.4l-249.2-277.4H667.1L418,1019.7L667.1,1297H1214.4z"/>
							</g>
							<g>
								<path class="st7" d="M1238.5,688.2l297.8,331.5l-297.8,331.5H643l-297.8-331.5L643,688.2H1238.5 M665.8,1300h549.9
									l251.9-280.4l-251.9-280.4H665.8l-251.9,280.4L665.8,1300 M1241.2,682.2h-2.7H643h-2.7l-1.8,2l-297.8,331.5l-3.6,4l3.6,4
									l297.8,331.5l1.8,2h2.7h595.5h2.7l1.8-2l297.8-331.5l3.6-4l-3.6-4L1243,684.2L1241.2,682.2L1241.2,682.2z M668.5,745.3
									h544.6l246.5,274.4L1213.1,1294H668.5L422,1019.7L668.5,745.3L668.5,745.3z"/>
							</g>
						</g>
						<g>
							<g>
								<rect x="639.2" y="1353.7" class="st7" width="6" height="79.2"/>
							</g>
							<g>
								<rect x="1236.3" y="1353.7" class="st7" width="6" height="79.2"/>
							</g>
						</g>
					</g>
					<g>
						<g>
							<g>
								<g>
									<polygon class="st1" points="2435.7,1433.3 2136.2,1100 2136.2,1018.5 2435.7,685.2 3033.9,685.2 3333.3,1018.5 
										3333.3,1100 3033.9,1433.3 									"/>
								</g>
							</g>
							<g>
								<g>
									<path class="st7" d="M3032.5,688.2l297.8,331.5v79.2l-297.8,331.5H2437l-297.8-331.5v-79.2L2437,688.2H3032.5
										 M3035.2,682.2h-2.7H2437h-2.7l-1.8,2l-297.8,331.5l-1.5,1.7v2.3v79.2v2.3l1.5,1.7l297.8,331.5l1.8,2h2.7h595.5h2.7l1.8-2
										l297.8-331.5l1.5-1.7v-2.3v-79.2v-2.3l-1.5-1.7L3037,684.2L3035.2,682.2L3035.2,682.2z"/>
								</g>
							</g>
						</g>
						<g>
							<line class="st1" x1="2734.8" y1="1059.3" x2="2734.8" y2="1059.3"/>
							<path class="st7" d="M2734.8,1059.3"/>
						</g>
						<g>
							<g>
								<line class="st8" x1="2734.8" y1="1059.3" x2="2734.8" y2="1059.3"/>
								<path class="st7" d="M2734.8,1059.3"/>
							</g>
						</g>
						<g>
							<g>
								<path class="st1" d="M2435.7,1354.1l-300.4-334.5l300.4-334.5h598.2l300.4,334.5l-300.4,334.5H2435.7z M3008.4,1297
									l249.2-277.4l-249.2-277.4h-547.3L2212,1019.7l249.2,277.4H3008.4z"/>
							</g>
							<g>
								<path class="st7" d="M3032.5,688.2l297.8,331.5l-297.8,331.5H2437l-297.8-331.5L2437,688.2H3032.5 M2459.8,1300h549.9
									l251.9-280.4l-251.9-280.4h-549.9l-251.9,280.4L2459.8,1300 M3035.2,682.2h-2.7H2437h-2.7l-1.8,2l-297.8,331.5l-3.6,4l3.6,4
									l297.8,331.5l1.8,2h2.7h595.5h2.7l1.8-2l297.8-331.5l3.6-4l-3.6-4L3037,684.2L3035.2,682.2L3035.2,682.2z M2462.5,745.3
									h544.6l246.5,274.4L3007.1,1294h-544.6L2216,1019.7L2462.5,745.3L2462.5,745.3z"/>
							</g>
						</g>
						<g>
							<g>
								<rect x="2433.2" y="1353.7" class="st7" width="6" height="79.2"/>
							</g>
							<g>
								<rect x="3030.3" y="1353.7" class="st7" width="6" height="79.2"/>
							</g>
						</g>
					</g>
				</g>
			</g>
			<g>
				<path class="st7" d="M3032.5,21.4l297.8,331.5v79.2l-263.9,293.8l263.9,293.8v79.2l-297.8,331.5H2437l-297.8-331.5v-2.2
					l-0.6,0.7h-595.5l-6.8-7.6v9.1l-297.8,331.5H643l-297.8-331.5v-79.2l263.9-293.8L345.2,432.1v-79.2L643,21.4h595.5h0
					l297.8,331.5v9.9l6.8-7.6h595.5l0.6,0.7v-3L2437,21.4H3032.5 M3037.9,9.4h-5.4H2437h-5.4l-3.6,4l-296.2,329.8h-588.2
					L1247.4,13.4l-3.6-4h-5.4H643h-5.4l-3.6,4L336.3,344.9l-3.1,3.4v4.6v79.2v4.6l3.1,3.4L593,725.9l-256.7,285.8l-3.1,3.4v4.6v79.2
					v4.6l3.1,3.4l297.8,331.5l3.6,4h5.4h595.5h5.4l3.6-4l295.5-329h0.1h589.4l295.5,329l3.6,4h5.4h595.5h5.4l3.6-4l297.8-331.5
					l3.1-3.4v-4.6v-79.2v-4.6l-3.1-3.4l-256.7-285.8l256.7-285.8l3.1-3.4v-4.6v-79.2v-4.6l-3.1-3.4L3041.4,13.4L3037.9,9.4
					L3037.9,9.4z"/>
			</g>
			<g>
				<path class="st7" d="M729.9,330.6c-6.4,0-11.3,2-14.7,6c-3.4,4-5.1,9.5-5.1,16.6c0,3.4,0.4,6.4,1.2,9.2c0.8,2.8,2,5.2,3.6,7.2
					c1.6,2,3.6,3.5,5.9,4.6c2.4,1.1,5.1,1.7,8.3,1.7c2,0,3.7-0.1,5.1-0.2c1.4-0.1,2.6-0.3,3.4-0.6v-22.4h11.3v30
					c-1.6,0.6-4.2,1.3-7.9,2c-3.7,0.7-8,1.1-12.9,1.1c-4.5,0-8.6-0.7-12.3-2.2c-3.7-1.4-6.9-3.5-9.5-6.3c-2.6-2.8-4.6-6.1-6.1-10.2
					c-1.4-4-2.2-8.6-2.2-13.9c0-5.2,0.8-9.8,2.4-13.9c1.6-4,3.8-7.4,6.5-10.2c2.8-2.8,6-4.9,9.7-6.3c3.7-1.4,7.7-2.2,11.9-2.2
					c2.9,0,5.4,0.2,7.7,0.6c2.2,0.4,4.2,0.8,5.8,1.3c1.6,0.5,3,1,4,1.5c1,0.5,1.8,0.9,2.2,1.2l-3.4,9.3c-1.8-1.1-4-2-6.7-2.7
					C735.6,331,732.8,330.6,729.9,330.6z"/>
				<path class="st7" d="M804.2,360.9c0,3.7-0.5,7.1-1.6,10.2c-1.1,3.1-2.6,5.7-4.6,7.8c-2,2.2-4.4,3.8-7.2,5
					c-2.8,1.2-5.9,1.8-9.2,1.8c-3.4,0-6.4-0.6-9.2-1.8c-2.8-1.2-5.1-2.9-7.1-5c-2-2.2-3.5-4.8-4.6-7.8c-1.1-3.1-1.7-6.4-1.7-10.2
					c0-3.7,0.6-7.1,1.7-10.1c1.1-3,2.7-5.6,4.7-7.8c2-2.2,4.4-3.8,7.2-5c2.8-1.2,5.8-1.8,9.1-1.8c3.3,0,6.3,0.6,9.1,1.8
					s5.2,2.8,7.2,5c2,2.2,3.5,4.8,4.6,7.8C803.7,353.8,804.2,357.1,804.2,360.9z M793.1,360.9c0-4.7-1-8.4-3-11.1
					c-2-2.7-4.8-4.1-8.4-4.1s-6.4,1.4-8.4,4.1c-2,2.7-3,6.4-3,11.1c0,4.7,1,8.5,3,11.2c2,2.8,4.8,4.1,8.4,4.1s6.4-1.4,8.4-4.1
					C792.1,369.3,793.1,365.6,793.1,360.9z"/>
				<path class="st7" d="M826.5,384.4c-3-6.2-6.1-13.3-9.3-21.3c-3.2-8-6-16.6-8.6-25.8h11.6c0.7,2.6,1.4,5.5,2.3,8.5
					c0.9,3,1.8,6.1,2.8,9.1c1,3,2,6,3.1,8.8c1.1,2.9,2,5.4,2.9,7.7c0.9-2.3,1.9-4.8,2.9-7.7c1-2.8,2-5.8,3-8.8c1-3,1.9-6.1,2.8-9.1
					c0.9-3,1.7-5.9,2.3-8.5h11.3c-2.6,9.2-5.5,17.8-8.6,25.8c-3.2,8-6.3,15.1-9.3,21.3H826.5z"/>
				<path class="st7" d="M858.1,361.1c0-4.1,0.6-7.8,1.8-10.9c1.2-3.1,2.9-5.7,4.9-7.8c2-2.1,4.4-3.6,7-4.7c2.6-1,5.3-1.6,8.1-1.6
					c6.5,0,11.5,2,15.2,6c3.6,4,5.4,10,5.4,18c0,0.6,0,1.3,0,2c0,0.8-0.1,1.4-0.1,2h-31.1c0.3,3.8,1.6,6.7,4,8.8
					c2.4,2.1,5.8,3.1,10.3,3.1c2.6,0,5.1-0.2,7.2-0.7c2.2-0.5,3.9-1,5.2-1.5l1.4,8.9c-0.6,0.3-1.4,0.6-2.5,0.9
					c-1.1,0.3-2.2,0.6-3.6,0.9c-1.3,0.3-2.8,0.5-4.4,0.7c-1.6,0.2-3.1,0.3-4.8,0.3c-4.1,0-7.7-0.6-10.8-1.8
					c-3.1-1.2-5.6-2.9-7.6-5.1c-2-2.2-3.5-4.8-4.4-7.7C858.5,367.9,858.1,364.7,858.1,361.1z M889.6,356.3c0-1.5-0.2-2.9-0.6-4.3
					c-0.4-1.4-1-2.5-1.8-3.5s-1.8-1.8-3-2.3c-1.2-0.6-2.6-0.9-4.2-0.9c-1.7,0-3.2,0.3-4.4,0.9c-1.3,0.6-2.3,1.5-3.2,2.5
					c-0.9,1-1.5,2.2-2,3.5c-0.5,1.3-0.8,2.7-1,4H889.6z"/>
				<path class="st7" d="M938.9,347.2c-0.9-0.3-2.1-0.6-3.7-0.9c-1.6-0.3-3.4-0.5-5.5-0.5c-1.2,0-2.5,0.1-3.8,0.4
					c-1.4,0.2-2.3,0.5-2.8,0.6v37.7h-10.9v-44.8c2.1-0.8,4.7-1.5,7.9-2.2c3.2-0.7,6.6-1,10.5-1c0.7,0,1.6,0,2.5,0.1
					c1,0.1,1.9,0.2,2.9,0.4c1,0.2,1.9,0.3,2.8,0.5c0.9,0.2,1.6,0.4,2.2,0.6L938.9,347.2z"/>
				<path class="st7" d="M948.3,338.9c2.1-0.6,4.8-1.2,8.2-1.7c3.4-0.5,7.1-0.8,11.2-0.8c3.8,0,7,0.5,9.6,1.6
					c2.6,1.1,4.6,2.5,6.2,4.4c1.5,1.9,2.6,4.2,3.2,6.8c0.6,2.7,0.9,5.6,0.9,8.8v26.5h-10.9v-24.8c0-2.5-0.2-4.7-0.5-6.4
					c-0.3-1.8-0.9-3.2-1.6-4.3c-0.8-1.1-1.8-1.9-3.1-2.4c-1.3-0.5-2.9-0.8-4.7-0.8c-1.4,0-2.8,0.1-4.3,0.3c-1.5,0.2-2.6,0.3-3.3,0.5
					v38h-10.9V338.9z"/>
				<path class="st7" d="M1016.6,336.2c3.6,0,6.6,0.5,9.1,1.4c2.5,0.9,4.4,2.2,5.9,3.8c1.5,1.6,2.5,3.6,3.2,5.9
					c0.6,2.3,0.9,4.8,0.9,7.6v28.5c-1.7,0.4-4.2,0.8-7.6,1.3c-3.4,0.5-7.2,0.8-11.5,0.8c-2.8,0-5.4-0.3-7.7-0.8
					c-2.3-0.5-4.3-1.4-6-2.6c-1.7-1.2-2.9-2.8-3.9-4.7c-0.9-1.9-1.4-4.3-1.4-7.1c0-2.7,0.5-5,1.6-6.8c1-1.9,2.5-3.4,4.3-4.5
					c1.8-1.2,3.9-2,6.3-2.5c2.4-0.5,4.8-0.8,7.4-0.8c1.2,0,2.5,0.1,3.8,0.2c1.3,0.2,2.7,0.4,4.2,0.8v-1.8c0-1.3-0.2-2.5-0.4-3.6
					c-0.3-1.1-0.8-2.1-1.6-3c-0.8-0.9-1.7-1.5-3-2c-1.2-0.5-2.8-0.7-4.6-0.7c-2.5,0-4.8,0.2-6.9,0.5c-2.1,0.4-3.8,0.8-5.1,1.3
					l-1.3-8.8c1.4-0.5,3.4-1,6-1.4C1010.8,336.4,1013.6,336.2,1016.6,336.2z M1017.5,376.8c3.4,0,5.9-0.2,7.6-0.5v-12.1
					c-0.6-0.2-1.5-0.4-2.6-0.5c-1.1-0.2-2.4-0.3-3.8-0.3c-1.2,0-2.4,0.1-3.6,0.3c-1.2,0.2-2.3,0.5-3.3,1c-1,0.5-1.8,1.2-2.4,2
					c-0.6,0.9-0.9,2-0.9,3.3c0,2.6,0.8,4.4,2.4,5.4C1012.6,376.3,1014.8,376.8,1017.5,376.8z"/>
				<path class="st7" d="M1049,338.9c2.1-0.6,4.8-1.2,8.2-1.7c3.4-0.5,7.1-0.8,11.2-0.8c3.8,0,7,0.5,9.6,1.6
					c2.6,1.1,4.6,2.5,6.2,4.4c1.5,1.9,2.6,4.2,3.2,6.8c0.6,2.7,0.9,5.6,0.9,8.8v26.5h-10.9v-24.8c0-2.5-0.2-4.7-0.5-6.4
					c-0.3-1.8-0.9-3.2-1.6-4.3c-0.8-1.1-1.8-1.9-3.1-2.4c-1.3-0.5-2.9-0.8-4.7-0.8c-1.4,0-2.8,0.1-4.3,0.3c-1.5,0.2-2.6,0.3-3.3,0.5
					v38H1049V338.9z"/>
				<path class="st7" d="M1099.1,360.9c0-3.5,0.5-6.7,1.6-9.8c1.1-3,2.6-5.7,4.6-7.9c2-2.2,4.5-4,7.3-5.2c2.9-1.3,6.1-1.9,9.7-1.9
					c4.4,0,8.6,0.8,12.6,2.4l-2.3,8.9c-1.3-0.5-2.7-1-4.3-1.3c-1.6-0.4-3.3-0.5-5.1-0.5c-4.3,0-7.5,1.3-9.7,4
					c-2.2,2.7-3.3,6.4-3.3,11.3c0,4.7,1,8.4,3.2,11.1c2.1,2.7,5.6,4.1,10.6,4.1c1.9,0,3.7-0.2,5.5-0.5c1.8-0.4,3.4-0.8,4.7-1.4
					l1.5,9c-1.2,0.6-3,1.1-5.4,1.6c-2.4,0.5-4.9,0.7-7.5,0.7c-4,0-7.5-0.6-10.5-1.8c-3-1.2-5.4-2.9-7.4-5.1c-2-2.2-3.4-4.8-4.4-7.8
					C1099.5,367.8,1099.1,364.5,1099.1,360.9z"/>
				<path class="st7" d="M1141.5,361.1c0-4.1,0.6-7.8,1.8-10.9c1.2-3.1,2.9-5.7,4.9-7.8c2-2.1,4.4-3.6,7-4.7c2.6-1,5.3-1.6,8.1-1.6
					c6.5,0,11.5,2,15.2,6c3.6,4,5.4,10,5.4,18c0,0.6,0,1.3,0,2c0,0.8-0.1,1.4-0.1,2h-31c0.3,3.8,1.6,6.7,4,8.8
					c2.4,2.1,5.8,3.1,10.3,3.1c2.6,0,5.1-0.2,7.2-0.7c2.2-0.5,3.9-1,5.2-1.5l1.4,8.9c-0.6,0.3-1.4,0.6-2.5,0.9
					c-1.1,0.3-2.2,0.6-3.6,0.9c-1.4,0.3-2.8,0.5-4.4,0.7c-1.6,0.2-3.2,0.3-4.8,0.3c-4.1,0-7.7-0.6-10.8-1.8
					c-3.1-1.2-5.6-2.9-7.6-5.1c-2-2.2-3.5-4.8-4.4-7.7C1142,367.9,1141.5,364.7,1141.5,361.1z M1173.1,356.3c0-1.5-0.2-2.9-0.6-4.3
					c-0.4-1.4-1-2.5-1.8-3.5c-0.8-1-1.8-1.8-3-2.3c-1.2-0.6-2.6-0.9-4.2-0.9c-1.7,0-3.1,0.3-4.4,0.9c-1.3,0.6-2.3,1.5-3.2,2.5
					c-0.9,1-1.5,2.2-2,3.5c-0.5,1.3-0.8,2.7-1,4H1173.1z"/>
			</g>
			<g>
				<path class="st7" d="M877,997.1h11.3v62.4H877V997.1z"/>
				<path class="st7" d="M922.1,1060.2c-3.3,0-6.6-0.1-10-0.3c-3.4-0.2-6.3-0.6-8.8-1.3V998c1.3-0.2,2.7-0.5,4.2-0.7
					c1.5-0.2,3-0.4,4.6-0.5c1.6-0.1,3.1-0.2,4.6-0.3c1.5-0.1,3-0.1,4.4-0.1c3.8,0,7.3,0.3,10.5,0.9c3.2,0.6,6,1.5,8.4,2.8
					c2.4,1.3,4.2,3.1,5.5,5.2c1.3,2.2,2,4.8,2,8c0,2.9-0.7,5.5-2.1,7.6c-1.4,2.1-3.4,3.8-5.9,5c3.8,1.3,6.6,3.1,8.4,5.6
					c1.8,2.5,2.7,5.6,2.7,9.4c0,6.4-2.3,11.2-7,14.4C938.9,1058.5,931.7,1060.2,922.1,1060.2z M914.4,1022.4h8
					c4.3,0,7.7-0.6,10.2-1.8c2.5-1.2,3.7-3.4,3.7-6.6c0-3-1.3-5.1-3.8-6.4c-2.6-1.3-5.9-1.9-9.9-1.9c-1.7,0-3.3,0-4.6,0.1
					c-1.3,0.1-2.5,0.2-3.5,0.3V1022.4z M914.4,1031.4v19c1.3,0.1,2.6,0.2,4,0.3c1.4,0.1,2.8,0.1,4,0.1c2.3,0,4.5-0.1,6.5-0.5
					c2-0.3,3.7-0.8,5.2-1.6c1.5-0.8,2.6-1.8,3.5-3c0.9-1.3,1.3-2.9,1.3-4.9c0-3.5-1.3-6-3.9-7.4c-2.6-1.4-6.2-2.1-10.7-2.1H914.4z"
					/>
				<path class="st7" d="M990.1,1060.8c-4.7,0-8.9-0.7-12.6-2.2c-3.7-1.4-6.9-3.6-9.5-6.3c-2.6-2.8-4.6-6.2-5.9-10.2
					c-1.4-4-2.1-8.6-2.1-13.9c0-5.2,0.8-9.8,2.4-13.9c1.6-4,3.8-7.4,6.5-10.2c2.8-2.8,6-4.9,9.7-6.3c3.7-1.4,7.7-2.2,12-2.2
					c2.6,0,4.9,0.2,7,0.6c2.1,0.4,3.9,0.8,5.5,1.3c1.6,0.5,2.8,1,3.9,1.5c1,0.5,1.7,0.9,2.2,1.2l-3.3,9.3c-1.4-0.9-3.5-1.8-6.2-2.6
					c-2.7-0.8-5.6-1.2-8.7-1.2c-2.7,0-5.2,0.5-7.6,1.4c-2.3,0.9-4.4,2.3-6.1,4.2c-1.7,1.9-3,4.2-4,7c-1,2.8-1.4,6.1-1.4,9.8
					c0,3.3,0.4,6.3,1.1,9.1c0.8,2.8,1.9,5.1,3.5,7.2c1.6,2,3.5,3.6,5.9,4.7c2.4,1.1,5.3,1.7,8.6,1.7c4,0,7.3-0.4,9.8-1.2
					c2.5-0.8,4.5-1.6,5.8-2.3l3.1,9.3c-0.7,0.5-1.7,1-2.9,1.4c-1.2,0.5-2.7,0.9-4.4,1.4c-1.7,0.4-3.6,0.8-5.7,1.1
					C994.8,1060.6,992.5,1060.8,990.1,1060.8z"/>
			</g>
			<g>
				<path class="st7" d="M2610.2,376c4.1,0,7-0.7,8.9-2.1c1.9-1.4,2.8-3.3,2.8-5.8c0-1.5-0.3-2.8-0.9-3.9s-1.5-2.1-2.7-2.9
					c-1.2-0.9-2.6-1.7-4.3-2.4c-1.7-0.8-3.6-1.5-5.8-2.2c-2.2-0.8-4.2-1.6-6.3-2.6c-2-0.9-3.8-2.1-5.3-3.5c-1.5-1.4-2.8-3-3.7-4.9
					c-0.9-1.9-1.4-4.2-1.4-6.9c0-5.6,1.9-10.1,5.8-13.3c3.9-3.2,9.2-4.8,15.9-4.8c3.9,0,7.4,0.4,10.4,1.3c3,0.9,5.4,1.8,7.2,2.8
					l-3.5,9.2c-2-1.1-4.3-2-6.7-2.6c-2.4-0.6-4.9-0.9-7.5-0.9c-3.1,0-5.4,0.6-7.2,1.9s-2.6,3-2.6,5.3c0,1.4,0.3,2.6,0.9,3.6
					c0.6,1,1.4,1.9,2.4,2.7c1,0.8,2.3,1.5,3.7,2.2c1.4,0.7,3,1.3,4.6,1.9c2.9,1.1,5.6,2.2,7.9,3.3c2.3,1.1,4.3,2.4,5.8,4
					c1.6,1.5,2.8,3.3,3.6,5.4c0.8,2.1,1.3,4.6,1.3,7.5c0,5.6-2,10-6,13.1c-4,3.1-9.8,4.6-17.5,4.6c-2.6,0-4.9-0.2-7.1-0.5
					c-2.1-0.3-4-0.7-5.7-1.2c-1.7-0.5-3.1-1-4.3-1.5c-1.2-0.5-2.2-1-2.9-1.4l3.3-9.3c1.6,0.9,3.8,1.8,6.6,2.7
					C2603,375.5,2606.3,376,2610.2,376z"/>
				<path class="st7" d="M2642.6,324.9l10.9-1.8v14.2h16.7v9.1h-16.7v19.2c0,3.8,0.6,6.5,1.8,8.1c1.2,1.6,3.2,2.4,6.1,2.4
					c2,0,3.7-0.2,5.3-0.6c1.5-0.4,2.7-0.8,3.6-1.2l1.8,8.6c-1.3,0.5-2.9,1.1-4.9,1.7c-2,0.6-4.4,0.9-7.2,0.9c-3.4,0-6.2-0.5-8.4-1.4
					c-2.2-0.9-4-2.2-5.4-3.9c-1.3-1.7-2.2-3.8-2.8-6.2c-0.5-2.4-0.8-5.2-0.8-8.3V324.9z"/>
				<path class="st7" d="M2696.5,336.2c3.6,0,6.6,0.5,9.1,1.4c2.5,0.9,4.4,2.2,5.9,3.8c1.5,1.6,2.5,3.6,3.1,5.9
					c0.6,2.3,0.9,4.8,0.9,7.6v28.5c-1.7,0.4-4.2,0.8-7.6,1.3c-3.4,0.5-7.2,0.8-11.5,0.8c-2.8,0-5.4-0.3-7.7-0.8
					c-2.3-0.5-4.3-1.4-6-2.6c-1.7-1.2-2.9-2.8-3.9-4.7c-0.9-1.9-1.4-4.3-1.4-7.1c0-2.7,0.5-5,1.6-6.8c1-1.9,2.5-3.4,4.3-4.5
					c1.8-1.2,3.9-2,6.3-2.5c2.4-0.5,4.8-0.8,7.4-0.8c1.2,0,2.5,0.1,3.8,0.2c1.3,0.2,2.7,0.4,4.2,0.8v-1.8c0-1.3-0.2-2.5-0.5-3.6
					c-0.3-1.1-0.8-2.1-1.6-3c-0.8-0.9-1.7-1.5-3-2c-1.2-0.5-2.8-0.7-4.6-0.7c-2.5,0-4.8,0.2-6.9,0.5c-2.1,0.4-3.8,0.8-5.1,1.3
					l-1.4-8.8c1.4-0.5,3.4-1,6-1.4C2690.6,336.4,2693.4,336.2,2696.5,336.2z M2697.4,376.8c3.4,0,5.9-0.2,7.7-0.5v-12.1
					c-0.6-0.2-1.5-0.4-2.6-0.5c-1.1-0.2-2.4-0.3-3.8-0.3c-1.2,0-2.4,0.1-3.6,0.3c-1.2,0.2-2.3,0.5-3.3,1c-1,0.5-1.8,1.2-2.4,2
					c-0.6,0.9-0.9,2-0.9,3.3c0,2.6,0.8,4.4,2.4,5.4C2692.4,376.3,2694.6,376.8,2697.4,376.8z"/>
				<path class="st7" d="M2739.7,355.7c1.4-1.4,2.8-3,4.4-4.6c1.6-1.6,3.1-3.3,4.6-5c1.5-1.6,2.9-3.2,4.3-4.8c1.3-1.5,2.5-2.9,3.5-4
					h12.9c-3,3.4-6.2,6.8-9.5,10.4s-6.7,7.1-10,10.5c1.8,1.5,3.7,3.3,5.7,5.4c2,2.1,3.9,4.4,5.7,6.8c1.9,2.4,3.6,4.8,5.2,7.2
					c1.6,2.4,3,4.6,4,6.7h-12.6c-1.1-1.9-2.3-3.8-3.7-5.8c-1.4-2-2.9-4-4.5-5.9c-1.6-1.9-3.3-3.7-5-5.4c-1.7-1.7-3.3-3.2-4.9-4.4
					v21.6h-10.9v-68l10.9-1.8V355.7z"/>
				<path class="st7" d="M2790.6,323.6c0,2-0.7,3.7-2,4.9c-1.3,1.2-2.9,1.8-4.7,1.8c-1.9,0-3.5-0.6-4.8-1.8c-1.3-1.2-2-2.8-2-4.9
					c0-2.1,0.7-3.7,2-4.9c1.3-1.2,2.9-1.8,4.8-1.8c1.8,0,3.4,0.6,4.7,1.8C2789.9,319.8,2790.6,321.5,2790.6,323.6z M2789.4,384.4
					h-10.9v-47.1h10.9V384.4z"/>
				<path class="st7" d="M2803.3,338.9c2.1-0.6,4.8-1.2,8.2-1.7c3.4-0.5,7.1-0.8,11.2-0.8c3.8,0,7,0.5,9.6,1.6
					c2.6,1.1,4.6,2.5,6.2,4.4c1.5,1.9,2.6,4.2,3.2,6.8c0.6,2.7,0.9,5.6,0.9,8.8v26.5h-10.9v-24.8c0-2.5-0.2-4.7-0.5-6.4
					c-0.3-1.8-0.9-3.2-1.6-4.3c-0.8-1.1-1.8-1.9-3.1-2.4c-1.3-0.5-2.9-0.8-4.7-0.8c-1.4,0-2.8,0.1-4.3,0.3c-1.5,0.2-2.6,0.3-3.3,0.5
					v38h-10.9V338.9z"/>
				<path class="st7" d="M2894.8,379.7c0,7.5-1.9,13-5.7,16.5c-3.8,3.5-9.6,5.2-17.5,5.2c-2.9,0-5.7-0.2-8.4-0.7
					c-2.7-0.5-5.2-1.1-7.4-1.9l2-9.3c1.9,0.8,4,1.4,6.3,1.9c2.4,0.5,4.9,0.7,7.7,0.7c4.4,0,7.5-0.9,9.4-2.7c1.9-1.8,2.8-4.5,2.8-8
					v-1.8c-1.1,0.5-2.5,1.1-4.3,1.6c-1.8,0.5-3.8,0.8-6.1,0.8c-3,0-5.7-0.5-8.2-1.4c-2.5-1-4.6-2.4-6.4-4.2c-1.8-1.9-3.2-4.2-4.1-7
					c-1-2.8-1.5-6-1.5-9.7c0-3.4,0.5-6.6,1.6-9.5c1-2.9,2.6-5.3,4.6-7.4c2-2,4.5-3.6,7.3-4.8c2.9-1.1,6.1-1.7,9.8-1.7
					c3.5,0,6.9,0.3,10.1,0.8s5.9,1.1,8.1,1.7V379.7z M2864.5,359.7c0,4.6,1,8,3,10.1c2,2.1,4.6,3.2,7.8,3.2c1.7,0,3.4-0.2,4.9-0.7
					c1.5-0.5,2.8-1,3.7-1.7v-24.4c-0.8-0.2-1.7-0.3-2.9-0.5c-1.1-0.1-2.6-0.2-4.3-0.2c-4,0-7,1.3-9.1,3.9
					C2865.5,352,2864.5,355.4,2864.5,359.7z"/>
			</g>
			<g>
				<path class="st7" d="M2593.7,1051c4.1,0,7-0.7,8.9-2.1c1.9-1.4,2.8-3.3,2.8-5.8c0-1.5-0.3-2.8-0.9-3.9s-1.5-2.1-2.7-2.9
					c-1.2-0.9-2.6-1.7-4.3-2.4c-1.7-0.8-3.6-1.5-5.8-2.2c-2.2-0.8-4.2-1.6-6.3-2.6c-2-0.9-3.8-2.1-5.3-3.5c-1.5-1.4-2.8-3-3.7-4.9
					c-0.9-1.9-1.4-4.2-1.4-6.9c0-5.6,1.9-10.1,5.8-13.3c3.9-3.2,9.2-4.8,15.9-4.8c3.9,0,7.4,0.4,10.4,1.3c3,0.9,5.4,1.8,7.2,2.8
					l-3.5,9.2c-2-1.1-4.3-2-6.7-2.6c-2.4-0.6-4.9-0.9-7.5-0.9c-3.1,0-5.4,0.6-7.2,1.9s-2.6,3-2.6,5.3c0,1.4,0.3,2.6,0.9,3.6
					c0.6,1,1.4,1.9,2.4,2.7c1,0.8,2.3,1.5,3.7,2.2c1.4,0.7,3,1.3,4.6,1.9c2.9,1.1,5.6,2.2,7.9,3.3c2.3,1.1,4.3,2.4,5.9,4
					c1.6,1.5,2.8,3.3,3.6,5.4c0.8,2.1,1.3,4.6,1.3,7.5c0,5.6-2,10-6,13.1c-4,3.1-9.8,4.6-17.5,4.6c-2.6,0-4.9-0.2-7.1-0.5
					c-2.1-0.3-4-0.7-5.7-1.2c-1.7-0.5-3.1-1-4.3-1.5c-1.2-0.5-2.2-1-2.9-1.4l3.3-9.3c1.6,0.9,3.8,1.8,6.6,2.7
					C2586.5,1050.5,2589.8,1051,2593.7,1051z"/>
				<path class="st7" d="M2643,1060.3c-3.2-0.1-5.9-0.4-8.1-1.1c-2.1-0.7-3.8-1.6-5.1-2.8c-1.3-1.2-2.1-2.8-2.7-4.6
					c-0.5-1.8-0.8-3.9-0.8-6.3v-54.2l10.9-1.8v53.9c0,1.3,0.1,2.4,0.3,3.3c0.2,0.9,0.6,1.7,1.1,2.3s1.3,1.1,2.2,1.4
					c0.9,0.3,2.1,0.6,3.6,0.8L2643,1060.3z"/>
				<path class="st7" d="M2669,1011.2c3.6,0,6.6,0.5,9.1,1.4c2.5,0.9,4.4,2.2,5.9,3.8c1.5,1.6,2.5,3.6,3.2,5.9
					c0.6,2.3,0.9,4.8,0.9,7.6v28.5c-1.7,0.4-4.2,0.8-7.6,1.3c-3.4,0.5-7.2,0.8-11.5,0.8c-2.8,0-5.4-0.3-7.7-0.8
					c-2.3-0.5-4.3-1.4-6-2.6c-1.7-1.2-2.9-2.8-3.9-4.7c-0.9-1.9-1.4-4.3-1.4-7.1c0-2.7,0.5-5,1.6-6.8c1-1.9,2.5-3.4,4.3-4.5
					c1.8-1.2,3.9-2,6.3-2.5c2.4-0.5,4.8-0.8,7.4-0.8c1.2,0,2.5,0.1,3.8,0.2c1.3,0.2,2.7,0.4,4.2,0.8v-1.8c0-1.3-0.2-2.5-0.4-3.6
					c-0.3-1.1-0.8-2.1-1.6-3c-0.8-0.9-1.7-1.5-3-2c-1.2-0.5-2.8-0.7-4.6-0.7c-2.5,0-4.8,0.2-6.9,0.5c-2.1,0.4-3.8,0.8-5.1,1.3
					l-1.3-8.8c1.4-0.5,3.4-1,6-1.4C2663.2,1011.4,2666,1011.2,2669,1011.2z M2669.9,1051.8c3.4,0,5.9-0.2,7.7-0.5v-12.1
					c-0.6-0.2-1.5-0.4-2.6-0.5c-1.1-0.2-2.4-0.3-3.8-0.3c-1.2,0-2.4,0.1-3.6,0.3c-1.2,0.2-2.3,0.5-3.3,1c-1,0.5-1.8,1.2-2.4,2
					c-0.6,0.9-0.9,2-0.9,3.3c0,2.6,0.8,4.4,2.4,5.4C2665,1051.3,2667.2,1051.8,2669.9,1051.8z"/>
				<path class="st7" d="M2713.2,1051.6c2.9,0,5-0.3,6.3-1c1.3-0.7,2-1.9,2-3.6c0-1.6-0.7-2.8-2.1-3.9c-1.4-1-3.7-2.1-7-3.3
					c-2-0.7-3.8-1.5-5.4-2.3c-1.7-0.8-3.1-1.8-4.3-2.8c-1.2-1.1-2.1-2.4-2.8-3.9c-0.7-1.5-1-3.4-1-5.6c0-4.3,1.6-7.7,4.8-10.2
					c3.2-2.5,7.5-3.7,13-3.7c2.8,0,5.4,0.3,7.9,0.8c2.5,0.5,4.4,1,5.7,1.5l-2,8.8c-1.2-0.5-2.7-1-4.6-1.5c-1.9-0.4-4-0.7-6.5-0.7
					c-2.2,0-4,0.4-5.4,1.1c-1.4,0.8-2.1,1.9-2.1,3.5c0,0.8,0.1,1.5,0.4,2.1c0.3,0.6,0.7,1.2,1.4,1.7c0.7,0.5,1.5,1,2.6,1.5
					c1.1,0.5,2.4,1,4,1.6c2.6,1,4.8,1.9,6.6,2.8c1.8,0.9,3.3,2,4.5,3.2c1.2,1.2,2,2.5,2.6,4c0.5,1.5,0.8,3.3,0.8,5.4
					c0,4.5-1.7,7.9-5,10.2c-3.3,2.3-8.1,3.5-14.3,3.5c-4.1,0-7.5-0.3-10-1c-2.5-0.7-4.3-1.2-5.3-1.7l1.9-9.1
					c1.6,0.7,3.6,1.3,5.8,1.9C2707.8,1051.3,2710.4,1051.6,2713.2,1051.6z"/>
				<path class="st7" d="M2742.6,1059.4v-68l10.9-1.8v23.3c1.2-0.4,2.6-0.8,4.2-1.1c1.6-0.3,3.2-0.4,4.7-0.4c3.8,0,6.9,0.5,9.4,1.6
					c2.5,1.1,4.5,2.5,6,4.4c1.5,1.9,2.6,4.2,3.2,6.8c0.6,2.6,0.9,5.6,0.9,8.8v26.5H2771v-24.8c0-2.5-0.2-4.7-0.5-6.4
					c-0.3-1.8-0.9-3.2-1.6-4.3c-0.8-1.1-1.8-1.9-3-2.4c-1.3-0.5-2.8-0.8-4.7-0.8c-1.4,0-2.9,0.2-4.4,0.4c-1.5,0.3-2.6,0.6-3.3,0.8
					v37.4H2742.6z"/>
				<path class="st7" d="M2807.1,998.6c0,2-0.7,3.7-2,4.9c-1.3,1.2-2.9,1.8-4.7,1.8c-1.9,0-3.5-0.6-4.8-1.8c-1.3-1.2-2-2.8-2-4.9
					c0-2.1,0.7-3.7,2-4.9c1.3-1.2,2.9-1.8,4.8-1.8c1.8,0,3.4,0.6,4.7,1.8C2806.4,994.8,2807.1,996.5,2807.1,998.6z M2805.9,1059.4
					H2795v-47.1h10.9V1059.4z"/>
				<path class="st7" d="M2819.8,1013.9c2.1-0.6,4.8-1.2,8.2-1.7s7.1-0.8,11.2-0.8c3.8,0,7,0.5,9.6,1.6c2.6,1.1,4.6,2.5,6.2,4.4
					c1.5,1.9,2.6,4.2,3.2,6.8c0.6,2.7,0.9,5.6,0.9,8.8v26.5h-10.9v-24.8c0-2.5-0.2-4.7-0.5-6.4c-0.3-1.8-0.9-3.2-1.6-4.3
					c-0.8-1.1-1.8-1.9-3.1-2.4c-1.3-0.5-2.9-0.8-4.7-0.8c-1.4,0-2.8,0.1-4.3,0.3c-1.5,0.2-2.6,0.3-3.3,0.5v38h-10.9V1013.9z"/>
				<path class="st7" d="M2911.3,1054.7c0,7.5-1.9,13-5.7,16.5c-3.8,3.5-9.6,5.2-17.5,5.2c-2.9,0-5.7-0.2-8.4-0.7
					c-2.7-0.5-5.2-1.1-7.4-1.9l2-9.3c1.9,0.8,4,1.4,6.3,1.9c2.4,0.5,4.9,0.7,7.7,0.7c4.4,0,7.5-0.9,9.4-2.7c1.9-1.8,2.8-4.5,2.8-8
					v-1.8c-1.1,0.5-2.5,1.1-4.3,1.6c-1.8,0.5-3.8,0.8-6.1,0.8c-3,0-5.7-0.5-8.2-1.4c-2.5-1-4.6-2.4-6.4-4.2c-1.8-1.9-3.2-4.2-4.1-7
					c-1-2.8-1.5-6-1.5-9.7c0-3.4,0.5-6.6,1.6-9.4c1-2.9,2.6-5.3,4.6-7.4c2-2,4.5-3.6,7.3-4.8c2.9-1.1,6.1-1.7,9.8-1.7
					c3.5,0,6.9,0.3,10.1,0.8c3.2,0.5,5.9,1.1,8.1,1.7V1054.7z M2881,1034.7c0,4.6,1,8,3,10.1c2,2.1,4.6,3.2,7.8,3.2
					c1.7,0,3.4-0.2,4.9-0.7c1.5-0.5,2.8-1,3.7-1.7v-24.4c-0.8-0.2-1.7-0.3-2.9-0.5c-1.1-0.1-2.6-0.2-4.3-0.2c-4,0-7,1.3-9.1,3.9
					C2882,1027,2881,1030.4,2881,1034.7z"/>
			</g>
		</g>
		<g>
			<path class="st9" d="M1931.3,768.2c25.5-5.3,47.5-12.5,66.1-21.5c18.6-9,33.1-19.6,43.3-31.7c10.3-12.1,15.4-24.9,15.4-38.4
				c0-13.5-5.1-26.3-15.4-38.4c-6.1-7.2-13.6-13.8-22.5-19.8l123.8-59.5l-49.2-23.7l-124.2,59.7c-11.1-3.7-23.2-6.8-36.3-9.5
				c-25.5-5.2-53.6-7.8-84.4-7.8c-30.8,0-58.9,2.7-84.4,8c-25.5,5.3-47.5,12.5-66.1,21.5s-33.1,19.6-43.3,31.7
				c-10.3,12.1-15.4,24.9-15.4,38.4c0,13.5,5.1,26.3,15.4,38.4c6.1,7.2,13.6,13.8,22.5,19.8l-123.8,59.5l49.2,23.7l124.2-59.7
				c11.1,3.7,23.2,6.8,36.3,9.5c25.5,5.2,53.6,7.8,84.4,7.8C1877.7,776.1,1905.9,773.5,1931.3,768.2z M1902.5,739.8
				c-16.5,3.6-34.7,5.3-54.5,5.3c-19.8,0-38-1.8-54.7-5.5c-6.2-1.4-12.1-2.9-17.6-4.6l190.3-91.5c2.5,2.3,4.7,4.7,6.7,7.1
				c6.6,8.3,10,17.1,10,26.5c0,9.3-3.3,18.1-10,26.5c-6.7,8.3-15.9,15.5-27.7,21.7C1933.2,731.4,1919.1,736.2,1902.5,739.8z
				 M1919.3,618.7L1729,710.2c-2.5-2.3-4.7-4.7-6.7-7.2c-6.6-8.3-10-17.1-10-26.5c0-9.3,3.3-18.1,10-26.5
				c6.7-8.3,15.9-15.5,27.7-21.7c11.8-6.1,25.9-11,42.5-14.5c16.5-3.6,34.7-5.3,54.5-5.3c19.8,0,38,1.8,54.7,5.5
				C1907.9,615.4,1913.8,616.9,1919.3,618.7z"/>
		</g>
	</g>
</g>
<g id="Layer_2">
	<g>
		<g>
			<g>
				<line class="st10" x1="2422.1" y1="1647" x2="2871" y2="1647"/>
				<g>
					<circle cx="2422.5" cy="1647" r="7.5"/>
				</g>
			</g>
		</g>
		<text transform="matrix(1 0 0 1 2907 1671)" class="st11 st12">Consensus</text>
		<g>
			<g>
				<line class="st10" x1="2422.1" y1="1751" x2="2871" y2="1751"/>
				<g>
					<circle cx="2422.5" cy="1751" r="7.5"/>
				</g>
			</g>
		</g>
		<text transform="matrix(1 0 0 1 2907 1775)" class="st11 st12">Networking</text>
		<g>
			<g>
				<line class="st10" x1="2282.1" y1="652" x2="3316" y2="652"/>
				<g>
					<circle cx="2282.5" cy="652" r="7.5"/>
				</g>
			</g>
		</g>
		<text transform="matrix(1 0 0 1 3352 676)" class="st11 st12">Cosmos SDK</text>
	</g>
</g>
</svg>
